<svg width="13" height="14" viewBox="0 0 13 14" fill="none" xmlns="http://www.w3.org/2000/svg">
<path d="M1.39043 7.58891L4.42855 0.245162C4.48853 0.100575 4.62741 0.00524271 4.78366 0.000476104C4.94148 -0.00746824 5.08353 0.0846861 5.14981 0.226095L8.39942 7.05029C8.49411 7.2489 8.41046 7.48564 8.21318 7.58097C8.01748 7.67471 7.78075 7.59209 7.68605 7.39348L4.81838 1.37167L2.12116 7.89557C2.05803 8.0481 1.91125 8.14025 1.75659 8.14025C1.70608 8.14025 1.654 8.13072 1.60507 8.11006C1.40306 8.02585 1.30836 7.79229 1.39201 7.5905L1.39043 7.58891ZM11.1976 6.49577V7.53489C11.1976 8.23876 10.4937 8.90291 9.74882 8.90291H6.82433L5.77164 10.7428C5.70062 10.8667 5.56962 10.9414 5.42916 10.9414C5.41811 10.9414 5.40707 10.9414 5.39602 10.9414C5.24293 10.9287 5.11193 10.8286 5.05827 10.684L4.17446 8.31503L3.82409 9.18573C3.76411 9.33667 3.61891 9.43518 3.45793 9.43518H1.39359C1.55457 9.48602 1.67136 9.63538 1.67136 9.81333C1.67136 11.6834 3.18805 13.204 5.05354 13.204C6.91902 13.204 8.43414 11.6866 8.43414 9.81968C8.43414 9.6894 8.42625 9.56547 8.41204 9.43995C8.38521 9.22227 8.53988 9.02366 8.7561 8.99665C8.96758 8.96805 9.1696 9.12535 9.19643 9.34303C9.21537 9.50032 9.22484 9.65603 9.22484 9.81968C9.22484 12.1251 7.35304 14 5.05354 14C2.75404 14 0.882239 12.122 0.882239 9.81333C0.882239 9.63538 0.999029 9.48602 1.16001 9.43518H0.394561C0.176763 9.43518 0 9.25723 0 9.03796C0 8.8187 0.176763 8.64075 0.394561 8.64075H3.19279L3.82251 7.07412C3.88406 6.92159 4.02768 6.82785 4.1934 6.82467C4.35595 6.82626 4.50115 6.92953 4.55797 7.08206L5.50334 9.6179L6.253 8.30867C6.32403 8.18474 6.45344 8.11006 6.59548 8.11006H9.74724C10.0487 8.11006 10.4054 7.80023 10.4054 7.53807V6.58316C9.11436 6.51166 8.08535 5.43441 8.08535 4.11724C8.08535 2.80006 9.18696 1.64337 10.5427 1.64337C11.8984 1.64337 13 2.7524 13 4.11724C13 5.25328 12.2346 6.20978 11.1976 6.49895V6.49577ZM12.2109 4.11406C12.2109 3.18934 11.4628 2.43621 10.5443 2.43621C9.62571 2.43621 8.87762 3.18934 8.87762 4.11406C8.87762 5.03878 9.62571 5.7919 10.5443 5.7919C11.4628 5.7919 12.2109 5.03878 12.2109 4.11406ZM11.4865 3.00503C11.316 2.86838 11.0667 2.89539 10.9309 3.06699L10.2965 3.8646C10.1607 4.0362 10.1876 4.28724 10.358 4.42389C10.4306 4.48268 10.5174 4.51127 10.6042 4.51127C10.721 4.51127 10.8346 4.46043 10.9136 4.36192L11.548 3.56431C11.6837 3.39271 11.6569 3.14167 11.4865 3.00503Z" fill="#5B637A"/>
</svg>
