<svg width="24" height="24" viewBox="0 0 24 24" fill="none" xmlns="http://www.w3.org/2000/svg">
<path d="M11.5885 2.18411C11.7959 1.91302 12.2041 1.91302 12.4115 2.18411C13.1658 3.17036 14.5264 3.45957 15.6166 2.86538C15.9163 2.70205 16.2892 2.86811 16.3684 3.20009C16.6563 4.40788 17.7817 5.2255 19.0193 5.12611C19.3595 5.09879 19.6327 5.40219 19.57 5.73766C19.3417 6.95814 20.0372 8.1628 21.2083 8.5754C21.5302 8.68881 21.6564 9.07709 21.4626 9.35805C20.7577 10.3802 20.9031 11.7636 21.8051 12.6168C22.0531 12.8514 22.0104 13.2574 21.7191 13.4353C20.6594 14.0823 20.2296 15.4052 20.7065 16.5516C20.8377 16.8667 20.6335 17.2203 20.2951 17.2643C19.0638 17.4244 18.133 18.4581 18.1025 19.6994C18.0941 20.0406 17.7638 20.2805 17.4368 20.1831C16.2468 19.8285 14.9761 20.3943 14.4433 21.5158C14.2969 21.8241 13.8975 21.909 13.6384 21.6869C12.6955 20.8791 11.3045 20.8791 10.3616 21.6869C10.1025 21.909 9.70312 21.8241 9.55669 21.5158C9.02394 20.3943 7.75318 19.8285 6.56325 20.1831C6.23617 20.2805 5.90587 20.0406 5.89748 19.6994C5.86696 18.4581 4.93619 17.4244 3.70492 17.2643C3.36648 17.2203 3.16235 16.8667 3.29346 16.5516C3.77044 15.4052 3.34059 14.0823 2.28089 13.4353C1.98961 13.2574 1.94694 12.8514 2.19487 12.6168L1.50767 11.8904L2.19487 12.6168C3.09688 11.7636 3.24228 10.3802 2.53738 9.35805L1.71416 9.92577L2.53738 9.35805C2.34363 9.07709 2.46979 8.68881 2.79168 8.5754C3.96275 8.1628 4.65826 6.95814 4.43005 5.73766C4.36732 5.40219 4.6405 5.09879 4.98069 5.12611C6.21834 5.2255 7.3437 4.40788 7.63163 3.20009C7.71077 2.86811 8.08374 2.70205 8.38341 2.86538C9.47363 3.45957 10.8342 3.17036 11.5885 2.18411Z" stroke="white" stroke-width="2"/>
<g clip-path="url(#clip0_581_172026)">
<path d="M15.3791 10.6934L16.0079 10.0646C16.3535 9.71903 16.3535 9.15743 16.0079 8.81183L15.3791 8.18303C15.0335 7.83743 14.4719 7.83743 14.1263 8.18303L13.4975 8.81183L15.3791 10.6934ZM14.7503 11.3222L10.0415 16.031H8.15991V14.1494L12.8687 9.44063L14.7503 11.3222Z" fill="white"/>
</g>
<defs>
<clipPath id="clip0_581_172026">
<rect width="8.112" height="8.112" fill="white" transform="translate(8.15991 7.91992)"/>
</clipPath>
</defs>
</svg>
