<svg width="13" height="14" viewBox="0 0 13 14" fill="none" xmlns="http://www.w3.org/2000/svg">
<path d="M12.9751 7.39986C12.8572 8.1842 12.3185 8.89856 11.6341 9.17519C11.3557 9.28747 11.0888 9.38186 10.8318 9.47298C10.393 9.62757 10.0131 9.76101 9.77729 9.92048C9.32537 10.2264 8.25778 11.1718 7.94012 11.7381C7.53077 12.4655 6.39605 13.7055 5.09104 13.9349C4.82414 13.9821 4.58017 14 4.35421 14C3.97433 14 3.64685 13.9496 3.34229 13.9024C3.06557 13.8601 2.8216 13.8226 2.58254 13.8291C1.3463 14.236 0.692977 13.8096 0.411344 13.5167C0.0298291 13.1164 -0.104438 12.5111 0.0855008 12.0408C0.241054 11.6551 0.674966 11.6421 1.05812 11.6291C1.26771 11.6226 1.53133 11.6144 1.64758 11.5477C1.7098 11.5136 1.77858 11.4957 1.84898 11.4957C2.01109 11.4957 2.24196 11.3817 2.45319 11.1979C2.58909 11.0791 3.01318 10.3973 3.32265 9.83749C3.33738 9.81145 4.11024 8.49337 4.29363 6.37957C4.31982 6.08341 3.68779 5.21609 3.10487 4.62214C2.94604 4.46104 2.94932 4.20231 3.11142 4.04609C3.27352 3.88825 3.53387 3.8915 3.69106 4.0526C4.04147 4.40897 5.1811 5.63755 5.10905 6.44954C4.90765 8.7635 4.0693 10.1841 4.03328 10.2427C3.87445 10.5323 3.30627 11.538 2.99189 11.8113C2.79213 11.9855 2.40406 12.267 1.95214 12.306C1.67869 12.4248 1.36431 12.4346 1.08104 12.4427C1.00245 12.4443 0.897653 12.4492 0.820695 12.4557C0.81087 12.5973 0.85508 12.7975 1.00245 12.952C1.26116 13.2222 1.74583 13.2515 2.36804 13.0367C2.40406 13.0236 2.44172 13.0171 2.47938 13.0139C2.82488 12.9944 3.14908 13.0448 3.46346 13.0936C3.90392 13.162 4.36076 13.2319 4.94204 13.1294C5.91465 12.9586 6.85944 11.979 7.21803 11.3378C7.6503 10.5697 8.88982 9.52831 9.30899 9.24354C9.6332 9.02386 10.0589 8.87578 10.5518 8.70166C10.8007 8.61379 11.0577 8.52429 11.3181 8.41852C11.7373 8.24929 12.0828 7.77901 12.1581 7.27782C12.2137 6.9068 12.1515 6.36005 11.5359 5.86536C11.1789 5.57734 10.9267 5.4797 10.6615 5.37718C10.3864 5.27141 10.1015 5.16239 9.75109 4.87436C9.41542 4.59936 8.84397 3.96961 8.82104 3.94357C8.80795 3.93056 8.79648 3.91591 8.78666 3.89964L6.55488 0.636995C6.42716 0.451488 6.47628 0.197637 6.66295 0.070711C6.84961 -0.0562148 7.10505 -0.00739718 7.23276 0.17811L9.45308 3.42123C9.62173 3.60511 10.0475 4.05911 10.2783 4.24787C10.5272 4.45128 10.7188 4.52613 10.9628 4.61888C11.2624 4.73442 11.5997 4.8646 12.0582 5.23399C12.7721 5.81003 13.0963 6.5781 12.9751 7.39986ZM8.43134 7.11021C8.2545 7.24853 8.22339 7.504 8.36257 7.68138C8.4428 7.78389 8.56397 7.83759 8.68514 7.83759C8.77356 7.83759 8.86198 7.80993 8.9373 7.75135C9.0028 7.7009 9.57589 7.23388 9.61519 6.52114C9.63975 6.07528 9.45308 5.65382 9.05847 5.27141C8.89637 5.11357 8.63766 5.11682 8.47883 5.27792C8.32 5.43902 8.32327 5.69613 8.48538 5.85397C8.70151 6.06389 8.80631 6.27217 8.79648 6.47233C8.78175 6.76523 8.52631 7.0321 8.42971 7.11021H8.43134Z" fill="#5B637A"/>
</svg>
