<svg width="17" height="16" viewBox="0 0 17 16" fill="none" xmlns="http://www.w3.org/2000/svg">
<path d="M12.2935 6.47721L9.16138 3.39786L1.8335 10.6023V13.6236H5.0246L12.2935 6.47721Z" fill="white"/>
<path d="M14.0986 3.07648L12.6823 1.68405C12.2049 1.21464 11.4307 1.2147 10.9534 1.68418C10.4667 2.16281 10.4777 2.94197 10.9779 3.40704L11.6442 4.02665L12.4045 4.7591C12.8761 5.21344 13.6319 5.2096 14.0987 4.7505C14.5688 4.28817 14.5688 3.53873 14.0986 3.07648Z" fill="white"/>
<path d="M7.47914 13.7206C7.47914 13.1988 7.90938 12.7758 8.4401 12.7758H14.2059C14.7366 12.7758 15.1668 13.1988 15.1668 13.7206C15.1668 14.2424 14.7366 14.6654 14.2059 14.6654H8.4401C7.90938 14.6654 7.47914 14.2424 7.47914 13.7206Z" fill="white"/>
</svg>
