<svg width="959" height="1363" viewBox="0 0 959 1363" fill="none" xmlns="http://www.w3.org/2000/svg">
<path d="M545.347 483.621C562.463 479.632 601.493 464.087 608.5 448.979C620.095 423.98 592 403.63 579 419.5C570.191 430.254 575.114 464.095 621.254 448.979C667.393 433.863 702.143 392.768 716.509 345.5C725.779 315 723.951 269.475 700.137 245.541C668 213.241 641.434 258.854 651.765 273.883C668 297.5 719.692 253.729 742.556 214C765 175 780.669 86 742.556 18.7978C733.626 3.05177 723.951 8.72034 716.509 18.7978C709.067 28.8752 640.603 113.904 630.184 122.721C619.765 131.539 532.696 227.275 521.533 277.032C510.37 326.79 491.766 376.547 476.882 387.255C467.533 393.98 458.478 398.966 449.347 401.588M314.65 341.276C335.487 341.276 367.487 366.47 376.417 375.288C385.348 384.105 418.092 403.001 432.975 403.63C438.51 403.865 443.942 403.141 449.347 401.588M314.65 341.276C293.813 341.276 284.233 344.66 274.464 350.724C257.455 361.281 254.377 378.963 240.976 392.573C237.255 396.352 231.357 397.831 225.348 401.391C217.906 405.8 244.697 399.222 274.464 399.222C303.219 399.222 323.58 425.675 325.813 431.343C328.045 437.012 351.655 499.701 394.278 525.82C417.347 539.956 465.719 558.221 526.742 537.437C587.766 516.652 685.306 431.165 843.5 505C944.709 552.238 1010.43 690.13 870.5 843C619.71 1116.98 234.976 1018.5 8 1354.5M314.65 341.276C250.915 305.452 249 254.042 249 182.5C249 164 240.976 140 256.5 153.5C267.131 162.745 293.013 170.082 322.5 197.5C351 224 368 335 449.347 401.588" stroke="white" stroke-width="16" stroke-linecap="round"/>
</svg>
