<svg width="136" height="17" viewBox="0 0 136 17" fill="none" xmlns="http://www.w3.org/2000/svg">
<path d="M1.52344 8.48047L13.5 0.898438H15.5391L3.73828 8.62109L16.2656 17H13.7695L1.52344 8.79688V17H0.0351562V0.898438H1.52344V8.48047ZM17.3945 17V0.898438H18.8594V17H17.3945ZM42.7578 17V3.30078L33.9102 17H32.6094L23.75 3.24219V17H22.2852V0.898438H23.8555L33.3008 15.4883L42.6406 0.898438H44.1992V17H42.7578ZM63.5273 17V9.19531H49.1016V17H47.6367V0.898438H49.1016V7.83594H63.5273V0.898438H64.9922V17H63.5273ZM75.6016 10.1797V17H74.1367V10.1797L66.5781 0.898438H68.3242L74.875 8.96094L81.4023 0.898438H83.1602L75.6016 10.1797ZM84.7461 17V0.898438H98.1641V2.26953H86.3398V7.8125H97.5664V9.17188H86.3398V15.6289H98.3398V17H84.7461ZM102.328 10.1094V17H100.863V0.898438H108.879C110.105 0.898438 111.156 0.996094 112.031 1.19141C112.906 1.37891 113.621 1.66797 114.176 2.05859C114.738 2.44141 115.148 2.92188 115.406 3.5C115.664 4.07812 115.793 4.75391 115.793 5.52734C115.793 6.73047 115.477 7.69531 114.844 8.42188C114.211 9.14062 113.191 9.63281 111.785 9.89844L117.281 17H115.441L110.25 10.0625C110.031 10.0781 109.809 10.0898 109.582 10.0977C109.355 10.1055 109.121 10.1094 108.879 10.1094H102.328ZM114.281 5.52734C114.281 4.83984 114.16 4.28516 113.918 3.86328C113.676 3.43359 113.281 3.10156 112.734 2.86719C112.188 2.63281 111.469 2.47656 110.578 2.39844C109.695 2.3125 108.609 2.26953 107.32 2.26953H102.328V8.73828H107.273C108.562 8.73828 109.652 8.70312 110.543 8.63281C111.434 8.55469 112.156 8.40234 112.711 8.17578C113.266 7.94141 113.664 7.61719 113.906 7.20312C114.156 6.78125 114.281 6.22266 114.281 5.52734ZM133.598 17L131.383 12.7578H120.449L118.234 17H116.629L125.055 0.898438H126.777L135.203 17H133.598ZM125.922 2.31641L121.164 11.4102H130.668L125.922 2.31641Z" fill="white"/>
</svg>
