<?xml version="1.0" encoding="utf-8"?>
<!-- Generator: Adobe Illustrator 16.0.0, SVG Export Plug-In . SVG Version: 6.00 Build 0)  -->
<!DOCTYPE svg PUBLIC "-//W3C//DTD SVG 1.1//EN" "http://www.w3.org/Graphics/SVG/1.1/DTD/svg11.dtd">
<svg version="1.1" id="ë ˆì´ì–´_1" xmlns="http://www.w3.org/2000/svg" xmlns:xlink="http://www.w3.org/1999/xlink" x="0px"
	 y="0px" width="1764px" height="1351px" viewBox="0 0 1764 1351" enable-background="new 0 0 1764 1351" xml:space="preserve">
<title>star-bg</title>
<path fill="#D15D64" d="M717.978,92.117l2.757,1.507c0.19,0.105,0.26,0.345,0.154,0.535c-0.036,0.065-0.09,0.119-0.154,0.155
	l-2.757,1.508c-0.065,0.037-0.119,0.091-0.155,0.156l-1.507,2.756c-0.104,0.19-0.343,0.261-0.533,0.157
	c-0.066-0.036-0.121-0.09-0.157-0.157l-1.508-2.755c-0.036-0.067-0.091-0.123-0.157-0.16l-2.755-1.505
	c-0.19-0.105-0.26-0.345-0.155-0.535c0.036-0.065,0.09-0.119,0.155-0.155l2.755-1.508c0.066-0.036,0.121-0.091,0.157-0.157
	l1.507-2.754c0.104-0.19,0.343-0.261,0.533-0.157c0.066,0.036,0.121,0.09,0.157,0.157l1.508,2.754
	C717.858,92.026,717.912,92.079,717.978,92.117"/>
<path fill="#FCD05C" d="M239.057,166.72l1.36,0.745c0.191,0.105,0.261,0.346,0.155,0.537c-0.036,0.065-0.09,0.12-0.155,0.156
	l-1.36,0.743c-0.066,0.037-0.12,0.091-0.156,0.157l-0.743,1.36c-0.104,0.191-0.344,0.262-0.535,0.158
	c-0.066-0.037-0.121-0.091-0.158-0.158l-0.743-1.36c-0.037-0.066-0.091-0.121-0.157-0.157l-1.36-0.743
	c-0.191-0.105-0.261-0.346-0.155-0.537c0.036-0.065,0.09-0.12,0.155-0.156l1.36-0.744c0.066-0.036,0.121-0.089,0.157-0.155
	l0.743-1.36c0.105-0.191,0.346-0.261,0.537-0.155c0.065,0.036,0.12,0.09,0.156,0.155l0.744,1.36c0.037,0.066,0.092,0.12,0.157,0.156
	"/>
<path fill="none" stroke="#7B63AB" stroke-width="1.097" stroke-linecap="round" stroke-linejoin="round" d="M409.472,108
	L408,109.47 M413.47,104l-1.47,1.472 M409.543,108.163c0.724,0.724,1.896,0.724,2.62,0s0.724-1.896,0-2.62s-1.896-0.724-2.62,0
	S408.819,107.439,409.543,108.163L409.543,108.163z"/>
<path fill="#D15D64" d="M961.978,138.117l2.757,1.507c0.19,0.105,0.26,0.345,0.154,0.535c-0.036,0.065-0.09,0.119-0.154,0.155
	l-2.757,1.507c-0.065,0.038-0.12,0.093-0.155,0.16l-1.507,2.754c-0.104,0.191-0.343,0.261-0.533,0.157
	c-0.066-0.036-0.121-0.09-0.157-0.157l-1.508-2.756c-0.036-0.066-0.091-0.121-0.157-0.157l-2.755-1.505
	c-0.19-0.105-0.26-0.345-0.155-0.535c0.036-0.065,0.09-0.119,0.155-0.155l2.755-1.508c0.066-0.036,0.121-0.09,0.157-0.156
	l1.507-2.755c0.104-0.19,0.343-0.261,0.533-0.157c0.066,0.036,0.121,0.09,0.157,0.157l1.508,2.755
	c0.036,0.066,0.09,0.12,0.155,0.156"/>
<path fill="#E98333" d="M1144.978,177.117l2.756,1.507c0.19,0.105,0.26,0.345,0.154,0.535c-0.036,0.065-0.09,0.119-0.154,0.155
	l-2.756,1.508c-0.065,0.037-0.119,0.09-0.155,0.156l-1.506,2.756c-0.104,0.191-0.342,0.263-0.532,0.16
	c-0.068-0.036-0.124-0.092-0.16-0.16l-1.506-2.756c-0.037-0.066-0.093-0.12-0.16-0.156l-2.753-1.507
	c-0.19-0.104-0.261-0.343-0.157-0.533c0.036-0.066,0.091-0.121,0.157-0.157l2.755-1.508c0.066-0.036,0.121-0.09,0.158-0.156
	l1.506-2.755c0.105-0.19,0.345-0.26,0.535-0.155c0.065,0.036,0.119,0.09,0.154,0.155l1.509,2.756c0.036,0.066,0.09,0.12,0.156,0.157
	"/>
<path fill="#FCD05C" d="M1083.057,100.72l1.36,0.745c0.191,0.105,0.261,0.346,0.155,0.537c-0.036,0.065-0.09,0.12-0.155,0.156
	l-1.36,0.743c-0.065,0.037-0.119,0.091-0.155,0.157l-0.743,1.36c-0.104,0.191-0.344,0.262-0.534,0.158
	c-0.067-0.037-0.122-0.091-0.158-0.158l-0.743-1.36c-0.036-0.066-0.091-0.121-0.157-0.157l-1.359-0.743
	c-0.191-0.105-0.261-0.346-0.155-0.537c0.036-0.065,0.09-0.12,0.155-0.156l1.359-0.744c0.066-0.036,0.121-0.089,0.157-0.155
	l0.743-1.36c0.105-0.191,0.346-0.261,0.537-0.155c0.065,0.036,0.119,0.09,0.155,0.155l0.744,1.36
	c0.036,0.066,0.092,0.12,0.156,0.156"/>
<path fill="#D15D64" d="M1206.813,253.907c-0.001,1.605-1.304,2.907-2.909,2.906c-1.606-0.001-2.907-1.303-2.906-2.909
	c0.001-1.605,1.304-2.907,2.909-2.906S1206.813,252.301,1206.813,253.907 M114.978,319.116l2.756,1.507
	c0.191,0.104,0.262,0.344,0.158,0.534c-0.036,0.066-0.091,0.121-0.158,0.158l-2.756,1.507c-0.065,0.036-0.12,0.09-0.156,0.155
	l-1.507,2.756c-0.104,0.19-0.343,0.261-0.533,0.156c-0.066-0.036-0.121-0.091-0.157-0.156l-1.508-2.756
	c-0.037-0.065-0.091-0.119-0.157-0.155l-2.755-1.507c-0.191-0.104-0.262-0.344-0.158-0.535c0.037-0.066,0.091-0.121,0.158-0.157
	l2.755-1.507c0.066-0.036,0.121-0.09,0.157-0.155l1.507-2.755c0.104-0.19,0.343-0.261,0.533-0.157
	c0.066,0.036,0.121,0.091,0.157,0.157l1.508,2.756c0.036,0.067,0.09,0.12,0.156,0.156"/>
<path fill="#FCD05C" d="M206.057,452.72l1.36,0.745c0.191,0.105,0.261,0.346,0.155,0.537c-0.036,0.065-0.09,0.119-0.155,0.155
	l-1.36,0.743c-0.066,0.036-0.12,0.091-0.156,0.156l-0.743,1.36c-0.104,0.191-0.344,0.262-0.535,0.157
	c-0.066-0.036-0.121-0.091-0.158-0.157l-0.743-1.36c-0.037-0.066-0.091-0.12-0.157-0.156l-1.36-0.743
	c-0.191-0.105-0.261-0.346-0.155-0.537c0.036-0.065,0.09-0.119,0.155-0.155l1.36-0.744c0.066-0.035,0.121-0.089,0.157-0.154
	l0.743-1.36c0.105-0.191,0.346-0.261,0.537-0.155c0.065,0.036,0.12,0.09,0.156,0.155l0.744,1.36
	c0.037,0.065,0.092,0.119,0.157,0.155"/>
<path fill="#D15D64" d="M1661.978,527.116l2.756,1.508c0.19,0.105,0.261,0.346,0.155,0.536c-0.036,0.066-0.09,0.12-0.155,0.156
	l-2.756,1.506c-0.065,0.036-0.12,0.091-0.155,0.156l-1.506,2.755c-0.104,0.19-0.342,0.263-0.532,0.159
	c-0.068-0.036-0.124-0.092-0.16-0.159l-1.506-2.755c-0.037-0.067-0.093-0.123-0.16-0.158l-2.753-1.506
	c-0.191-0.104-0.262-0.344-0.157-0.535c0.036-0.066,0.091-0.121,0.157-0.157l2.755-1.508c0.066-0.035,0.121-0.09,0.158-0.155
	l1.506-2.755c0.104-0.19,0.343-0.261,0.533-0.157c0.066,0.036,0.12,0.091,0.156,0.157l1.509,2.755
	C1661.858,527.025,1661.913,527.079,1661.978,527.116 M1376.877,100.645l1.3,0.71c0.26,0.144,0.26,0.52,0,0.66l-1.3,0.713
	c-0.063,0.034-0.115,0.085-0.15,0.148l-0.71,1.3c-0.101,0.183-0.33,0.249-0.512,0.148c-0.063-0.034-0.113-0.085-0.148-0.148
	l-0.709-1.3c-0.036-0.063-0.089-0.114-0.152-0.148l-1.3-0.712c-0.183-0.101-0.249-0.33-0.148-0.512
	c0.034-0.063,0.086-0.114,0.148-0.148l1.3-0.71c0.063-0.035,0.115-0.087,0.15-0.15l0.709-1.3c0.099-0.183,0.327-0.251,0.51-0.152
	c0.064,0.035,0.118,0.088,0.152,0.152l0.71,1.3C1376.762,100.559,1376.813,100.611,1376.877,100.645"/>
<path fill="#FCD05C" d="M1634.057,382.72l1.36,0.745c0.191,0.105,0.261,0.346,0.155,0.537c-0.036,0.065-0.09,0.119-0.155,0.155
	l-1.36,0.743c-0.065,0.036-0.119,0.091-0.155,0.156l-0.743,1.36c-0.104,0.191-0.344,0.262-0.534,0.157
	c-0.067-0.036-0.122-0.091-0.158-0.157l-0.743-1.36c-0.036-0.066-0.091-0.12-0.157-0.156l-1.359-0.743
	c-0.191-0.105-0.261-0.346-0.155-0.537c0.036-0.065,0.09-0.119,0.155-0.155l1.359-0.744c0.066-0.035,0.121-0.089,0.157-0.154
	l0.743-1.36c0.105-0.191,0.346-0.261,0.537-0.155c0.065,0.036,0.119,0.09,0.155,0.155l0.744,1.36
	c0.036,0.065,0.092,0.119,0.156,0.155"/>
<path fill="none" stroke="#E98333" stroke-width="1.097" stroke-linecap="round" stroke-linejoin="round" d="M411,385.888
	l3.554-0.888l-0.887,3.554L411,385.888z"/>
<path fill="#00A959" d="M522.226,503.018l2.019,1.104l-2.019,1.103l-1.104,2.019l-1.104-2.019L518,504.122l2.018-1.104l1.104-2.018
	L522.226,503.018z"/>
<path fill="#E98333" d="M530.979,40.117l2.755,1.507c0.19,0.105,0.26,0.345,0.154,0.535c-0.036,0.065-0.09,0.119-0.154,0.155
	l-2.755,1.508c-0.067,0.036-0.122,0.09-0.158,0.156l-1.506,2.756c-0.104,0.191-0.342,0.263-0.533,0.16
	c-0.067-0.036-0.123-0.092-0.159-0.16l-1.507-2.756c-0.037-0.066-0.092-0.12-0.157-0.156l-2.755-1.507
	c-0.19-0.104-0.261-0.343-0.157-0.533c0.036-0.066,0.091-0.121,0.157-0.157l2.755-1.508c0.065-0.037,0.12-0.09,0.157-0.156
	l1.508-2.755c0.105-0.19,0.345-0.26,0.535-0.155c0.065,0.036,0.119,0.089,0.154,0.155l1.508,2.756
	c0.037,0.066,0.09,0.12,0.156,0.157"/>
<path fill="none" stroke="#7B63AB" stroke-width="1.097" stroke-linecap="round" stroke-linejoin="round" d="M653.86,202.256
	l-0.848-1.6c-0.041-0.076-0.104-0.139-0.18-0.18l-1.6-0.848c-0.213-0.112-0.294-0.374-0.182-0.586
	c0.04-0.078,0.104-0.141,0.182-0.182l1.6-0.847c0.076-0.041,0.139-0.104,0.18-0.18l0.848-1.6c0.111-0.212,0.374-0.294,0.587-0.183
	c0.078,0.041,0.142,0.105,0.183,0.183l0.845,1.6c0.041,0.076,0.104,0.139,0.181,0.18l1.6,0.847c0.311,0.163,0.311,0.605,0,0.768
	l-1.6,0.847c-0.077,0.041-0.14,0.104-0.181,0.18l-0.846,1.6c-0.111,0.213-0.375,0.294-0.587,0.183
	C653.964,202.396,653.899,202.333,653.86,202.256L653.86,202.256z"/>
<path fill="#D15D64" d="M593.978,161.117l2.757,1.507c0.19,0.105,0.26,0.345,0.154,0.535c-0.036,0.065-0.09,0.119-0.154,0.155
	l-2.757,1.507c-0.065,0.038-0.12,0.093-0.155,0.16l-1.507,2.754c-0.104,0.191-0.343,0.261-0.533,0.157
	c-0.066-0.036-0.121-0.09-0.157-0.157l-1.508-2.756c-0.036-0.066-0.091-0.121-0.157-0.157l-2.755-1.505
	c-0.19-0.105-0.26-0.345-0.155-0.535c0.036-0.065,0.09-0.119,0.155-0.155l2.755-1.508c0.066-0.036,0.121-0.09,0.157-0.156
	l1.507-2.755c0.104-0.19,0.343-0.261,0.533-0.157c0.066,0.036,0.121,0.09,0.157,0.157l1.508,2.755
	c0.036,0.066,0.09,0.12,0.155,0.156"/>
<path fill="#E98333" d="M177.98,127.117l2.754,1.507c0.19,0.105,0.26,0.345,0.155,0.535c-0.036,0.065-0.089,0.119-0.155,0.155
	l-2.756,1.508c-0.066,0.037-0.12,0.09-0.156,0.156l-1.507,2.756c-0.104,0.19-0.343,0.261-0.533,0.157
	c-0.066-0.036-0.121-0.09-0.157-0.157l-1.507-2.756c-0.038-0.066-0.093-0.12-0.16-0.156l-2.752-1.507
	c-0.19-0.104-0.261-0.343-0.157-0.533c0.036-0.066,0.09-0.121,0.157-0.157l2.754-1.508c0.066-0.037,0.12-0.09,0.157-0.156
	l1.508-2.755c0.105-0.19,0.345-0.26,0.535-0.155c0.065,0.036,0.119,0.089,0.155,0.155l1.507,2.756
	c0.036,0.066,0.09,0.12,0.156,0.157"/>
<path fill="#D15D64" d="M299.813,56.907c-0.001,1.605-1.303,2.907-2.909,2.906c-1.605-0.001-2.907-1.303-2.906-2.909
	c0.001-1.605,1.303-2.907,2.909-2.906C298.513,53.999,299.814,55.301,299.813,56.907"/>
<path fill="none" stroke="#7B63AB" stroke-width="1.097" stroke-linecap="round" stroke-linejoin="round" d="M50.86,205.256
	l-0.847-1.6c-0.041-0.076-0.104-0.139-0.18-0.18l-1.6-0.848c-0.212-0.112-0.293-0.374-0.182-0.586
	c0.041-0.078,0.104-0.141,0.182-0.182l1.6-0.847c0.076-0.041,0.139-0.104,0.18-0.18l0.847-1.6c0.112-0.212,0.375-0.294,0.587-0.183
	c0.078,0.041,0.142,0.105,0.183,0.183l0.845,1.6c0.041,0.076,0.104,0.139,0.18,0.18l1.6,0.847c0.31,0.163,0.31,0.605,0,0.768
	l-1.6,0.847c-0.076,0.041-0.139,0.104-0.18,0.18l-0.846,1.6c-0.112,0.213-0.375,0.294-0.587,0.183
	C50.964,205.396,50.9,205.333,50.86,205.256L50.86,205.256z"/>
<path fill="#D15D64" d="M1690.978,261.116l2.756,1.507c0.19,0.105,0.26,0.345,0.155,0.537c-0.036,0.065-0.09,0.119-0.155,0.155
	l-2.756,1.507c-0.065,0.036-0.119,0.09-0.155,0.156l-1.506,2.755c-0.104,0.191-0.342,0.263-0.532,0.16
	c-0.068-0.037-0.124-0.092-0.16-0.16l-1.506-2.755c-0.037-0.066-0.093-0.121-0.16-0.156l-2.753-1.507
	c-0.191-0.104-0.262-0.343-0.157-0.535c0.036-0.066,0.091-0.121,0.157-0.157l2.755-1.507c0.066-0.036,0.121-0.089,0.158-0.155
	l1.506-2.755c0.104-0.19,0.343-0.261,0.533-0.157c0.066,0.036,0.12,0.09,0.156,0.157l1.509,2.756
	c0.036,0.066,0.091,0.12,0.156,0.156"/>
<path fill="#7B63AB" d="M1637.057,223.722l1.36,0.743c0.191,0.105,0.261,0.346,0.155,0.537c-0.036,0.065-0.09,0.12-0.155,0.156
	l-1.36,0.744c-0.065,0.037-0.12,0.091-0.155,0.157l-0.743,1.36c-0.105,0.191-0.346,0.261-0.537,0.155
	c-0.065-0.036-0.119-0.09-0.155-0.155l-0.743-1.36c-0.036-0.066-0.091-0.12-0.157-0.156l-1.359-0.743
	c-0.191-0.105-0.261-0.346-0.155-0.537c0.036-0.065,0.09-0.12,0.155-0.156l1.359-0.743c0.066-0.037,0.121-0.091,0.157-0.157
	l0.743-1.36c0.105-0.191,0.346-0.261,0.537-0.155c0.065,0.036,0.119,0.09,0.155,0.155l0.744,1.36
	c0.036,0.066,0.091,0.121,0.156,0.157"/>
<path fill="#D15D64" d="M1611.877,48.645l1.3,0.71c0.26,0.145,0.26,0.52,0,0.662l-1.3,0.71c-0.063,0.035-0.115,0.087-0.15,0.15
	l-0.71,1.3c-0.101,0.183-0.33,0.249-0.512,0.148c-0.063-0.034-0.113-0.085-0.148-0.148l-0.709-1.3
	c-0.036-0.063-0.089-0.115-0.152-0.15l-1.3-0.71c-0.184-0.1-0.251-0.329-0.151-0.512c0.035-0.063,0.088-0.116,0.151-0.15l1.3-0.71
	c0.063-0.035,0.115-0.087,0.15-0.15l0.709-1.298c0.099-0.183,0.327-0.251,0.51-0.152c0.064,0.035,0.118,0.088,0.152,0.152
	l0.71,1.298C1611.762,48.558,1611.813,48.61,1611.877,48.645"/>
<path fill="#FCD05C" d="M1663.057,116.72l1.36,0.745c0.191,0.105,0.261,0.346,0.155,0.537c-0.036,0.065-0.09,0.12-0.155,0.156
	l-1.36,0.743c-0.065,0.037-0.119,0.091-0.155,0.157l-0.743,1.36c-0.104,0.191-0.344,0.262-0.534,0.158
	c-0.067-0.037-0.122-0.091-0.158-0.158l-0.743-1.36c-0.036-0.066-0.091-0.121-0.157-0.157l-1.359-0.743
	c-0.191-0.105-0.261-0.346-0.155-0.537c0.036-0.065,0.09-0.12,0.155-0.156l1.359-0.744c0.066-0.036,0.121-0.089,0.157-0.155
	l0.743-1.36c0.105-0.191,0.346-0.261,0.537-0.155c0.065,0.036,0.119,0.09,0.155,0.155l0.744,1.36
	c0.036,0.066,0.092,0.12,0.156,0.156"/>
<g transform="translate(1580 434)">
	<defs>
		<filter id="Adobe_OpacityMaskFilter" filterUnits="userSpaceOnUse" x="0.611" y="0.066" width="5.621" height="5.624">
			<feColorMatrix  type="matrix" values="1 0 0 0 0  0 1 0 0 0  0 0 1 0 0  0 0 0 1 0"/>
		</filter>
	</defs>
	<mask maskUnits="userSpaceOnUse" x="0.611" y="0.066" width="5.621" height="5.624" id="b">
		<g filter="url(#Adobe_OpacityMaskFilter)">
			<path id="a" fill="#FFFFFF" d="M6.229,0.067V5.69H0.61V0.066L6.229,0.067L6.229,0.067z"/>
		</g>
	</mask>
	<path mask="url(#b)" fill="#7B63AB" d="M4.667,1.79l1.36,0.743c0.19,0.104,0.261,0.343,0.157,0.534
		C6.148,3.134,6.094,3.188,6.027,3.225l-1.36,0.743C4.601,4.004,4.547,4.059,4.51,4.124l-0.743,1.36
		c-0.104,0.19-0.343,0.262-0.534,0.157C3.166,5.605,3.111,5.551,3.075,5.484l-0.744-1.36c-0.036-0.065-0.09-0.12-0.155-0.156
		L0.816,3.225C0.625,3.12,0.556,2.88,0.66,2.688c0.036-0.065,0.091-0.119,0.156-0.155l1.359-0.744
		c0.066-0.036,0.12-0.091,0.156-0.157l0.745-1.359c0.104-0.191,0.344-0.262,0.534-0.158C3.678,0.15,3.732,0.205,3.769,0.272
		l0.743,1.359c0.036,0.066,0.091,0.12,0.157,0.156"/>
</g>
<path fill="#FCD05C" d="M1384.978,483.118l2.756,1.507c0.19,0.105,0.26,0.345,0.154,0.535c-0.036,0.065-0.09,0.119-0.154,0.155
	l-2.756,1.507c-0.065,0.035-0.12,0.09-0.156,0.155l-1.505,2.756c-0.104,0.19-0.342,0.262-0.532,0.159
	c-0.068-0.036-0.124-0.092-0.16-0.159l-1.506-2.756c-0.036-0.065-0.092-0.12-0.158-0.155l-2.755-1.507
	c-0.19-0.104-0.261-0.343-0.157-0.533c0.037-0.066,0.091-0.121,0.157-0.157l2.755-1.507c0.066-0.036,0.121-0.091,0.157-0.157
	l1.506-2.755c0.104-0.19,0.343-0.261,0.533-0.157c0.066,0.036,0.12,0.091,0.157,0.157l1.508,2.756
	c0.038,0.067,0.092,0.122,0.16,0.158"/>
<path fill="#D15D64" d="M1273.877,338.646l1.3,0.71c0.26,0.144,0.26,0.52,0,0.659l-1.3,0.712c-0.063,0.035-0.115,0.087-0.15,0.15
	l-0.71,1.298c-0.101,0.183-0.33,0.249-0.512,0.148c-0.063-0.035-0.113-0.086-0.148-0.148l-0.709-1.3
	c-0.036-0.063-0.089-0.114-0.152-0.148l-1.3-0.712c-0.183-0.101-0.249-0.33-0.148-0.512c0.034-0.063,0.086-0.113,0.148-0.147
	l1.3-0.71c0.063-0.036,0.115-0.088,0.15-0.15l0.709-1.3c0.099-0.183,0.327-0.251,0.51-0.153c0.064,0.035,0.118,0.088,0.152,0.153
	l0.71,1.3C1273.762,338.559,1273.813,338.611,1273.877,338.646"/>
<path fill="#FCD05C" d="M1494.057,406.72l1.36,0.745c0.191,0.105,0.261,0.346,0.155,0.537c-0.036,0.065-0.09,0.119-0.155,0.155
	l-1.36,0.743c-0.065,0.036-0.119,0.091-0.155,0.156l-0.743,1.36c-0.104,0.191-0.344,0.262-0.534,0.157
	c-0.067-0.036-0.122-0.091-0.158-0.157l-0.743-1.36c-0.036-0.066-0.091-0.12-0.157-0.156l-1.359-0.743
	c-0.191-0.105-0.261-0.346-0.155-0.537c0.036-0.065,0.09-0.119,0.155-0.155l1.359-0.744c0.066-0.035,0.121-0.089,0.157-0.154
	l0.743-1.36c0.105-0.191,0.346-0.261,0.537-0.155c0.065,0.036,0.119,0.09,0.155,0.155l0.744,1.36
	c0.036,0.065,0.092,0.119,0.156,0.155"/>
<path fill="none" stroke="#00A959" stroke-width="1.097" stroke-linecap="round" stroke-linejoin="round" d="M1712,450.524
	l1.762-0.542l1.763,0.542l-0.543-1.763l0.543-1.762l-1.762,0.543L1712,447l0.542,1.762L1712,450.524z"/>
<g transform="translate(1598 622)">
	<defs>
		<filter id="Adobe_OpacityMaskFilter_1_" filterUnits="userSpaceOnUse" x="0.669" y="0.696" width="9.938" height="9.937">
			<feColorMatrix  type="matrix" values="1 0 0 0 0  0 1 0 0 0  0 0 1 0 0  0 0 0 1 0"/>
		</filter>
	</defs>
	<mask maskUnits="userSpaceOnUse" x="0.669" y="0.696" width="9.938" height="9.937" id="d">
		<g filter="url(#Adobe_OpacityMaskFilter_1_)">
			<path id="c" fill="#FFFFFF" d="M0.67,0.697h9.938v9.938H0.67V0.697z"/>
		</g>
	</mask>
	<path mask="url(#d)" fill="#D15D64" d="M7.647,3.813l2.756,1.508c0.19,0.104,0.26,0.345,0.154,0.535
		c-0.036,0.065-0.09,0.118-0.154,0.154L7.647,7.52C7.581,7.556,7.527,7.61,7.491,7.677L5.985,10.43
		c-0.105,0.19-0.345,0.26-0.535,0.155c-0.065-0.036-0.119-0.09-0.155-0.155l-1.51-2.755C3.749,7.608,3.694,7.554,3.628,7.518
		L0.873,6.01c-0.19-0.104-0.26-0.345-0.155-0.535c0.036-0.065,0.09-0.119,0.155-0.154L3.63,3.813c0.066-0.036,0.12-0.09,0.156-0.156
		L5.293,0.9c0.105-0.191,0.345-0.26,0.535-0.155C5.894,0.781,5.947,0.835,5.983,0.9l1.508,2.756
		c0.036,0.066,0.091,0.121,0.158,0.156"/>
</g>
<g>
	<path fill="none" stroke="#E98333" stroke-width="1.097" stroke-linecap="round" stroke-linejoin="round" d="M70.472,513L69,514.47
		 M74.47,509L73,510.47 M70.543,513.163c0.724,0.724,1.896,0.724,2.62,0s0.724-1.896,0-2.62s-1.896-0.724-2.62,0
		S69.819,512.439,70.543,513.163z"/>
</g>
<path fill="#FCD05C" d="M239.057,1200.9l1.36-0.743c0.191-0.105,0.261-0.346,0.155-0.537c-0.036-0.065-0.09-0.119-0.155-0.155
	l-1.36-0.743c-0.066-0.036-0.12-0.091-0.156-0.157l-0.743-1.359c-0.104-0.191-0.344-0.262-0.535-0.158
	c-0.066,0.037-0.121,0.092-0.158,0.158l-0.743,1.359c-0.037,0.066-0.091,0.121-0.157,0.157l-1.36,0.743
	c-0.191,0.105-0.261,0.346-0.155,0.537c0.036,0.065,0.09,0.119,0.155,0.155l1.36,0.744c0.066,0.036,0.12,0.09,0.157,0.156
	l0.743,1.36c0.15,0.273,0.542,0.273,0.692,0l0.744-1.36c0.037-0.065,0.091-0.12,0.157-0.155"/>
<path fill="#D15D64" d="M1206.813,1132.906c-0.001-1.605-1.304-2.907-2.909-2.906c-1.606,0.001-2.907,1.304-2.906,2.909l0,0
	c0.001,1.605,1.304,2.906,2.909,2.905C1205.514,1135.813,1206.814,1134.511,1206.813,1132.906 M114.978,1035.822l2.756-1.506
	c0.191-0.104,0.262-0.344,0.158-0.535c-0.036-0.066-0.091-0.121-0.158-0.157l-2.756-1.507c-0.066-0.037-0.12-0.091-0.156-0.157
	l-1.507-2.755c-0.104-0.19-0.343-0.261-0.533-0.156c-0.066,0.035-0.121,0.09-0.157,0.156l-1.508,2.755
	c-0.037,0.066-0.091,0.121-0.157,0.157l-2.755,1.507c-0.19,0.105-0.26,0.345-0.155,0.535c0.036,0.065,0.089,0.119,0.155,0.155
	l2.755,1.508c0.066,0.036,0.12,0.09,0.157,0.156l1.507,2.754c0.15,0.273,0.542,0.273,0.69,0l1.508-2.756
	C114.858,1035.911,114.912,1035.857,114.978,1035.822"/>
<path fill="#FCD05C" d="M206.057,793.9l1.36-0.744c0.191-0.105,0.261-0.346,0.155-0.537c-0.036-0.065-0.09-0.119-0.155-0.155
	l-1.36-0.743c-0.066-0.036-0.12-0.09-0.156-0.155l-0.743-1.36c-0.104-0.191-0.344-0.262-0.535-0.157
	c-0.066,0.036-0.121,0.091-0.158,0.157l-0.743,1.36c-0.036,0.066-0.091,0.121-0.157,0.157l-1.36,0.742
	c-0.191,0.105-0.261,0.346-0.155,0.537c0.036,0.065,0.09,0.119,0.155,0.155l1.36,0.745c0.066,0.037,0.12,0.09,0.157,0.155
	l0.743,1.36c0.15,0.273,0.542,0.273,0.692,0l0.744-1.36c0.037-0.065,0.091-0.119,0.157-0.155"/>
<path fill="#D15D64" d="M1455.978,1061.822l2.756-1.506c0.191-0.105,0.262-0.345,0.156-0.536c-0.036-0.066-0.091-0.121-0.156-0.157
	l-2.756-1.507c-0.065-0.036-0.119-0.09-0.155-0.156l-1.506-2.755c-0.104-0.191-0.342-0.263-0.532-0.16
	c-0.068,0.037-0.124,0.093-0.16,0.16l-1.506,2.755c-0.037,0.066-0.093,0.121-0.16,0.156l-2.753,1.507
	c-0.191,0.104-0.262,0.344-0.157,0.534c0.036,0.067,0.091,0.122,0.157,0.158l2.755,1.507c0.066,0.035,0.122,0.09,0.158,0.156
	l1.506,2.754c0.15,0.273,0.543,0.273,0.689,0l1.509-2.756C1455.858,1061.911,1455.913,1061.856,1455.978,1061.822"/>
<path fill="#7B63AB" d="M1402.057,1085.9l1.36-0.743c0.191-0.105,0.261-0.346,0.155-0.537c-0.036-0.065-0.09-0.119-0.155-0.155
	l-1.36-0.744c-0.065-0.036-0.119-0.09-0.155-0.154l-0.743-1.36c-0.105-0.191-0.346-0.261-0.537-0.155
	c-0.065,0.036-0.119,0.09-0.155,0.155l-0.743,1.36c-0.036,0.065-0.091,0.119-0.157,0.155l-1.359,0.745
	c-0.191,0.105-0.261,0.346-0.155,0.537c0.036,0.065,0.09,0.119,0.155,0.155l1.359,0.743c0.066,0.035,0.12,0.09,0.157,0.156
	l0.743,1.36c0.15,0.272,0.542,0.272,0.692,0l0.744-1.36c0.036-0.065,0.091-0.12,0.156-0.156"/>
<path fill="none" stroke="#E98333" stroke-width="1.097" stroke-linecap="round" stroke-linejoin="round" d="M411,894.666
	l3.554,0.888L413.667,892L411,894.666z"/>
<path fill="#00A959" d="M522.226,745.225l2.019-1.104l-2.019-1.103l-1.104-2.018l-1.104,2.018L518,744.12l2.018,1.104l1.104,2.019
	L522.226,745.225z"/>
<path fill="#E98333" d="M177.98,1225.822l2.754-1.506c0.191-0.104,0.262-0.344,0.158-0.535c-0.036-0.066-0.091-0.121-0.158-0.157
	l-2.756-1.507c-0.066-0.036-0.12-0.091-0.156-0.156l-1.507-2.755c-0.104-0.19-0.343-0.261-0.533-0.157
	c-0.066,0.037-0.121,0.091-0.157,0.157l-1.507,2.756c-0.038,0.066-0.093,0.121-0.16,0.157l-2.752,1.507
	c-0.19,0.104-0.261,0.343-0.157,0.533c0.036,0.066,0.09,0.12,0.157,0.157l2.754,1.508c0.066,0.036,0.12,0.09,0.157,0.156
	l1.508,2.755c0.15,0.273,0.54,0.273,0.69,0l1.507-2.755c0.036-0.066,0.09-0.122,0.156-0.158"/>
<path fill="#D15D64" d="M299.813,1325.906c-0.001-1.605-1.303-2.907-2.909-2.906c-1.605,0.001-2.907,1.304-2.906,2.909
	s1.304,2.906,2.91,2.905C298.513,1328.813,299.814,1327.511,299.813,1325.906"/>
<path fill="none" stroke="#7B63AB" stroke-width="1.097" stroke-linecap="round" stroke-linejoin="round" d="M50.86,1174.232
	l-0.847,1.6c-0.041,0.076-0.104,0.139-0.18,0.18l-1.6,0.849c-0.212,0.111-0.293,0.374-0.182,0.586
	c0.041,0.077,0.104,0.141,0.182,0.182l1.6,0.847c0.076,0.041,0.14,0.104,0.18,0.181l0.847,1.6c0.163,0.311,0.605,0.311,0.77,0
	l0.845-1.6c0.041-0.076,0.104-0.14,0.18-0.181l1.6-0.847c0.212-0.111,0.293-0.374,0.182-0.586c-0.041-0.078-0.104-0.141-0.182-0.182
	l-1.6-0.848c-0.076-0.04-0.139-0.104-0.18-0.18l-0.846-1.6c-0.112-0.213-0.375-0.295-0.587-0.183
	C50.964,1174.092,50.9,1174.155,50.86,1174.232L50.86,1174.232z"/>
<path fill="#D15D64" d="M1690.978,1110.822l2.756-1.506c0.191-0.105,0.262-0.345,0.156-0.536c-0.036-0.066-0.091-0.121-0.156-0.157
	l-2.756-1.507c-0.065-0.036-0.119-0.09-0.155-0.156l-1.506-2.755c-0.104-0.191-0.342-0.263-0.532-0.16
	c-0.068,0.037-0.124,0.093-0.16,0.16l-1.506,2.755c-0.037,0.066-0.093,0.121-0.16,0.156l-2.753,1.507
	c-0.191,0.104-0.262,0.344-0.157,0.534c0.036,0.067,0.091,0.122,0.157,0.158l2.755,1.507c0.066,0.035,0.122,0.09,0.158,0.156
	l1.506,2.754c0.15,0.273,0.543,0.273,0.689,0l1.509-2.756C1690.858,1110.911,1690.913,1110.856,1690.978,1110.822"/>
<path fill="#7B63AB" d="M1637.057,1155.9l1.36-0.743c0.191-0.105,0.261-0.346,0.155-0.537c-0.036-0.065-0.09-0.119-0.155-0.155
	l-1.36-0.744c-0.065-0.036-0.119-0.09-0.155-0.154l-0.743-1.36c-0.105-0.191-0.346-0.261-0.537-0.155
	c-0.065,0.036-0.119,0.09-0.155,0.155l-0.743,1.36c-0.036,0.065-0.091,0.119-0.157,0.155l-1.359,0.745
	c-0.191,0.105-0.261,0.346-0.155,0.537c0.036,0.065,0.09,0.119,0.155,0.155l1.359,0.743c0.066,0.035,0.12,0.09,0.157,0.156
	l0.743,1.36c0.15,0.272,0.542,0.272,0.692,0l0.744-1.36c0.036-0.065,0.091-0.12,0.156-0.156"/>
<path fill="#D15D64" d="M1611.877,1349.727l1.3-0.709c0.183-0.102,0.249-0.33,0.148-0.513c-0.035-0.063-0.086-0.113-0.148-0.147
	l-1.3-0.713c-0.063-0.034-0.115-0.086-0.15-0.149l-0.71-1.3c-0.101-0.183-0.33-0.249-0.512-0.148
	c-0.063,0.035-0.113,0.086-0.148,0.148l-0.709,1.3c-0.036,0.063-0.089,0.115-0.152,0.149l-1.3,0.711
	c-0.184,0.1-0.251,0.328-0.151,0.511c0.035,0.063,0.088,0.116,0.151,0.15l1.3,0.71c0.063,0.035,0.115,0.088,0.15,0.15l0.709,1.3
	c0.099,0.183,0.327,0.251,0.51,0.153c0.064-0.035,0.118-0.088,0.152-0.153l0.71-1.3
	C1611.762,1349.813,1611.813,1349.762,1611.877,1349.727"/>
<path fill="#FCD05C" d="M1663.057,1249.9l1.36-0.743c0.191-0.105,0.261-0.346,0.155-0.537c-0.036-0.065-0.09-0.119-0.155-0.155
	l-1.36-0.743c-0.065-0.036-0.119-0.091-0.155-0.157l-0.743-1.359c-0.104-0.191-0.344-0.262-0.534-0.158
	c-0.067,0.037-0.122,0.092-0.158,0.158l-0.743,1.359c-0.036,0.066-0.091,0.121-0.157,0.157l-1.359,0.743
	c-0.191,0.105-0.261,0.346-0.155,0.537c0.036,0.065,0.09,0.119,0.155,0.155l1.359,0.744c0.066,0.036,0.12,0.09,0.157,0.156
	l0.743,1.36c0.15,0.273,0.542,0.273,0.692,0l0.744-1.36c0.036-0.065,0.091-0.12,0.156-0.155"/>
<g transform="matrix(1 0 0 -1 1587 986)">
	<defs>
		<filter id="Adobe_OpacityMaskFilter_2_" filterUnits="userSpaceOnUse" x="0.611" y="-5.689" width="5.621" height="5.623">
			<feColorMatrix  type="matrix" values="1 0 0 0 0  0 1 0 0 0  0 0 1 0 0  0 0 0 1 0"/>
		</filter>
	</defs>
	<mask maskUnits="userSpaceOnUse" x="0.611" y="-5.689" width="5.621" height="5.623" id="f">
		<g filter="url(#Adobe_OpacityMaskFilter_2_)">
			<path id="e" fill="#FFFFFF" d="M6.229,0.067V5.69H0.61V0.066L6.229,0.067L6.229,0.067z"/>
		</g>
	</mask>
	<path mask="url(#f)" fill="#7B63AB" d="M4.667,1.79l1.36,0.743c0.19,0.104,0.261,0.343,0.157,0.534
		C6.148,3.134,6.094,3.188,6.027,3.225l-1.36,0.743C4.601,4.004,4.547,4.059,4.51,4.124l-0.743,1.36
		c-0.104,0.19-0.343,0.262-0.534,0.157C3.166,5.605,3.111,5.551,3.075,5.484l-0.744-1.36c-0.036-0.065-0.09-0.12-0.155-0.156
		L0.816,3.225C0.625,3.12,0.556,2.88,0.66,2.688c0.036-0.065,0.091-0.119,0.156-0.155l1.359-0.744
		c0.066-0.036,0.12-0.091,0.156-0.157l0.745-1.36c0.104-0.19,0.344-0.261,0.534-0.157C3.678,0.15,3.732,0.205,3.769,0.271
		l0.743,1.36c0.036,0.066,0.091,0.12,0.157,0.156"/>
</g>
<g>
	<path fill="none" stroke="#7B63AB" stroke-width="1.097" stroke-linecap="round" stroke-linejoin="round" d="M1164,915l2.78-2.78
		 M1156,923l2.78-2.78 M1161.607,912.906c0-0.997-5.483,4.485-4.486,4.485c-0.996,0,4.487,5.484,4.487,4.487
		c0,0.996,5.482-4.488,4.485-4.488C1167.091,917.391,1161.608,911.908,1161.607,912.906L1161.607,912.906z"/>
</g>
<path fill="#FCD05C" d="M1384.978,770.822l2.756-1.507c0.19-0.104,0.262-0.344,0.157-0.535c-0.036-0.066-0.091-0.121-0.157-0.157
	l-2.756-1.506c-0.065-0.036-0.12-0.09-0.156-0.156l-1.505-2.755c-0.104-0.191-0.342-0.263-0.532-0.16
	c-0.068,0.037-0.124,0.093-0.16,0.16l-1.506,2.755c-0.036,0.066-0.091,0.121-0.158,0.157l-2.755,1.507
	c-0.19,0.104-0.261,0.343-0.157,0.533c0.037,0.066,0.091,0.121,0.157,0.157l2.755,1.508c0.066,0.036,0.121,0.091,0.157,0.157
	l1.506,2.754c0.15,0.273,0.543,0.273,0.69,0l1.508-2.756c0.037-0.066,0.092-0.121,0.16-0.157"/>
<path fill="#D15D64" d="M1273.877,962.727l1.3-0.71c0.183-0.101,0.249-0.33,0.148-0.512c-0.035-0.063-0.086-0.113-0.148-0.147
	l-1.3-0.713c-0.063-0.034-0.115-0.086-0.15-0.149l-0.71-1.3c-0.101-0.183-0.33-0.249-0.512-0.148
	c-0.063,0.035-0.113,0.086-0.148,0.148l-0.709,1.3c-0.036,0.063-0.089,0.115-0.152,0.149l-1.3,0.711
	c-0.184,0.1-0.251,0.328-0.151,0.511c0.035,0.063,0.088,0.116,0.151,0.15l1.3,0.71c0.063,0.035,0.115,0.088,0.15,0.15l0.709,1.3
	c0.099,0.183,0.327,0.251,0.51,0.153c0.064-0.035,0.118-0.088,0.152-0.153l0.71-1.3
	C1273.762,962.814,1273.813,962.762,1273.877,962.727"/>
<path fill="#FCD05C" d="M1494.057,873.9l1.36-0.744c0.191-0.105,0.261-0.346,0.155-0.537c-0.036-0.065-0.09-0.119-0.155-0.155
	l-1.36-0.743c-0.065-0.036-0.119-0.09-0.155-0.155l-0.743-1.36c-0.104-0.191-0.344-0.262-0.534-0.157
	c-0.067,0.036-0.122,0.091-0.158,0.157l-0.743,1.36c-0.036,0.066-0.091,0.121-0.157,0.157l-1.359,0.742
	c-0.191,0.105-0.261,0.346-0.155,0.537c0.036,0.065,0.09,0.119,0.155,0.155l1.359,0.745c0.066,0.037,0.12,0.09,0.157,0.155
	l0.743,1.36c0.15,0.273,0.542,0.273,0.692,0l0.744-1.36c0.036-0.065,0.091-0.119,0.156-0.155"/>
<path fill="none" stroke="#00A959" stroke-width="1.097" stroke-linecap="round" stroke-linejoin="round" d="M1712,812l1.762,0.542
	l1.763-0.542l-0.543,1.762l0.543,1.763l-1.762-0.543l-1.762,0.544l0.542-1.763L1712,812z"/>
<g>
	<path fill="none" stroke="#E98333" stroke-width="1.097" stroke-linecap="round" stroke-linejoin="round" d="M70.472,721L69,719.53
		 M74.47,725L73,723.53 M70.543,720.837c0.724-0.724,1.896-0.724,2.62,0s0.724,1.896,0,2.62s-1.896,0.724-2.62,0
		S69.819,721.561,70.543,720.837L70.543,720.837z"/>
</g>
</svg>
