<svg width="20" height="19" viewBox="0 0 20 19" fill="none" xmlns="http://www.w3.org/2000/svg">
<g clip-path="url(#clip0_444_206924)">
<path d="M17.9175 6.98778V6.23833C17.9175 2.79722 15.1382 0 11.725 0H8.27505C4.86182 0 2.08252 2.79722 2.08252 6.23833V6.98778C0.853962 7.36778 0 8.4075 0 9.58972V11.2865C0 12.7089 1.22331 13.8832 2.78455 14.0257C3.5442 15.4929 4.86706 16.6144 6.41781 17.1106C6.53831 18.174 7.43419 19.0026 8.52128 19.0026H11.9136C13.0085 19.0026 13.9358 18.2057 14.0694 17.1475C14.148 16.5353 13.962 15.9204 13.5586 15.4613C13.1552 14.9994 12.5763 14.7356 11.9686 14.7356H8.52128C8.30124 14.7356 8.08644 14.7699 7.87688 14.8358C7.83497 14.8253 7.79568 14.8174 7.75377 14.8121C5.96464 14.5561 4.61297 12.986 4.61297 11.1625V6.23833C4.61297 4.20375 6.2554 2.55181 8.27243 2.55181H11.7197C13.7394 2.55181 15.3792 4.20639 15.3792 6.23833V12.7511C15.3792 13.4531 15.9476 14.0257 16.6444 14.0257H17.184C17.315 14.0257 17.4329 14.0151 17.5403 13.994C18.9627 13.7222 19.9948 12.5822 19.9948 11.2812V9.58444C19.9948 8.40222 19.1408 7.3625 17.9122 6.9825L17.9175 6.98778Z" fill="#5B637A"/>
</g>
<defs>
<clipPath id="clip0_444_206924">
<rect width="20" height="19" fill="white"/>
</clipPath>
</defs>
</svg>
