<svg width="15" height="15" viewBox="0 0 15 15" fill="none" xmlns="http://www.w3.org/2000/svg">
<g id="Frame 48096335">
<path id="Vector" d="M5.28516 2.26953H14.1186L13.6597 5.85659C13.5416 6.77953 12.7359 7.47221 11.7806 7.47221H6.39577" stroke="white" stroke-width="1.5" stroke-miterlimit="10" stroke-linecap="round"/>
<path id="Vector_2" d="M13.5189 10.3312H5.77547C5.48932 10.3312 5.21014 10.2339 4.99115 10.0604C4.77245 9.88714 4.62235 9.64491 4.56626 9.38149L4.56626 9.38148L2.83358 1.2458L2.75024 0.854488L2.35018 0.849982L1.12295 0.83616C1.12293 0.83616 1.12291 0.836159 1.12289 0.836159C0.90395 0.833634 0.740574 0.684261 0.703342 0.505707L3.0502 0.53219L4.92186 9.32075C4.92186 9.32077 4.92187 9.32079 4.92187 9.32082C4.92188 9.32084 4.92188 9.32086 4.92189 9.32089C5.00855 9.72806 5.37308 10.0055 5.77547 10.0055H12.8332C13.118 10.0055 13.3635 10.1353 13.5189 10.3312Z" fill="white" stroke="white"/>
<path id="Vector_3" d="M12.5862 14.0018C13.1408 14.0018 13.5904 13.5642 13.5904 13.0244C13.5904 12.4845 13.1408 12.0469 12.5862 12.0469C12.0316 12.0469 11.582 12.4845 11.582 13.0244C11.582 13.5642 12.0316 14.0018 12.5862 14.0018Z" fill="white" stroke="white" stroke-width="2" stroke-linecap="round" stroke-linejoin="round"/>
<path id="Vector_4" d="M5.64869 14.0018C6.20328 14.0018 6.65286 13.5642 6.65286 13.0244C6.65286 12.4845 6.20328 12.0469 5.64869 12.0469C5.09411 12.0469 4.64453 12.4845 4.64453 13.0244C4.64453 13.5642 5.09411 14.0018 5.64869 14.0018Z" fill="white" stroke="white" stroke-width="2" stroke-linecap="round" stroke-linejoin="round"/>
<path id="Vector_5" d="M8.62558 7.47266H4.69141" stroke="white" stroke-width="1.5" stroke-miterlimit="10" stroke-linecap="round"/>
</g>
</svg>
