<svg width="16" height="17" viewBox="0 0 16 17" fill="none" xmlns="http://www.w3.org/2000/svg">
<path d="M10.0569 2.4314L13.4493 5.56284M2 13H5.39239L14.2974 4.77998C14.5202 4.57437 14.6969 4.33027 14.8174 4.06162C14.938 3.79297 15 3.50504 15 3.21426C15 2.92348 14.938 2.63555 14.8174 2.3669C14.6969 2.09825 14.5202 1.85416 14.2974 1.64854C14.0747 1.44293 13.8102 1.27983 13.5192 1.16855C13.2282 1.05727 12.9162 1 12.6012 1C12.2862 1 11.9743 1.05727 11.6832 1.16855C11.3922 1.27983 11.1278 1.44293 10.905 1.64854L2 9.86856V13Z" stroke="white" stroke-opacity="0.5" stroke-width="1.5" stroke-linecap="round" stroke-linejoin="round"/>
<path d="M1 16H15" stroke="white" stroke-opacity="0.5" stroke-width="1.5" stroke-linecap="round"/>
</svg>
