<svg width="31" height="30" viewBox="0 0 31 30" fill="none" xmlns="http://www.w3.org/2000/svg">
<g clip-path="url(#clip0_53_14052)">
<path d="M16.2937 12.5481L17.8537 10.9881C17.4397 10.7151 17.0017 10.4841 16.5397 10.2951C15.6427 9.93209 14.6917 9.74609 13.7197 9.74609C12.7477 9.74609 11.7967 9.93209 10.8997 10.2951C9.96966 10.6731 9.13566 11.2251 8.41866 11.9421C7.70466 12.6561 7.14966 13.4931 6.77166 14.4231C6.40866 15.3201 6.22266 16.2711 6.22266 17.2431C6.22266 18.2151 6.40866 19.1661 6.77166 20.0631C7.14966 20.9931 7.70166 21.8271 8.41866 22.5441C9.13266 23.2581 9.96966 23.8131 10.8997 24.1911C11.7967 24.5541 12.7477 24.7401 13.7197 24.7401C14.6917 24.7401 15.6427 24.5541 16.5397 24.1911C17.4697 23.8131 18.3037 23.2611 19.0207 22.5441C19.7347 21.8301 20.2897 20.9931 20.6677 20.0631C21.0307 19.1661 21.2167 18.2151 21.2167 17.2431C21.2167 16.2711 21.0307 15.3201 20.6677 14.4231C20.4787 13.9611 20.2477 13.5201 19.9747 13.1091L18.4147 14.6691C19.5277 16.7031 19.2247 19.3101 17.5057 21.0321C15.4177 23.1201 12.0217 23.1201 9.93366 21.0321C7.84566 18.9441 7.84566 15.5481 9.93366 13.4601C11.6527 11.7411 14.2627 11.4381 16.2967 12.5511L16.2937 12.5481Z" fill="#9598A0"/>
<path d="M23.7214 9.35716L22.1944 10.8842C25.3444 15.0602 24.9904 20.9492 21.2074 24.7322C17.0764 28.8632 10.3564 28.8632 6.22538 24.7322C2.09437 20.6012 2.09437 13.8812 6.22538 9.75016C10.0084 5.96716 15.8974 5.61616 20.0734 8.76316L21.6004 7.23616C20.5654 6.41716 19.4194 5.77216 18.1774 5.30716C16.6744 4.74616 15.0934 4.47616 13.4824 4.50616C10.1704 4.56616 7.05338 5.88916 4.71038 8.23516C3.49538 9.45016 2.55338 10.8692 1.91438 12.4472C1.29937 13.9742 0.984375 15.5882 0.984375 17.2412C0.984375 18.8942 1.29937 20.5082 1.91738 22.0322C2.55938 23.6132 3.49838 25.0292 4.71338 26.2442C5.92838 27.4592 7.34737 28.4012 8.92537 29.0402C10.4524 29.6582 12.0634 29.9732 13.7164 29.9732C15.3694 29.9732 16.9834 29.6582 18.5074 29.0402C20.0884 28.3982 21.5044 27.4592 22.7194 26.2442C25.0624 23.9012 26.3854 20.7872 26.4484 17.4722C26.4784 15.8612 26.2084 14.2832 25.6474 12.7772C25.1854 11.5382 24.5374 10.3892 23.7184 9.35416L23.7214 9.35716Z" fill="#9598A0"/>
<path d="M26.5114 0.300781L22.6054 4.20678L22.6534 7.39878L14.8474 15.2048C13.9624 14.7128 12.8224 14.8448 12.0724 15.5948C11.1634 16.5038 11.1634 17.9798 12.0724 18.8888C12.9814 19.7978 14.4574 19.7978 15.3664 18.8888C16.1194 18.1358 16.2484 16.9988 15.7564 16.1138L23.5624 8.30778L26.7544 8.35578L30.6604 4.44978L26.5744 4.38978L26.5144 0.303781L26.5114 0.300781Z" fill="#9598A0"/>
</g>
<defs>
<clipPath id="clip0_53_14052">
<rect width="30" height="30" fill="white" transform="translate(0.833984)"/>
</clipPath>
</defs>
</svg>
