<svg width="29" height="26" viewBox="0 0 29 26" fill="none" xmlns="http://www.w3.org/2000/svg">
<path d="M10.5858 9.63249L9.59817 12.6137H11.5536L10.6057 9.63249H10.5858Z" fill="#222222"/>
<path d="M14.4967 0C6.48937 0 0 4.97722 0 11.1199C0 15.0733 2.6912 18.531 6.728 20.5077L5.36251 25.4591C5.30949 25.6072 5.34926 25.7746 5.46857 25.8841C5.54811 25.9614 5.64754 26 5.76686 26C5.85303 26 5.9392 25.9614 6.01874 25.9034L11.8917 22.053C12.7401 22.1689 13.6151 22.2397 14.5033 22.2397C22.5106 22.2397 29 17.2625 29 11.1199C29 4.97722 22.4974 0 14.4967 0ZM6.75451 14.6419C6.75451 14.893 6.67497 15.0991 6.52251 15.2536C6.37669 15.4081 6.16457 15.4854 5.91269 15.4854C5.70057 15.4854 5.5216 15.4274 5.37577 15.318C5.22994 15.2021 5.13714 15.0475 5.09737 14.8608C5.08411 14.79 5.07749 14.7192 5.08411 14.6419V9.36206H3.51314C3.2944 9.36206 3.1088 9.31055 2.94971 9.21397C2.79063 9.12382 2.69783 8.98217 2.65806 8.80188C2.65143 8.75681 2.63817 8.69886 2.63154 8.64735C2.63154 8.42199 2.71109 8.24814 2.8768 8.1258C3.04251 8.00347 3.248 7.93908 3.49989 7.93908H8.32549C8.54423 7.93908 8.72983 7.99059 8.88229 8.08073C9.04137 8.17732 9.13417 8.31253 9.17394 8.49282C9.18057 8.54433 9.1872 8.5894 9.1872 8.64735C9.1872 8.87915 9.10766 9.04656 8.94857 9.17533C8.78949 9.29767 8.584 9.36206 8.33211 9.36206H6.75451V14.6419ZM13.6482 15.2665C13.4958 15.4146 13.3102 15.479 13.0914 15.479C12.707 15.479 12.4551 15.3244 12.3424 15.0154L11.9115 13.7791H9.22697L8.79611 15.0154C8.69006 15.3244 8.4448 15.479 8.04709 15.479C7.85486 15.479 7.68914 15.4339 7.55657 15.3309C7.424 15.2343 7.33783 15.0926 7.29806 14.9123C7.2848 14.8608 7.2848 14.8029 7.2848 14.7385C7.2848 14.6548 7.29143 14.5582 7.3312 14.4423C7.36434 14.3264 7.40411 14.2105 7.44389 14.0946L9.6048 8.31897C9.67109 8.13224 9.77714 8.00347 9.90971 7.9262C10.0423 7.84894 10.2146 7.8103 10.4201 7.8103H10.8245C11.0432 7.8103 11.2222 7.85537 11.368 7.93908C11.5138 8.02278 11.6331 8.19019 11.7127 8.42843L13.7278 14.101C13.7941 14.2749 13.8405 14.4294 13.867 14.5518C13.8802 14.6355 13.8935 14.6999 13.9001 14.7449C13.9001 14.951 13.8206 15.1248 13.6615 15.2665H13.6482ZM19.2229 15.1634C19.0571 15.2858 18.8517 15.3502 18.5998 15.3502H15.1198C14.8613 15.3502 14.6491 15.2987 14.4901 15.1956C14.331 15.0991 14.2249 14.9252 14.1719 14.6934C14.152 14.5968 14.1387 14.4874 14.1387 14.365V8.64735C14.1387 8.39624 14.2183 8.19019 14.3707 8.03566C14.5166 7.88113 14.7221 7.80386 14.9806 7.80386C15.1927 7.80386 15.3717 7.86181 15.5175 7.97127C15.6633 8.08717 15.7561 8.23527 15.7959 8.42843C15.8091 8.49926 15.8158 8.57008 15.8091 8.64091V13.9208H18.5931C18.8185 13.9208 19.0041 13.9658 19.1566 14.0624C19.309 14.159 19.4018 14.3006 19.4416 14.4745C19.4549 14.5196 19.4615 14.5775 19.4681 14.629C19.4681 14.8544 19.3886 15.0282 19.2229 15.1506V15.1634ZM25.4935 15.2922C25.3278 15.4146 25.1223 15.479 24.8837 15.479C24.7113 15.479 24.5787 15.4532 24.4661 15.3888C24.36 15.3244 24.2473 15.2085 24.1413 15.0347L22.219 12.0277L21.3042 12.9549V14.6355C21.3042 14.8866 21.2379 15.0926 21.0855 15.2472C20.933 15.4017 20.7275 15.479 20.4757 15.479C20.2635 15.479 20.0846 15.421 19.9387 15.3115C19.7929 15.1956 19.7001 15.0411 19.6603 14.8544C19.6471 14.7836 19.6405 14.7127 19.6471 14.6355V8.64091C19.6471 8.3898 19.72 8.18375 19.8725 8.02922C20.0249 7.87469 20.2238 7.79742 20.4823 7.79742C20.6944 7.79742 20.8734 7.85537 21.0126 7.96483C21.1584 8.08073 21.2512 8.22883 21.291 8.42199C21.3042 8.49282 21.3109 8.56365 21.3042 8.63447V11.0877L23.9291 8.158C24.0485 8.03566 24.1545 7.93908 24.2473 7.88113C24.3467 7.82318 24.4594 7.79099 24.592 7.79099C24.7776 7.79099 24.9433 7.8425 25.0891 7.93908C25.2416 8.03566 25.3278 8.16444 25.3675 8.33185C25.3675 8.33185 25.3675 8.36404 25.3808 8.39624C25.3808 8.42199 25.3808 8.44775 25.3808 8.46706C25.3808 8.58296 25.3543 8.68598 25.3013 8.77613C25.2482 8.86627 25.1819 8.95641 25.1024 9.04656L23.3856 10.8687L25.4139 13.9916L25.4736 14.0882C25.6128 14.3006 25.6923 14.4552 25.7122 14.5582C25.7122 14.5646 25.7122 14.584 25.7255 14.6097C25.7255 14.6355 25.7255 14.6548 25.7255 14.6612C25.7255 14.951 25.6393 15.157 25.4736 15.2858L25.4935 15.2922Z" fill="#222222"/>
</svg>
