<svg width="30" height="30" viewBox="0 0 30 30" fill="none" xmlns="http://www.w3.org/2000/svg">
<path fill-rule="evenodd" clip-rule="evenodd" d="M15 30C23.2843 30 30 23.2843 30 15C30 6.71573 23.2843 0 15 0C6.71573 0 0 6.71573 0 15C0 23.2843 6.71573 30 15 30ZM5 7.28491C5 8.48864 5.46483 10.2708 6.68417 12.4814C8.077 15.0066 10.1678 17.4087 11.4021 18.6125C12.5937 19.8162 14.8697 21.8723 17.2573 23.1854C20.1752 24.7901 21.403 25 22.5521 25C23.7012 25 24.2119 24.7325 24.4247 24.4204C24.595 24.1529 25.9995 21.9238 25.9995 21.9238C25.9995 21.9238 26.042 21.1659 25.3611 20.6755C24.6375 20.1851 22.3028 18.7302 21.786 18.4464C21.7138 18.4067 21.6393 18.3599 21.5616 18.311C21.0828 18.0097 20.4793 17.6299 19.5141 18.3709C19.2936 18.5789 18.2564 19.3992 17.4816 19.2819C16.7122 19.1655 14.2292 16.9889 13.6379 16.3695C13.6002 16.33 13.555 16.283 13.5033 16.2292C12.7371 15.4318 10.5501 13.1558 10.5501 12.3205C10.5501 11.5991 10.7508 11.3441 11.1094 10.8885C11.194 10.7809 11.2874 10.6622 11.3891 10.5236C11.4245 10.4753 11.469 10.423 11.5178 10.3657C11.8674 9.95514 12.4365 9.28696 11.4498 7.97077C11.1446 7.51974 10.7809 6.97164 10.4212 6.42964C9.9364 5.69919 9.459 4.97983 9.1422 4.52411C8.59034 3.73024 7.71033 4.03262 7.47975 4.18822C7.42448 4.22552 7.30467 4.30184 7.15031 4.40016C6.66085 4.71194 5.824 5.245 5.59584 5.45704C5.29574 5.73595 5 6.08119 5 7.28491Z" fill="#94A3B8"/>
</svg>
