<svg width="19" height="18" viewBox="0 0 19 18" fill="none" xmlns="http://www.w3.org/2000/svg">
<path d="M12.8596 16.5101C12.9218 17.0415 12.9543 17.5436 12.9543 18H11.227C11.227 16.8945 10.1514 15.6629 9.38622 14.2387C9.52113 14.1515 9.64683 14.0496 9.77094 13.946C10.0039 14.3242 10.2856 14.6917 10.6163 15.0363C11.2793 15.7271 12.0656 16.2345 12.8595 16.5101H12.8596ZM15.1136 13.9499C14.6046 13.9499 14.1061 13.8127 13.6621 13.5555C13.1789 13.815 12.6454 13.9499 12.0908 13.9499C11.5362 13.9499 11.0428 13.8158 10.5763 13.5778C10.7609 13.8622 10.9771 14.1392 11.2272 14.3999C12.6581 15.8911 14.5914 16.294 15.5453 15.2999C15.8069 15.0273 15.9641 14.6764 16.0303 14.2823C15.7719 14.2058 15.5233 14.0925 15.2892 13.9438C15.2297 13.9479 15.1714 13.9499 15.1136 13.9499ZM18.7005 10.1249C18.8859 10.4571 19 10.838 19 11.2498C19 12.4925 18.0334 13.4998 16.8409 13.4998C16.3356 13.4998 15.8768 13.3114 15.5089 13.0083C15.3804 13.0332 15.249 13.0499 15.1136 13.0499C14.8921 13.0499 14.6828 13.0057 14.4829 12.9399C15.1319 12.2852 15.5455 11.3634 15.5455 10.35C15.5455 10.1012 15.3521 9.90003 15.1137 9.90003C14.8754 9.90003 14.682 10.1012 14.682 10.35C14.682 11.2126 14.2914 11.9808 13.6853 12.4754C13.2455 12.8343 12.6929 13.0501 12.0912 13.0501C11.2917 13.0501 10.5772 12.6722 10.1019 12.079C9.72613 11.6105 9.50032 11.0071 9.50032 10.35C9.50032 10.1012 9.30693 9.90003 9.06856 9.90003C8.8302 9.90003 8.63681 10.1012 8.63681 10.35C8.63681 11.3258 9.01406 12.2128 9.62125 12.8619C9.06761 13.5273 8.25305 13.9499 7.34139 13.9499C5.69892 13.9499 4.31864 12.5541 4.31864 10.7999C4.31864 9.94209 4.63344 9.12205 5.18231 8.5499C5.35091 8.3742 5.35091 8.08937 5.18231 7.9135C5.01371 7.73764 4.74039 7.7378 4.57163 7.9135C3.86194 8.65307 3.45498 9.70512 3.45498 10.7999C3.45498 10.9344 3.46197 11.0721 3.47437 11.2033C3.32738 11.2306 3.17768 11.2498 3.02307 11.2498C1.70604 11.2498 0.621172 10.2249 0.456384 8.89932C0.941212 9.24459 1.52933 9.44993 2.15956 9.44993C2.39808 9.44993 2.59131 9.24873 2.59131 9C2.59131 8.75127 2.39792 8.55007 2.15956 8.55007C1.51265 8.55007 0.937558 8.24735 0.541718 7.77589C0.208487 7.37994 0 6.86758 0 6.2999C0 5.54626 0.358814 4.88303 0.904664 4.47483C1.25807 4.20855 1.69046 4.0499 2.15908 4.0499C2.3976 4.0499 2.59084 3.8487 2.59084 3.59997C2.59084 3.35124 2.39745 3.15003 2.15908 3.15003C1.73798 3.15003 1.32736 3.24575 0.962506 3.4087C1.20516 2.56928 1.90118 1.93768 2.75944 1.82772C3.08647 1.01844 3.85431 0.450099 4.74992 0.450099C4.78679 0.450099 4.82191 0.45573 4.85814 0.457717C4.52014 0.966273 4.31801 1.58611 4.31801 2.25017C4.31801 2.4989 4.5114 2.7001 4.74976 2.7001C4.98812 2.7001 5.18151 2.4989 5.18151 2.25017C5.18151 1.6603 5.40446 1.12608 5.76232 0.724332C6.15689 0.281354 6.71545 0 7.34092 0C7.82924 0 8.27466 0.17537 8.63633 0.460201C9.15851 0.871219 9.5 1.51722 9.5 2.25C9.5 2.49873 9.69339 2.69993 9.93175 2.69993C10.1701 2.69993 10.3635 2.49873 10.3635 2.25C10.3635 1.39716 10.0315 0.619342 9.50143 0.0515014C9.64079 0.0210311 9.78333 0 9.93175 0C10.5572 0 11.1158 0.281354 11.51 0.724167C11.8132 0.554924 12.1546 0.449934 12.5226 0.449934C13.0632 0.449934 13.5557 0.659086 13.9342 1.00138C12.63 1.35063 11.6589 2.58368 11.6589 4.0499C11.6589 4.29863 11.8523 4.49983 12.0907 4.49983C12.329 4.49983 12.5224 4.29863 12.5224 4.0499C12.5224 2.87149 13.3964 1.90158 14.5043 1.80735C14.549 1.80222 14.6224 1.7999 14.6815 1.7999C15.874 1.7999 16.8406 2.80724 16.8406 4.0499C16.8406 4.11167 16.8279 4.16946 16.8231 4.23007C17.5948 4.57319 18.136 5.37039 18.136 6.2999C18.136 6.58291 18.0802 6.85118 17.9887 7.10074C17.6779 7.94596 16.8961 8.5499 15.9769 8.5499C15.7384 8.5499 15.5452 8.7511 15.5452 8.99983C15.5452 9.24856 15.7386 9.44977 15.9769 9.44977C17.1298 9.44977 18.1347 8.76816 18.6445 7.77655C18.8667 8.12845 18.9997 8.54642 18.9997 8.99983C18.9997 9.41185 18.8856 9.79273 18.7001 10.1248L18.7005 10.1249ZM7.77267 2.69993C7.77267 2.4512 7.57928 2.25 7.34092 2.25C7.10255 2.25 6.90916 2.4512 6.90916 2.69993C6.90916 4.43658 4.97207 5.84997 2.591 5.84997C2.35247 5.84997 2.15924 6.05117 2.15924 6.2999C2.15924 6.54863 2.35263 6.74983 2.591 6.74983C5.44816 6.74983 7.77283 4.93321 7.77283 2.69977L7.77267 2.69993ZM10.7954 6.2999C10.7954 6.05117 10.602 5.84997 10.3637 5.84997C10.1253 5.84997 9.93191 6.05117 9.93191 6.2999C9.93191 7.04427 9.35079 7.64987 8.63649 7.64987C7.44611 7.64987 6.47741 8.65936 6.47741 9.89987C6.47741 10.1486 6.6708 10.3498 6.90916 10.3498C7.14753 10.3498 7.34092 10.1486 7.34092 9.89987C7.34092 9.1555 7.92204 8.5499 8.63633 8.5499C9.82671 8.5499 10.7954 7.54041 10.7954 6.2999ZM15.5453 4.94993C15.5453 4.7012 15.3519 4.5 15.1136 4.5C13.1765 4.5 11.6591 7.06944 11.6591 10.35C11.6591 10.5987 11.8525 10.7999 12.0908 10.7999C12.3292 10.7999 12.5226 10.5987 12.5226 10.35C12.5226 7.66676 13.709 5.40003 15.1134 5.40003C15.3519 5.40003 15.5452 5.19883 15.5452 4.9501L15.5453 4.94993Z" fill="#5B637A"/>
</svg>
