<svg width="13" height="9" viewBox="0 0 13 9" fill="none" xmlns="http://www.w3.org/2000/svg">
<path d="M0.886364 9.00018H2.95455V4.36381L0 2.31836V8.182C0 8.63472 0.397386 9.00018 0.886364 9.00018Z" fill="#9FADC0"/>
<path d="M10.0459 9.00018H12.1141C12.6045 9.00018 13.0004 8.63336 13.0004 8.182V2.31836L10.0459 4.36381" fill="#ADB8C7"/>
<path d="M10.0459 0.818061V4.36352L13.0004 2.31806V1.22715C13.0004 0.215334 11.7492 -0.361484 10.8732 0.245334" fill="#9FA9B8"/>
<path d="M2.9541 4.36381V0.818359L6.49956 3.2729L10.045 0.818359V4.36381L6.49956 6.81836" fill="#B5BDC8"/>
<path d="M0 1.22715V2.31806L2.95455 4.36352V0.818061L2.12727 0.245334C1.24977 -0.361484 0 0.215334 0 1.22715Z" fill="#98A2B0"/>
</svg>
