<svg width="18" height="18" viewBox="0 0 18 18" fill="none" xmlns="http://www.w3.org/2000/svg">
<g clip-path="url(#clip0_444_206933)">
<path d="M8.97793 18C4.02708 18 0 13.962 0 9C0 4.03798 4.02708 0 8.97793 0C13.9288 0 17.9559 4.03698 17.9559 9C17.9559 13.963 13.9288 18 8.97793 18ZM8.97793 1.70931C4.9679 1.70931 1.70512 4.98011 1.70512 9C1.70512 13.0199 4.9679 16.2907 8.97793 16.2907C12.988 16.2907 16.2508 13.0199 16.2508 9C16.2508 4.98011 12.988 1.70931 8.97793 1.70931Z" fill="#5B637A"/>
<path d="M7.17431 17.773C6.79517 17.773 6.44913 17.5176 6.34983 17.1325C3.58053 6.41615 6.29968 0.919228 6.41704 0.690985C6.63168 0.270697 7.14622 0.105799 7.56448 0.32097C7.98273 0.536142 8.14823 1.04893 7.93559 1.46922C7.89948 1.54262 5.41703 6.70674 8.00079 16.7042C8.11914 17.1607 7.84532 17.6272 7.38895 17.7458C7.31774 17.7649 7.24552 17.773 7.17431 17.773Z" fill="#5B637A"/>
<path d="M10.7814 17.7727C10.7102 17.7727 10.6389 17.7637 10.5667 17.7456C10.1114 17.6269 9.83754 17.1604 9.95489 16.7039C12.5447 6.68433 10.0452 1.51921 10.0201 1.46793C9.80946 1.04765 9.97696 0.533848 10.3952 0.320687C10.8145 0.107527 11.324 0.272425 11.5386 0.690702C11.656 0.918944 14.3752 6.41587 11.6058 17.1322C11.5065 17.5173 11.1605 17.7727 10.7814 17.7727Z" fill="#5B637A"/>
<path d="M17.1472 9.90267H0.898456C0.428045 9.90267 0.0458984 9.51958 0.0458984 9.04801C0.0458984 8.57645 0.428045 8.19336 0.898456 8.19336H17.1472C17.6176 8.19336 17.9998 8.57645 17.9998 9.04801C17.9998 9.51958 17.6176 9.90267 17.1472 9.90267Z" fill="#5B637A"/>
<path d="M8.82939 6.40573C4.72207 6.40573 2.04804 5.36205 1.88556 5.2967C1.44825 5.12174 1.23561 4.62403 1.41013 4.18565C1.58465 3.74827 2.08014 3.53511 2.51645 3.70905C2.56961 3.73017 7.97182 5.81653 15.1132 3.82569C15.5666 3.699 16.037 3.96545 16.1634 4.41992C16.2898 4.8744 16.024 5.34596 15.5706 5.47265C13.0761 6.16744 10.7893 6.40573 8.82939 6.40573Z" fill="#5B637A"/>
<path d="M2.20369 14.2764C1.85866 14.2764 1.53368 14.0653 1.4053 13.7224C1.2398 13.281 1.46247 12.7893 1.90179 12.6224C2.14953 12.5289 8.05926 10.353 15.5718 12.4525C16.0252 12.5792 16.291 13.0507 16.1636 13.5052C16.0372 13.9597 15.5668 14.2251 15.1134 14.0984C8.16257 12.1559 2.55775 14.201 2.50159 14.2221C2.40329 14.2593 2.30199 14.2764 2.20369 14.2764Z" fill="#5B637A"/>
</g>
<defs>
<clipPath id="clip0_444_206933">
<rect width="18" height="18" fill="white"/>
</clipPath>
</defs>
</svg>
