<svg width="17" height="21" viewBox="0 0 17 21" fill="none" xmlns="http://www.w3.org/2000/svg">
<path d="M8.49446 8.958C6.3705 8.958 4.64844 7.38957 4.64844 5.45509V4.50291C4.64844 2.56843 6.3705 1 8.49446 1C10.6184 1 12.3405 2.56843 12.3405 4.50291V5.45509C12.3405 7.38957 10.6184 8.958 8.49446 8.958Z" stroke="#5B637A" stroke-width="1.6" stroke-linecap="round" stroke-linejoin="round"/>
<path d="M8.49364 8.95703H8.50636C12.6424 8.95703 16 12.0151 16 15.7821V16.5837C16 18.1035 14.6468 19.336 12.9781 19.336H4.02188C2.35323 19.336 1 18.1035 1 16.5837V15.7821C1 12.0151 4.35764 8.95703 8.49364 8.95703Z" stroke="#5B637A" stroke-width="1.6" stroke-linecap="round" stroke-linejoin="round"/>
<path d="M8.5 12L8.5 14" stroke="#5B637A" stroke-width="1.6" stroke-linecap="round" stroke-linejoin="round"/>
</svg>
