<svg width="20" height="20" viewBox="0 0 20 20" fill="none" xmlns="http://www.w3.org/2000/svg">
<path d="M12.7059 16.5078C12.7059 17.9836 11.5111 19.1784 10.0353 19.1784C8.55947 19.1784 7.36475 17.9836 7.36475 16.5078" stroke="#9598A0" stroke-width="1.2" stroke-linecap="round" stroke-linejoin="round"/>
<path d="M8.82861 2.81551V2.21815C8.82861 1.55051 9.37912 1 10.0468 1C10.7144 1 11.2649 1.55051 11.2649 2.21815V2.81551" stroke="#9598A0" stroke-width="1.2" stroke-linecap="round" stroke-linejoin="round"/>
<path d="M15.7394 12.5343C15.7394 14.3732 16.6296 15.0057 18 16.0482H2.09375C3.46417 15.0057 4.35436 14.3849 4.35436 12.5343V8.45814C4.35436 5.33077 6.9195 2.76562 10.0469 2.76562C13.1742 2.76562 15.7394 5.33077 15.7394 8.45814V12.5343Z" stroke="#9598A0" stroke-width="1.2" stroke-linecap="round" stroke-linejoin="round"/>
</svg>
