<svg width="1764" height="1351" viewBox="0 0 1764 1351" fill="none" xmlns="http://www.w3.org/2000/svg">
<g clip-path="url(#clip0_408_119)">
<path d="M717.978 92.1169L720.735 93.6239C720.925 93.7289 720.995 93.9689 720.889 94.1589C720.853 94.2239 720.799 94.2779 720.735 94.3139L717.978 95.8219C717.913 95.8589 717.859 95.9129 717.823 95.9779L716.316 98.7339C716.212 98.9239 715.973 98.9949 715.783 98.8909C715.717 98.8549 715.662 98.8009 715.626 98.7339L714.118 95.9789C714.082 95.9119 714.027 95.8559 713.961 95.8189L711.206 94.3139C711.016 94.2089 710.946 93.9689 711.051 93.7789C711.087 93.7139 711.141 93.6599 711.206 93.6239L713.961 92.1159C714.027 92.0799 714.082 92.0249 714.118 91.9589L715.625 89.2049C715.729 89.0149 715.968 88.9439 716.158 89.0479C716.224 89.0839 716.279 89.1379 716.315 89.2049L717.823 91.9589C717.858 92.0259 717.912 92.0789 717.978 92.1169Z" fill="#2194DA"/>
<path d="M280.057 212.719L281.417 213.464C281.608 213.569 281.678 213.81 281.572 214.001C281.536 214.066 281.482 214.121 281.417 214.157L280.057 214.9C279.991 214.937 279.936 214.991 279.9 215.057L279.158 216.417C279.054 216.608 278.813 216.679 278.622 216.575C278.556 216.538 278.501 216.484 278.464 216.417L277.721 215.057C277.684 214.991 277.63 214.936 277.564 214.9L276.204 214.157C276.013 214.052 275.944 213.811 276.05 213.62C276.086 213.555 276.139 213.5 276.204 213.464L277.564 212.719C277.63 212.683 277.685 212.63 277.721 212.564L278.464 211.204C278.569 211.013 278.81 210.944 279.001 211.05C279.066 211.086 279.122 211.139 279.158 211.204L279.901 212.564C279.938 212.63 279.994 212.685 280.059 212.721" fill="#8AFFF9"/>
<path d="M961.978 138.117L964.735 139.624C964.925 139.729 964.995 139.969 964.889 140.159C964.853 140.224 964.799 140.278 964.735 140.314L961.978 141.821C961.913 141.859 961.858 141.914 961.823 141.981L960.316 144.735C960.212 144.926 959.973 144.996 959.783 144.892C959.717 144.856 959.662 144.802 959.626 144.735L958.118 141.979C958.082 141.913 958.027 141.858 957.961 141.822L955.206 140.317C955.016 140.212 954.946 139.972 955.051 139.782C955.087 139.717 955.141 139.663 955.206 139.627L957.961 138.119C958.027 138.083 958.082 138.029 958.118 137.963L959.625 135.208C959.729 135.018 959.968 134.947 960.158 135.051C960.224 135.087 960.279 135.141 960.315 135.208L961.823 137.963C961.859 138.029 961.913 138.083 961.978 138.119" fill="#2194DA"/>
<path d="M1144.98 177.117L1147.73 178.624C1147.92 178.729 1147.99 178.969 1147.89 179.159C1147.85 179.224 1147.8 179.278 1147.73 179.314L1144.98 180.822C1144.91 180.859 1144.86 180.912 1144.82 180.978L1143.32 183.734C1143.21 183.925 1142.97 183.997 1142.78 183.894C1142.72 183.858 1142.66 183.802 1142.62 183.734L1141.12 180.978C1141.08 180.912 1141.03 180.858 1140.96 180.822L1138.21 179.315C1138.02 179.211 1137.94 178.972 1138.05 178.782C1138.08 178.716 1138.14 178.661 1138.21 178.625L1140.96 177.117C1141.03 177.081 1141.08 177.027 1141.12 176.961L1142.62 174.206C1142.73 174.016 1142.97 173.946 1143.16 174.051C1143.22 174.087 1143.28 174.141 1143.31 174.206L1144.82 176.962C1144.86 177.028 1144.91 177.082 1144.98 177.119" fill="#2FD5AA"/>
<path d="M1083.06 100.72L1084.42 101.465C1084.61 101.57 1084.68 101.811 1084.57 102.002C1084.54 102.067 1084.48 102.122 1084.42 102.158L1083.06 102.901C1082.99 102.938 1082.94 102.992 1082.9 103.058L1082.16 104.418C1082.06 104.609 1081.82 104.68 1081.63 104.576C1081.56 104.539 1081.5 104.485 1081.47 104.418L1080.72 103.058C1080.69 102.992 1080.63 102.937 1080.57 102.901L1079.21 102.158C1079.02 102.053 1078.95 101.812 1079.05 101.621C1079.09 101.556 1079.14 101.501 1079.21 101.465L1080.57 100.721C1080.63 100.685 1080.69 100.632 1080.72 100.566L1081.47 99.206C1081.57 99.015 1081.81 98.945 1082 99.051C1082.07 99.087 1082.12 99.141 1082.16 99.206L1082.9 100.566C1082.94 100.632 1083 100.686 1083.06 100.722" fill="#36B0DC"/>
<path d="M1084.81 348.909C1084.81 350.514 1083.51 351.816 1081.9 351.815C1080.3 351.814 1079 350.512 1079 348.906C1079 347.301 1080.3 345.999 1081.91 346C1083.51 346.001 1084.81 347.303 1084.81 348.909ZM-7.02109 414.118L-4.26509 415.625C-4.07409 415.729 -4.00309 415.969 -4.10709 416.159C-4.14309 416.225 -4.19809 416.28 -4.26509 416.317L-7.02109 417.824C-7.08609 417.86 -7.14109 417.914 -7.17709 417.979L-8.68409 420.735C-8.78809 420.925 -9.02709 420.996 -9.21709 420.891C-9.28309 420.855 -9.33809 420.8 -9.37409 420.735L-10.8821 417.979C-10.9191 417.914 -10.9731 417.86 -11.0391 417.824L-13.7941 416.317C-13.9851 416.213 -14.0561 415.973 -13.9521 415.782C-13.9151 415.716 -13.8611 415.661 -13.7941 415.625L-11.0391 414.118C-10.9731 414.082 -10.9181 414.028 -10.8821 413.963L-9.37509 411.208C-9.27109 411.018 -9.03209 410.947 -8.84209 411.051C-8.77609 411.087 -8.72109 411.142 -8.68509 411.208L-7.17709 413.964C-7.14109 414.031 -7.08709 414.084 -7.02109 414.12" fill="#3E27E8"/>
<path d="M206.057 452.72L207.417 453.465C207.608 453.57 207.678 453.811 207.572 454.002C207.536 454.067 207.482 454.121 207.417 454.157L206.057 454.9C205.991 454.936 205.937 454.991 205.901 455.056L205.158 456.416C205.054 456.607 204.814 456.678 204.623 456.573C204.557 456.537 204.502 456.482 204.465 456.416L203.722 455.056C203.685 454.99 203.631 454.936 203.565 454.9L202.205 454.157C202.014 454.052 201.944 453.811 202.05 453.62C202.086 453.555 202.14 453.501 202.205 453.465L203.565 452.721C203.631 452.686 203.686 452.632 203.722 452.567L204.465 451.207C204.57 451.016 204.811 450.946 205.002 451.052C205.067 451.088 205.122 451.142 205.158 451.207L205.902 452.567C205.939 452.632 205.994 452.686 206.059 452.722" fill="#36B0DC"/>
<path d="M1692.98 616.117L1695.73 617.625C1695.92 617.73 1695.99 617.971 1695.89 618.161C1695.85 618.227 1695.8 618.281 1695.73 618.317L1692.98 619.823C1692.91 619.859 1692.86 619.914 1692.82 619.979L1691.32 622.734C1691.21 622.924 1690.97 622.997 1690.78 622.893C1690.72 622.857 1690.66 622.801 1690.62 622.734L1689.12 619.979C1689.08 619.912 1689.03 619.856 1688.96 619.821L1686.21 618.315C1686.01 618.211 1685.94 617.971 1686.05 617.78C1686.08 617.714 1686.14 617.659 1686.21 617.623L1688.96 616.115C1689.03 616.08 1689.08 616.025 1689.12 615.96L1690.62 613.205C1690.73 613.015 1690.97 612.944 1691.16 613.048C1691.22 613.084 1691.28 613.139 1691.31 613.205L1692.82 615.96C1692.86 616.026 1692.91 616.08 1692.98 616.117ZM1407.88 189.646L1409.18 190.356C1409.44 190.5 1409.44 190.876 1409.18 191.016L1407.88 191.729C1407.81 191.763 1407.76 191.814 1407.73 191.877L1407.02 193.177C1406.92 193.36 1406.69 193.426 1406.5 193.325C1406.44 193.291 1406.39 193.24 1406.36 193.177L1405.65 191.877C1405.61 191.814 1405.56 191.763 1405.5 191.729L1404.2 191.017C1404.01 190.916 1403.95 190.687 1404.05 190.505C1404.08 190.442 1404.13 190.391 1404.2 190.357L1405.5 189.647C1405.56 189.612 1405.61 189.56 1405.65 189.497L1406.35 188.197C1406.45 188.014 1406.68 187.946 1406.86 188.045C1406.93 188.08 1406.98 188.133 1407.02 188.197L1407.73 189.497C1407.76 189.56 1407.81 189.612 1407.88 189.646Z" fill="#3E27E8"/>
<path d="M1634.06 382.72L1635.42 383.465C1635.61 383.57 1635.68 383.811 1635.57 384.002C1635.54 384.067 1635.48 384.121 1635.42 384.157L1634.06 384.9C1633.99 384.936 1633.94 384.991 1633.9 385.056L1633.16 386.416C1633.06 386.607 1632.82 386.678 1632.63 386.573C1632.56 386.537 1632.5 386.482 1632.47 386.416L1631.72 385.056C1631.69 384.99 1631.63 384.936 1631.57 384.9L1630.21 384.157C1630.02 384.052 1629.95 383.811 1630.05 383.62C1630.09 383.555 1630.14 383.501 1630.21 383.465L1631.57 382.721C1631.63 382.686 1631.69 382.632 1631.72 382.567L1632.47 381.207C1632.57 381.016 1632.81 380.946 1633 381.052C1633.07 381.088 1633.12 381.142 1633.16 381.207L1633.9 382.567C1633.94 382.632 1634 382.686 1634.06 382.722" fill="#36B0DC"/>
<path d="M411 385.888L414.554 385L413.667 388.554L411 385.888Z" stroke="#2FD5AA" stroke-width="1.097" stroke-linecap="round" stroke-linejoin="round"/>
<path d="M733.226 462.018L735.245 463.122L733.226 464.225L732.122 466.244L731.018 464.225L729 463.122L731.018 462.018L732.122 460L733.226 462.018Z" fill="#2CD2AA"/>
<path d="M530.979 40.117L533.734 41.624C533.924 41.729 533.994 41.969 533.888 42.159C533.852 42.224 533.798 42.278 533.734 42.314L530.979 43.822C530.912 43.858 530.857 43.912 530.821 43.978L529.315 46.7341C529.211 46.9251 528.973 46.9971 528.782 46.8941C528.715 46.8581 528.659 46.8021 528.623 46.7341L527.116 43.978C527.079 43.912 527.024 43.858 526.959 43.822L524.204 42.315C524.014 42.211 523.943 41.9721 524.047 41.7821C524.083 41.7161 524.138 41.661 524.204 41.625L526.959 40.117C527.024 40.08 527.079 40.027 527.116 39.961L528.624 37.2061C528.729 37.0161 528.969 36.946 529.159 37.051C529.224 37.087 529.278 37.1401 529.313 37.2061L530.821 39.9621C530.858 40.0281 530.911 40.082 530.977 40.119" fill="#2FD5AA"/>
<path d="M593.978 161.117L596.735 162.624C596.925 162.729 596.995 162.969 596.889 163.159C596.853 163.224 596.799 163.278 596.735 163.314L593.978 164.821C593.913 164.859 593.858 164.914 593.823 164.981L592.316 167.735C592.212 167.926 591.973 167.996 591.783 167.892C591.717 167.856 591.662 167.802 591.626 167.735L590.118 164.979C590.082 164.913 590.027 164.858 589.961 164.822L587.206 163.317C587.016 163.212 586.946 162.972 587.051 162.782C587.087 162.717 587.141 162.663 587.206 162.627L589.961 161.119C590.027 161.083 590.082 161.029 590.118 160.963L591.625 158.208C591.729 158.018 591.968 157.947 592.158 158.051C592.224 158.087 592.279 158.141 592.315 158.208L593.823 160.963C593.859 161.029 593.913 161.083 593.978 161.119" fill="#2FD5AA"/>
<path d="M177.98 127.117L180.734 128.624C180.924 128.729 180.994 128.969 180.889 129.159C180.853 129.224 180.8 129.278 180.734 129.314L177.978 130.822C177.912 130.859 177.858 130.912 177.822 130.978L176.315 133.734C176.211 133.924 175.972 133.995 175.782 133.891C175.716 133.855 175.661 133.801 175.625 133.734L174.118 130.978C174.08 130.912 174.025 130.858 173.958 130.822L171.206 129.315C171.016 129.211 170.945 128.972 171.049 128.782C171.085 128.716 171.139 128.661 171.206 128.625L173.96 127.117C174.026 127.08 174.08 127.027 174.117 126.961L175.625 124.206C175.73 124.016 175.97 123.946 176.16 124.051C176.225 124.087 176.279 124.14 176.315 124.206L177.822 126.962C177.858 127.028 177.912 127.082 177.978 127.119" fill="#2FD5AA"/>
<path d="M299.813 56.907C299.812 58.512 298.51 59.814 296.904 59.813C295.299 59.812 293.997 58.51 293.998 56.904C293.999 55.299 295.301 53.997 296.907 53.998C298.513 53.999 299.814 55.301 299.813 56.907Z" fill="#3E27E8"/>
<path d="M1690.98 261.116L1693.73 262.623C1693.92 262.728 1693.99 262.968 1693.89 263.16C1693.85 263.225 1693.8 263.279 1693.73 263.315L1690.98 264.822C1690.91 264.858 1690.86 264.912 1690.82 264.978L1689.32 267.733C1689.21 267.924 1688.97 267.996 1688.78 267.893C1688.72 267.856 1688.66 267.801 1688.62 267.733L1687.12 264.978C1687.08 264.912 1687.03 264.857 1686.96 264.822L1684.21 263.315C1684.01 263.211 1683.94 262.972 1684.05 262.78C1684.08 262.714 1684.14 262.659 1684.21 262.623L1686.96 261.116C1687.03 261.08 1687.08 261.027 1687.12 260.961L1688.62 258.206C1688.73 258.016 1688.97 257.945 1689.16 258.049C1689.22 258.085 1689.28 258.139 1689.31 258.206L1690.82 260.962C1690.86 261.028 1690.91 261.082 1690.98 261.118" fill="#3E27E8"/>
<path d="M1637.06 223.722L1638.42 224.465C1638.61 224.57 1638.68 224.811 1638.57 225.002C1638.54 225.067 1638.48 225.122 1638.42 225.158L1637.06 225.902C1636.99 225.939 1636.94 225.993 1636.9 226.059L1636.16 227.419C1636.05 227.61 1635.81 227.68 1635.62 227.574C1635.56 227.538 1635.5 227.484 1635.47 227.419L1634.72 226.059C1634.69 225.993 1634.63 225.939 1634.57 225.903L1633.21 225.16C1633.02 225.055 1632.95 224.814 1633.05 224.623C1633.09 224.558 1633.14 224.503 1633.21 224.467L1634.57 223.724C1634.63 223.687 1634.69 223.633 1634.72 223.567L1635.47 222.207C1635.57 222.016 1635.81 221.946 1636 222.052C1636.07 222.088 1636.12 222.142 1636.16 222.207L1636.9 223.567C1636.94 223.633 1636.99 223.688 1637.06 223.724" fill="#8AFFF9"/>
<path d="M1611.88 48.645L1613.18 49.355C1613.44 49.5 1613.44 49.875 1613.18 50.017L1611.88 50.727C1611.81 50.762 1611.76 50.814 1611.73 50.877L1611.02 52.177C1610.92 52.36 1610.69 52.426 1610.51 52.325C1610.44 52.291 1610.39 52.24 1610.36 52.177L1609.65 50.877C1609.61 50.814 1609.56 50.762 1609.5 50.727L1608.2 50.017C1608.01 49.917 1607.95 49.688 1608.05 49.505C1608.08 49.442 1608.13 49.389 1608.2 49.355L1609.5 48.645C1609.56 48.61 1609.61 48.558 1609.65 48.495L1610.36 47.197C1610.45 47.014 1610.68 46.946 1610.87 47.045C1610.93 47.08 1610.98 47.133 1611.02 47.197L1611.73 48.495C1611.76 48.558 1611.81 48.61 1611.88 48.645Z" fill="#2194DA"/>
<path d="M1663.06 116.72L1664.42 117.465C1664.61 117.57 1664.68 117.811 1664.57 118.002C1664.54 118.067 1664.48 118.122 1664.42 118.158L1663.06 118.901C1662.99 118.938 1662.94 118.992 1662.9 119.058L1662.16 120.418C1662.06 120.609 1661.82 120.68 1661.63 120.576C1661.56 120.539 1661.5 120.485 1661.47 120.418L1660.72 119.058C1660.69 118.992 1660.63 118.937 1660.57 118.901L1659.21 118.158C1659.02 118.053 1658.95 117.812 1659.05 117.621C1659.09 117.556 1659.14 117.501 1659.21 117.465L1660.57 116.721C1660.63 116.685 1660.69 116.632 1660.72 116.566L1661.47 115.206C1661.57 115.015 1661.81 114.945 1662 115.051C1662.07 115.087 1662.12 115.141 1662.16 115.206L1662.9 116.566C1662.94 116.632 1663 116.686 1663.06 116.722" fill="#8AFFF9"/>
<path d="M1384.98 483.118L1387.73 484.625C1387.92 484.73 1387.99 484.97 1387.89 485.16C1387.85 485.225 1387.8 485.279 1387.73 485.315L1384.98 486.822C1384.91 486.857 1384.86 486.912 1384.82 486.977L1383.32 489.733C1383.21 489.923 1382.97 489.995 1382.78 489.892C1382.72 489.856 1382.66 489.8 1382.62 489.733L1381.12 486.977C1381.08 486.912 1381.03 486.857 1380.96 486.822L1378.21 485.315C1378.02 485.211 1377.94 484.972 1378.05 484.782C1378.09 484.716 1378.14 484.661 1378.21 484.625L1380.96 483.118C1381.03 483.082 1381.08 483.027 1381.12 482.961L1382.62 480.206C1382.73 480.016 1382.97 479.945 1383.16 480.049C1383.22 480.085 1383.28 480.14 1383.31 480.206L1384.82 482.962C1384.86 483.029 1384.91 483.084 1384.98 483.12" fill="#8AFFF9"/>
<path d="M1273.88 338.646L1275.18 339.356C1275.44 339.5 1275.44 339.876 1275.18 340.015L1273.88 340.727C1273.81 340.762 1273.76 340.814 1273.73 340.877L1273.02 342.175C1272.92 342.358 1272.69 342.424 1272.51 342.323C1272.44 342.288 1272.39 342.237 1272.36 342.175L1271.65 340.875C1271.61 340.812 1271.56 340.761 1271.5 340.727L1270.2 340.015C1270.01 339.914 1269.95 339.685 1270.05 339.503C1270.08 339.44 1270.13 339.39 1270.2 339.356L1271.5 338.646C1271.56 338.61 1271.61 338.558 1271.65 338.496L1272.36 337.196C1272.45 337.013 1272.68 336.945 1272.87 337.043C1272.93 337.078 1272.98 337.131 1273.02 337.196L1273.73 338.496C1273.76 338.559 1273.81 338.611 1273.88 338.646Z" fill="#2194DA"/>
<path d="M1457.05 296.717L1458.41 297.462C1458.6 297.567 1458.67 297.809 1458.57 298C1458.53 298.065 1458.48 298.119 1458.41 298.155L1457.05 298.897C1456.99 298.933 1456.93 298.988 1456.9 299.053L1456.16 300.413C1456.05 300.604 1455.81 300.675 1455.62 300.57C1455.55 300.534 1455.5 300.479 1455.46 300.413L1454.72 299.053C1454.68 298.987 1454.63 298.933 1454.56 298.897L1453.2 298.155C1453.01 298.05 1452.94 297.808 1453.05 297.617C1453.09 297.552 1453.14 297.498 1453.2 297.462L1454.56 296.719C1454.63 296.684 1454.68 296.629 1454.72 296.564L1455.46 295.204C1455.57 295.013 1455.81 294.944 1456 295.05C1456.07 295.086 1456.12 295.139 1456.16 295.204L1456.9 296.564C1456.94 296.629 1456.99 296.683 1457.06 296.719" fill="#8AFFF9"/>
<path d="M344 606.525L345.762 605.983L347.525 606.525L346.982 604.762L347.525 603L345.763 603.543L344 603.001L344.542 604.763L344 606.525Z" stroke="#2CD2AA" stroke-width="1.097" stroke-linecap="round" stroke-linejoin="round"/>
<mask id="mask0_408_119" style="mask-type:luminance" maskUnits="userSpaceOnUse" x="1519" y="692" width="10" height="10">
<path d="M1519 692H1528.94V701.938H1519V692Z" fill="white"/>
</mask>
<g mask="url(#mask0_408_119)">
<path d="M1525.98 695.116L1528.73 696.624C1528.92 696.728 1528.99 696.969 1528.89 697.159C1528.85 697.224 1528.8 697.277 1528.73 697.313L1525.98 698.823C1525.91 698.859 1525.86 698.913 1525.82 698.98L1524.31 701.733C1524.21 701.923 1523.97 701.993 1523.78 701.888C1523.71 701.852 1523.66 701.798 1523.62 701.733L1522.11 698.978C1522.08 698.911 1522.02 698.857 1521.96 698.821L1519.2 697.313C1519.01 697.209 1518.94 696.968 1519.05 696.778C1519.08 696.713 1519.14 696.659 1519.2 696.624L1521.96 695.116C1522.03 695.08 1522.08 695.026 1522.12 694.96L1523.62 692.203C1523.73 692.012 1523.97 691.943 1524.16 692.048C1524.22 692.084 1524.28 692.138 1524.31 692.203L1525.82 694.959C1525.86 695.025 1525.91 695.08 1525.98 695.115" fill="#2194DA"/>
</g>
<path d="M70.472 513L69 514.47M74.47 509L73 510.47M70.543 513.163C71.267 513.887 72.439 513.887 73.163 513.163C73.887 512.439 73.887 511.267 73.163 510.543C72.439 509.819 71.267 509.819 70.543 510.543C69.819 511.267 69.819 512.439 70.543 513.163Z" stroke="#2CD2AA" stroke-width="1.097" stroke-linecap="round" stroke-linejoin="round"/>
<path d="M576.057 997.9L577.417 997.157C577.608 997.052 577.678 996.811 577.572 996.62C577.536 996.555 577.482 996.501 577.417 996.465L576.057 995.722C575.991 995.686 575.936 995.631 575.9 995.565L575.158 994.206C575.054 994.015 574.813 993.944 574.622 994.048C574.556 994.085 574.501 994.14 574.464 994.206L573.721 995.565C573.684 995.631 573.63 995.686 573.564 995.722L572.204 996.465C572.013 996.57 571.944 996.811 572.05 997.002C572.086 997.067 572.139 997.121 572.204 997.157L573.564 997.901C573.63 997.937 573.684 997.991 573.721 998.057L574.464 999.417C574.614 999.69 575.006 999.69 575.156 999.417L575.9 998.057C575.937 997.992 575.991 997.937 576.057 997.902" fill="#8AFFF9"/>
<path d="M1206.81 1132.91C1206.81 1131.3 1205.51 1130 1203.9 1130C1202.3 1130 1201 1131.3 1201 1132.91C1201 1134.51 1202.3 1135.82 1203.91 1135.81C1205.51 1135.81 1206.81 1134.51 1206.81 1132.91ZM114.978 1035.82L117.734 1034.32C117.925 1034.21 117.996 1033.97 117.892 1033.78C117.856 1033.72 117.801 1033.66 117.734 1033.62L114.978 1032.12C114.912 1032.08 114.858 1032.03 114.822 1031.96L113.315 1029.21C113.211 1029.02 112.972 1028.94 112.782 1029.05C112.716 1029.08 112.661 1029.14 112.625 1029.21L111.117 1031.96C111.08 1032.03 111.026 1032.08 110.96 1032.12L108.205 1033.62C108.015 1033.73 107.945 1033.97 108.05 1034.16C108.086 1034.22 108.139 1034.28 108.205 1034.31L110.96 1035.82C111.026 1035.86 111.08 1035.91 111.117 1035.98L112.624 1038.73C112.774 1039.01 113.166 1039.01 113.314 1038.73L114.822 1035.98C114.858 1035.91 114.912 1035.86 114.978 1035.82Z" fill="#2194DA"/>
<path d="M206.057 793.9L207.417 793.156C207.608 793.051 207.678 792.81 207.572 792.619C207.536 792.554 207.482 792.5 207.417 792.464L206.057 791.721C205.991 791.685 205.937 791.631 205.901 791.566L205.158 790.206C205.054 790.015 204.814 789.944 204.623 790.049C204.557 790.085 204.502 790.14 204.465 790.206L203.722 791.566C203.686 791.632 203.631 791.687 203.565 791.723L202.205 792.465C202.014 792.57 201.944 792.811 202.05 793.002C202.086 793.067 202.14 793.121 202.205 793.157L203.565 793.902C203.631 793.939 203.685 793.992 203.722 794.057L204.465 795.417C204.615 795.69 205.007 795.69 205.157 795.417L205.901 794.057C205.938 793.992 205.992 793.938 206.058 793.902" fill="#8AFFF9"/>
<path d="M1455.98 1061.82L1458.73 1060.32C1458.92 1060.21 1459 1059.97 1458.89 1059.78C1458.85 1059.71 1458.8 1059.66 1458.73 1059.62L1455.98 1058.12C1455.91 1058.08 1455.86 1058.03 1455.82 1057.96L1454.32 1055.2C1454.21 1055.01 1453.97 1054.94 1453.78 1055.05C1453.72 1055.08 1453.66 1055.14 1453.62 1055.2L1452.12 1057.96C1452.08 1058.03 1452.03 1058.08 1451.96 1058.12L1449.21 1059.62C1449.01 1059.73 1448.94 1059.97 1449.05 1060.16C1449.08 1060.22 1449.14 1060.28 1449.21 1060.31L1451.96 1061.82C1452.03 1061.86 1452.08 1061.91 1452.12 1061.98L1453.62 1064.73C1453.77 1065.01 1454.17 1065.01 1454.31 1064.73L1455.82 1061.98C1455.86 1061.91 1455.91 1061.86 1455.98 1061.82Z" fill="#2194DA"/>
<path d="M1402.06 1085.9L1403.42 1085.16C1403.61 1085.05 1403.68 1084.81 1403.57 1084.62C1403.54 1084.55 1403.48 1084.5 1403.42 1084.46L1402.06 1083.72C1401.99 1083.68 1401.94 1083.63 1401.9 1083.57L1401.16 1082.21C1401.05 1082.02 1400.81 1081.95 1400.62 1082.05C1400.56 1082.09 1400.5 1082.14 1400.47 1082.21L1399.72 1083.57C1399.69 1083.63 1399.63 1083.69 1399.57 1083.72L1398.21 1084.47C1398.02 1084.57 1397.95 1084.81 1398.05 1085C1398.09 1085.07 1398.14 1085.12 1398.21 1085.16L1399.57 1085.9C1399.63 1085.94 1399.69 1085.99 1399.72 1086.06L1400.47 1087.42C1400.62 1087.69 1401.01 1087.69 1401.16 1087.42L1401.9 1086.06C1401.94 1085.99 1401.99 1085.94 1402.06 1085.9" fill="#8AFFF9"/>
<path d="M411 894.666L414.554 895.554L413.667 892L411 894.666Z" stroke="#2CD2AA" stroke-width="1.097" stroke-linecap="round" stroke-linejoin="round"/>
<path d="M522.226 745.225L524.245 744.121L522.226 743.018L521.122 741L520.018 743.018L518 744.12L520.018 745.224L521.122 747.243L522.226 745.225Z" fill="#2CD2AA"/>
<path d="M363.979 1142.82L366.733 1141.32C366.924 1141.21 366.995 1140.97 366.891 1140.78C366.855 1140.71 366.8 1140.66 366.733 1140.62L363.977 1139.12C363.911 1139.08 363.857 1139.03 363.821 1138.96L362.314 1136.21C362.21 1136.02 361.971 1135.94 361.781 1136.05C361.715 1136.08 361.66 1136.14 361.624 1136.21L360.117 1138.96C360.079 1139.03 360.024 1139.08 359.957 1139.12L357.205 1140.62C357.015 1140.73 356.944 1140.97 357.048 1141.16C357.084 1141.22 357.138 1141.28 357.205 1141.32L359.959 1142.82C360.025 1142.86 360.079 1142.91 360.116 1142.98L361.624 1145.73C361.774 1146.01 362.164 1146.01 362.314 1145.73L363.821 1142.98C363.857 1142.91 363.911 1142.86 363.977 1142.82" fill="#2CD2AA"/>
<path d="M659.815 1214.91C659.814 1213.3 658.512 1212 656.906 1212C655.301 1212 653.999 1213.3 654 1214.91C654.001 1216.51 655.304 1217.81 656.91 1217.81C658.515 1217.81 659.816 1216.51 659.815 1214.91Z" fill="#4AC3DF"/>
<path d="M50.8597 1174.23L50.0127 1175.83C49.9717 1175.91 49.9087 1175.97 49.8327 1176.01L48.2327 1176.86C48.0207 1176.97 47.9397 1177.24 48.0507 1177.45C48.0917 1177.52 48.1547 1177.59 48.2327 1177.63L49.8327 1178.48C49.9087 1178.52 49.9727 1178.58 50.0127 1178.66L50.8597 1180.26C51.0227 1180.57 51.4647 1180.57 51.6297 1180.26L52.4747 1178.66C52.5157 1178.58 52.5787 1178.52 52.6547 1178.48L54.2547 1177.63C54.4667 1177.52 54.5477 1177.26 54.4367 1177.04C54.3957 1176.97 54.3327 1176.9 54.2547 1176.86L52.6547 1176.01C52.5787 1175.97 52.5157 1175.91 52.4747 1175.83L51.6287 1174.23C51.5167 1174.02 51.2537 1173.94 51.0417 1174.05C50.9637 1174.09 50.8997 1174.16 50.8597 1174.23Z" stroke="#8AFFF9" stroke-width="1.097" stroke-linecap="round" stroke-linejoin="round"/>
<path d="M1690.98 1110.82L1693.73 1109.32C1693.92 1109.21 1694 1108.97 1693.89 1108.78C1693.85 1108.71 1693.8 1108.66 1693.73 1108.62L1690.98 1107.12C1690.91 1107.08 1690.86 1107.03 1690.82 1106.96L1689.32 1104.2C1689.21 1104.01 1688.97 1103.94 1688.78 1104.05C1688.72 1104.08 1688.66 1104.14 1688.62 1104.2L1687.12 1106.96C1687.08 1107.03 1687.03 1107.08 1686.96 1107.12L1684.21 1108.62C1684.01 1108.73 1683.94 1108.97 1684.05 1109.16C1684.08 1109.22 1684.14 1109.28 1684.21 1109.31L1686.96 1110.82C1687.03 1110.86 1687.08 1110.91 1687.12 1110.98L1688.62 1113.73C1688.77 1114.01 1689.17 1114.01 1689.31 1113.73L1690.82 1110.98C1690.86 1110.91 1690.91 1110.86 1690.98 1110.82Z" fill="#2194DA"/>
<path d="M1637.06 1155.9L1638.42 1155.16C1638.61 1155.05 1638.68 1154.81 1638.57 1154.62C1638.54 1154.55 1638.48 1154.5 1638.42 1154.46L1637.06 1153.72C1636.99 1153.68 1636.94 1153.63 1636.9 1153.57L1636.16 1152.21C1636.05 1152.02 1635.81 1151.95 1635.62 1152.05C1635.56 1152.09 1635.5 1152.14 1635.47 1152.21L1634.72 1153.57C1634.69 1153.63 1634.63 1153.69 1634.57 1153.72L1633.21 1154.47C1633.02 1154.57 1632.95 1154.81 1633.05 1155C1633.09 1155.07 1633.14 1155.12 1633.21 1155.16L1634.57 1155.9C1634.63 1155.94 1634.69 1155.99 1634.72 1156.06L1635.47 1157.42C1635.62 1157.69 1636.01 1157.69 1636.16 1157.42L1636.9 1156.06C1636.94 1155.99 1636.99 1155.94 1637.06 1155.9" fill="#8AFFF9"/>
<path d="M837.878 781.726L839.178 781.017C839.361 780.915 839.427 780.687 839.326 780.504C839.291 780.441 839.24 780.391 839.178 780.357L837.878 779.644C837.815 779.61 837.763 779.558 837.728 779.495L837.018 778.195C836.917 778.012 836.688 777.946 836.506 778.047C836.443 778.082 836.393 778.133 836.358 778.195L835.649 779.495C835.613 779.558 835.56 779.61 835.497 779.644L834.197 780.355C834.013 780.455 833.946 780.683 834.046 780.866C834.081 780.929 834.134 780.982 834.197 781.016L835.497 781.726C835.56 781.761 835.612 781.814 835.647 781.876L836.356 783.176C836.455 783.359 836.683 783.427 836.866 783.329C836.93 783.294 836.984 783.241 837.018 783.176L837.728 781.876C837.763 781.812 837.814 781.761 837.878 781.726Z" fill="#4AC3DF"/>
<path d="M1663.06 1249.9L1664.42 1249.16C1664.61 1249.05 1664.68 1248.81 1664.57 1248.62C1664.54 1248.55 1664.48 1248.5 1664.42 1248.46L1663.06 1247.72C1662.99 1247.69 1662.94 1247.63 1662.9 1247.56L1662.16 1246.21C1662.06 1246.01 1661.82 1245.94 1661.63 1246.05C1661.56 1246.08 1661.5 1246.14 1661.47 1246.21L1660.72 1247.56C1660.69 1247.63 1660.63 1247.69 1660.57 1247.72L1659.21 1248.46C1659.02 1248.57 1658.95 1248.81 1659.05 1249C1659.09 1249.07 1659.14 1249.12 1659.21 1249.16L1660.57 1249.9C1660.63 1249.94 1660.69 1249.99 1660.72 1250.06L1661.47 1251.42C1661.62 1251.69 1662.01 1251.69 1662.16 1251.42L1662.9 1250.06C1662.94 1249.99 1662.99 1249.94 1663.06 1249.9" fill="#8AFFF9"/>
<mask id="mask1_408_119" style="mask-type:luminance" maskUnits="userSpaceOnUse" x="1587" y="980" width="7" height="6">
<path d="M1593.23 985.933V980.31H1587.61V985.934L1593.23 985.933Z" fill="white"/>
</mask>
<g mask="url(#mask1_408_119)">
<path d="M1591.67 984.21L1593.03 983.467C1593.22 983.363 1593.29 983.124 1593.18 982.933C1593.15 982.866 1593.09 982.812 1593.03 982.775L1591.67 982.032C1591.6 981.996 1591.55 981.941 1591.51 981.876L1590.77 980.516C1590.66 980.326 1590.42 980.254 1590.23 980.359C1590.17 980.395 1590.11 980.449 1590.08 980.516L1589.33 981.876C1589.3 981.941 1589.24 981.996 1589.18 982.032L1587.82 982.775C1587.63 982.88 1587.56 983.12 1587.66 983.312C1587.7 983.377 1587.75 983.431 1587.82 983.467L1589.18 984.211C1589.24 984.247 1589.3 984.302 1589.33 984.368L1590.08 985.728C1590.18 985.918 1590.42 985.989 1590.61 985.885C1590.68 985.85 1590.73 985.795 1590.77 985.729L1591.51 984.369C1591.55 984.303 1591.6 984.249 1591.67 984.213" fill="#8AFFF9"/>
</g>
<path d="M1068 864.78L1070.78 862M1060 872.78L1062.78 870M1065.61 862.686C1065.61 861.689 1060.12 867.171 1061.12 867.171C1060.12 867.171 1065.61 872.655 1065.61 871.658C1065.61 872.654 1071.09 867.17 1070.09 867.17C1071.09 867.171 1065.61 861.688 1065.61 862.686Z" stroke="#8AFFF9" stroke-width="1.097" stroke-linecap="round" stroke-linejoin="round"/>
<path d="M1248.98 716.823L1251.73 715.316C1251.92 715.212 1251.99 714.972 1251.89 714.781C1251.85 714.715 1251.8 714.66 1251.73 714.624L1248.98 713.118C1248.91 713.082 1248.86 713.028 1248.82 712.962L1247.32 710.207C1247.21 710.016 1246.97 709.944 1246.78 710.047C1246.72 710.084 1246.66 710.14 1246.62 710.207L1245.12 712.962C1245.08 713.028 1245.03 713.083 1244.96 713.119L1242.21 714.626C1242.02 714.73 1241.94 714.969 1242.05 715.159C1242.08 715.225 1242.14 715.28 1242.21 715.316L1244.96 716.824C1245.03 716.86 1245.08 716.915 1245.12 716.981L1246.62 719.735C1246.77 720.008 1247.17 720.008 1247.31 719.735L1248.82 716.979C1248.86 716.913 1248.91 716.858 1248.98 716.822" fill="#8AFFF9"/>
<path d="M1273.88 962.727L1275.18 962.017C1275.36 961.916 1275.43 961.687 1275.33 961.505C1275.29 961.442 1275.24 961.392 1275.18 961.358L1273.88 960.645C1273.81 960.611 1273.76 960.559 1273.73 960.496L1273.02 959.196C1272.92 959.013 1272.69 958.947 1272.51 959.048C1272.44 959.083 1272.39 959.134 1272.36 959.196L1271.65 960.496C1271.61 960.559 1271.56 960.611 1271.5 960.645L1270.2 961.356C1270.01 961.456 1269.95 961.684 1270.05 961.867C1270.08 961.93 1270.13 961.983 1270.2 962.017L1271.5 962.727C1271.56 962.762 1271.61 962.815 1271.65 962.877L1272.36 964.177C1272.45 964.36 1272.68 964.428 1272.87 964.33C1272.93 964.295 1272.98 964.242 1273.02 964.177L1273.73 962.877C1273.76 962.814 1273.81 962.762 1273.88 962.727Z" fill="#2194DA"/>
<path d="M1494.06 873.9L1495.42 873.156C1495.61 873.051 1495.68 872.81 1495.57 872.619C1495.54 872.554 1495.48 872.5 1495.42 872.464L1494.06 871.721C1493.99 871.685 1493.94 871.631 1493.9 871.566L1493.16 870.206C1493.06 870.015 1492.82 869.944 1492.63 870.049C1492.56 870.085 1492.5 870.14 1492.47 870.206L1491.72 871.566C1491.69 871.632 1491.63 871.687 1491.57 871.723L1490.21 872.465C1490.02 872.57 1489.95 872.811 1490.05 873.002C1490.09 873.067 1490.14 873.121 1490.21 873.157L1491.57 873.902C1491.63 873.939 1491.69 873.992 1491.72 874.057L1492.47 875.417C1492.62 875.69 1493.01 875.69 1493.16 875.417L1493.9 874.057C1493.94 873.992 1493.99 873.938 1494.06 873.902" fill="#8AFFF9"/>
<path d="M1712 812L1713.76 812.542L1715.53 812L1714.98 813.762L1715.53 815.525L1713.76 814.982L1712 815.526L1712.54 813.763L1712 812Z" stroke="#2CD2AA" stroke-width="1.097" stroke-linecap="round" stroke-linejoin="round"/>
<path d="M70.472 721L69 719.53M74.47 725L73 723.53M70.543 720.837C71.267 720.113 72.439 720.113 73.163 720.837C73.887 721.561 73.887 722.733 73.163 723.457C72.439 724.181 71.267 724.181 70.543 723.457C69.819 722.733 69.819 721.561 70.543 720.837Z" stroke="#2CD2AA" stroke-width="1.097" stroke-linecap="round" stroke-linejoin="round"/>
</g>
<defs>
<clipPath id="clip0_408_119">
<rect width="1764" height="1351" fill="white"/>
</clipPath>
</defs>
</svg>
