<svg width="1366" height="1665" viewBox="0 0 1366 1665" fill="none" xmlns="http://www.w3.org/2000/svg">
<path d="M167.06 4.06085L169 2.99999L167.06 1.94009L166 -4.68754e-09L164.939 1.94009L163 2.99999L164.939 4.06085L166 6L167.06 4.06085Z" fill="#2CD2AA"/>
<path d="M641.444 88.5551L645 90.5L641.444 92.4432L639.499 96L637.555 92.4432L634 90.5L637.555 88.5551L639.499 85L641.444 88.5551Z" fill="#15C0EE"/>
<path d="M173 826.083L181.224 824.006L179.172 832.317L173 826.083Z" stroke="#14C0F0" stroke-width="1.097" stroke-linecap="round" stroke-linejoin="round"/>
<path d="M466.06 537.939L468 539L466.06 540.06L465 542L463.939 540.06L462 539L463.939 537.939L465 536L466.06 537.939Z" fill="#15C0EE"/>
<path d="M1 315.999L5 315L4.00169 319L1 315.999Z" stroke="#14C0F0" stroke-width="1.097" stroke-linecap="round" stroke-linejoin="round"/>
<path d="M641.444 920.555L645 922.5L641.444 924.443L639.499 928L637.555 924.443L634 922.5L637.555 920.555L639.499 917L641.444 920.555Z" fill="#15C0EE"/>
<path d="M173 1658.08L181.224 1656.01L179.172 1664.32L173 1658.08Z" stroke="#3E27E8" stroke-width="1.097" stroke-linecap="round" stroke-linejoin="round"/>
<path d="M641.444 1338.56L645 1340.5L641.444 1342.44L639.499 1346L637.555 1342.44L634 1340.5L637.555 1338.56L639.499 1335L641.444 1338.56Z" fill="#15C0EE"/>
<path d="M1 1148L5 1147L4.00169 1151L1 1148Z" stroke="#14C0F0" stroke-width="1.097" stroke-linecap="round" stroke-linejoin="round"/>
<path d="M888.06 4.06085L890 2.99999L888.06 1.94009L887 -4.68754e-09L885.939 1.94009L884 2.99999L885.939 4.06085L887 6L888.06 4.06085Z" fill="#2CD2AA"/>
<path d="M1359.74 91.2623L1362 92.5L1359.74 93.7366L1358.5 96L1357.26 93.7366L1355 92.5L1357.26 91.2623L1358.5 89L1359.74 91.2623Z" fill="#15C0EE"/>
<path d="M894 826.083L902.224 824.006L900.172 832.317L894 826.083Z" stroke="#14C0F0" stroke-width="1.097" stroke-linecap="round" stroke-linejoin="round"/>
<path d="M1146.44 545.555L1150 547.5L1146.44 549.443L1144.5 553L1142.55 549.443L1139 547.5L1142.55 545.555L1144.5 542L1146.44 545.555Z" fill="#3E27E8"/>
<path d="M722 315.999L726 315L725.002 319L722 315.999Z" stroke="#14C0F0" stroke-width="1.097" stroke-linecap="round" stroke-linejoin="round"/>
<path d="M1189.44 1194.56L1193 1196.5L1189.44 1198.44L1187.5 1202L1185.55 1198.44L1182 1196.5L1185.55 1194.56L1187.5 1191L1189.44 1194.56Z" fill="#2CD2AA"/>
<path d="M894 1658.08L902.224 1656.01L900.172 1664.32L894 1658.08Z" stroke="#14C0F0" stroke-width="1.097" stroke-linecap="round" stroke-linejoin="round"/>
<path d="M1362.44 1338.56L1366 1340.5L1362.44 1342.44L1360.5 1346L1358.55 1342.44L1355 1340.5L1358.55 1338.56L1360.5 1335L1362.44 1338.56Z" fill="#3D3AE6"/>
<path d="M722 1148L726 1147L725.002 1151L722 1148Z" stroke="#14C0F0" stroke-width="1.097" stroke-linecap="round" stroke-linejoin="round"/>
</svg>
