<svg width="26" height="26" viewBox="0 0 26 26" fill="none" xmlns="http://www.w3.org/2000/svg">
<g id="Vector">
<path d="M13.0163 18.8626C9.23761 18.9452 7.11742 15.5598 7.11879 13.0331C7.11879 10.2986 9.1799 7.17058 12.96 7.1348C16.1327 7.1059 18.8534 9.4867 18.8437 12.9781C18.8327 16.9153 15.6806 18.9314 13.0163 18.8612V18.8626ZM13.0287 17.1988C15.5611 17.1933 17.2512 15.0699 17.1797 12.9987C17.0863 10.3028 15.1296 8.75457 12.8624 8.80549C10.3341 8.86329 8.7663 10.9496 8.79928 13.0992C8.83501 15.4057 10.6982 17.2263 13.0287 17.1988Z" fill="white"/>
<path d="M18.8547 7.97427C18.6308 7.83665 18.2927 7.74583 18.2117 7.54903C18.1031 7.28481 18.0949 6.88434 18.2254 6.64213C18.4164 6.28845 18.7627 6.01459 19.0553 5.71871C19.4799 5.29072 19.8935 4.84897 20.3538 4.46226C20.7139 4.16087 21.1343 4.18152 21.4833 4.52143C21.8035 4.83383 21.7829 5.23154 21.5177 5.5288C20.8403 6.2857 20.1216 7.00819 19.4016 7.72656C19.2821 7.84629 19.076 7.87794 18.8547 7.97427Z" fill="white"/>
<path d="M7.13253 18.0727C7.70552 18.0754 8.18919 18.842 7.82506 19.2713C7.13803 20.0778 6.37954 20.8319 5.57709 21.5242C5.37785 21.6962 4.78699 21.681 4.58226 21.5076C4.3789 21.3342 4.26347 20.6984 4.40913 20.5361C5.17723 19.6842 6.03877 18.9163 6.87558 18.1277C6.93192 18.0741 7.05146 18.0878 7.13116 18.0727H7.13253Z" fill="white"/>
<path d="M12.1946 3.16865C12.1946 2.70212 12.185 2.23422 12.1974 1.7677C12.2111 1.25438 12.556 0.94061 12.9984 1.00942C13.2897 1.05483 13.7363 1.42227 13.7542 1.67274C13.8339 2.7379 13.8284 3.81683 13.7377 4.88199C13.7171 5.1242 13.2499 5.48476 12.9627 5.51091C12.5244 5.55082 12.1946 5.22329 12.1919 4.70997C12.1891 4.19666 12.1919 3.68334 12.1919 3.16865H12.1946Z" fill="white"/>
<path d="M22.6678 13.7886C22.1539 13.7886 21.64 13.8093 21.1274 13.7818C20.6712 13.757 20.4445 13.3827 20.4638 13.0207C20.4775 12.7565 20.7537 12.4758 20.9708 12.2652C21.0821 12.1579 21.3226 12.1579 21.5053 12.1551C22.2995 12.1441 23.0937 12.1262 23.8866 12.1551C24.5681 12.1813 24.9858 12.517 24.9996 12.9739C25.0147 13.4556 24.6258 13.768 23.9264 13.8024C23.5073 13.823 23.0855 13.8065 22.6664 13.8065V13.7873L22.6678 13.7886Z" fill="white"/>
<path d="M3.1175 13.801C2.69978 13.801 2.28344 13.8024 1.86572 13.801C1.39441 13.7983 1.05502 13.629 1.00555 13.1019C0.957459 12.5955 1.22128 12.2157 1.81763 12.184C2.78635 12.1317 3.76331 12.1427 4.73203 12.206C5.16349 12.2336 5.50563 12.5198 5.46716 13.0496C5.43006 13.5602 5.13463 13.79 4.64684 13.7955C4.13706 13.8024 3.62728 13.7969 3.1175 13.7969V13.801Z" fill="white"/>
<path d="M12.1864 22.6801C12.1864 22.2164 12.1658 21.7526 12.1932 21.2902C12.218 20.8801 12.4337 20.5911 12.8707 20.5374C13.2966 20.4851 13.6992 20.6861 13.7185 21.0728C13.7748 22.2191 13.7542 23.3724 13.6786 24.516C13.6662 24.6963 13.2307 24.9453 12.9613 24.9894C12.5423 25.0596 12.2496 24.7747 12.2221 24.3453C12.1877 23.7921 12.2138 23.2347 12.2138 22.6801C12.2056 22.6801 12.196 22.6801 12.1877 22.6801H12.1864Z" fill="white"/>
<path d="M5.18887 4.1939C5.43758 4.3329 5.51113 4.40859 5.66777 4.55859C6.33557 5.19714 6.98826 5.8522 7.63407 6.51277C7.95011 6.83617 8.10675 7.21187 7.7756 7.62197C7.48567 7.98115 6.94429 8.04721 6.54168 7.67839C5.82579 7.02471 5.13876 6.33524 4.50668 5.60174C4.34317 5.4132 4.34317 4.98108 4.42836 4.71135C4.49294 4.50354 4.70482 4.1939 5.03295 4.1939H5.18887Z" fill="white"/>
<path d="M21.7032 20.8856C21.6606 21.5861 20.9639 21.9122 20.417 21.5489C20.0722 21.3205 19.796 20.9861 19.4992 20.6902C19.0691 20.2608 18.6115 19.8521 18.2364 19.3787C17.9478 19.0154 17.9753 18.575 18.3518 18.2461C18.6857 17.9543 19.054 17.9942 19.3604 18.2901C20.0667 18.9713 20.7661 19.6608 21.4449 20.3682C21.5933 20.5223 21.6482 20.7686 21.7032 20.8829V20.8856Z" fill="white"/>
<path d="M13.0163 18.8626C9.23761 18.9452 7.11742 15.5598 7.11879 13.0331C7.11879 10.2986 9.1799 7.17058 12.96 7.1348C16.1327 7.1059 18.8534 9.4867 18.8437 12.9781C18.8327 16.9153 15.6806 18.9314 13.0163 18.8612V18.8626ZM13.0287 17.1988C15.5611 17.1933 17.2512 15.0699 17.1797 12.9987C17.0863 10.3028 15.1296 8.75457 12.8624 8.80549C10.3341 8.86329 8.7663 10.9496 8.79928 13.0992C8.83501 15.4057 10.6982 17.2263 13.0287 17.1988Z" stroke="white" stroke-width="0.5"/>
<path d="M18.8547 7.97427C18.6308 7.83665 18.2927 7.74583 18.2117 7.54903C18.1031 7.28481 18.0949 6.88434 18.2254 6.64213C18.4164 6.28845 18.7627 6.01459 19.0553 5.71871C19.4799 5.29072 19.8935 4.84897 20.3538 4.46226C20.7139 4.16087 21.1343 4.18152 21.4833 4.52143C21.8035 4.83383 21.7829 5.23154 21.5177 5.5288C20.8403 6.2857 20.1216 7.00819 19.4016 7.72656C19.2821 7.84629 19.076 7.87794 18.8547 7.97427Z" stroke="white" stroke-width="0.5"/>
<path d="M7.13253 18.0727C7.70552 18.0754 8.18919 18.842 7.82506 19.2713C7.13803 20.0778 6.37954 20.8319 5.57709 21.5242C5.37785 21.6962 4.78699 21.681 4.58226 21.5076C4.3789 21.3342 4.26347 20.6984 4.40913 20.5361C5.17723 19.6842 6.03877 18.9163 6.87558 18.1277C6.93192 18.0741 7.05146 18.0878 7.13116 18.0727H7.13253Z" stroke="white" stroke-width="0.5"/>
<path d="M12.1946 3.16865C12.1946 2.70212 12.185 2.23422 12.1974 1.7677C12.2111 1.25438 12.556 0.94061 12.9984 1.00942C13.2897 1.05483 13.7363 1.42227 13.7542 1.67274C13.8339 2.7379 13.8284 3.81683 13.7377 4.88199C13.7171 5.1242 13.2499 5.48476 12.9627 5.51091C12.5244 5.55082 12.1946 5.22329 12.1919 4.70997C12.1891 4.19666 12.1919 3.68334 12.1919 3.16865H12.1946Z" stroke="white" stroke-width="0.5"/>
<path d="M22.6678 13.7886C22.1539 13.7886 21.64 13.8093 21.1274 13.7818C20.6712 13.757 20.4445 13.3827 20.4638 13.0207C20.4775 12.7565 20.7537 12.4758 20.9708 12.2652C21.0821 12.1579 21.3226 12.1579 21.5053 12.1551C22.2995 12.1441 23.0937 12.1262 23.8866 12.1551C24.5681 12.1813 24.9858 12.517 24.9996 12.9739C25.0147 13.4556 24.6258 13.768 23.9264 13.8024C23.5073 13.823 23.0855 13.8065 22.6664 13.8065V13.7873L22.6678 13.7886Z" stroke="white" stroke-width="0.5"/>
<path d="M3.1175 13.801C2.69978 13.801 2.28344 13.8024 1.86572 13.801C1.39441 13.7983 1.05502 13.629 1.00555 13.1019C0.957459 12.5955 1.22128 12.2157 1.81763 12.184C2.78635 12.1317 3.76331 12.1427 4.73203 12.206C5.16349 12.2336 5.50563 12.5198 5.46716 13.0496C5.43006 13.5602 5.13463 13.79 4.64684 13.7955C4.13706 13.8024 3.62728 13.7969 3.1175 13.7969V13.801Z" stroke="white" stroke-width="0.5"/>
<path d="M12.1864 22.6801C12.1864 22.2164 12.1658 21.7526 12.1932 21.2902C12.218 20.8801 12.4337 20.5911 12.8707 20.5374C13.2966 20.4851 13.6992 20.6861 13.7185 21.0728C13.7748 22.2191 13.7542 23.3724 13.6786 24.516C13.6662 24.6963 13.2307 24.9453 12.9613 24.9894C12.5423 25.0596 12.2496 24.7747 12.2221 24.3453C12.1877 23.7921 12.2138 23.2347 12.2138 22.6801C12.2056 22.6801 12.196 22.6801 12.1877 22.6801H12.1864Z" stroke="white" stroke-width="0.5"/>
<path d="M5.18887 4.1939C5.43758 4.3329 5.51113 4.40859 5.66777 4.55859C6.33557 5.19714 6.98826 5.8522 7.63407 6.51277C7.95011 6.83617 8.10675 7.21187 7.7756 7.62197C7.48567 7.98115 6.94429 8.04721 6.54168 7.67839C5.82579 7.02471 5.13876 6.33524 4.50668 5.60174C4.34317 5.4132 4.34317 4.98108 4.42836 4.71135C4.49294 4.50354 4.70482 4.1939 5.03295 4.1939H5.18887Z" stroke="white" stroke-width="0.5"/>
<path d="M21.7032 20.8856C21.6606 21.5861 20.9639 21.9122 20.417 21.5489C20.0722 21.3205 19.796 20.9861 19.4992 20.6902C19.0691 20.2608 18.6115 19.8521 18.2364 19.3787C17.9478 19.0154 17.9753 18.575 18.3518 18.2461C18.6857 17.9543 19.054 17.9942 19.3604 18.2901C20.0667 18.9713 20.7661 19.6608 21.4449 20.3682C21.5933 20.5223 21.6482 20.7686 21.7032 20.8829V20.8856Z" stroke="white" stroke-width="0.5"/>
</g>
</svg>
