<svg width="24" height="24" viewBox="0 0 24 24" fill="none" xmlns="http://www.w3.org/2000/svg">
<path d="M10.5685 22.261C4.80148 22.4218 -0.642621 17.1704 0.0616441 10.533C0.771224 3.85577 7.17472 -0.127976 13.0334 1.28321C13.2513 1.33636 13.4719 1.38686 13.6819 1.46526C14.3303 1.7071 14.7728 2.17085 14.7888 2.86449C14.8047 3.51959 14.3569 3.92753 13.7709 4.16405C12.761 4.57333 11.8109 5.06631 11.0017 5.82639C6.87043 9.70516 7.84444 16.2508 12.9391 18.7543C13.2633 18.9138 13.5995 19.0453 13.9264 19.2008C14.4645 19.4546 14.7954 19.8957 14.7662 20.4778C14.7343 21.101 14.4061 21.5913 13.7682 21.7959C13.4241 21.9062 13.0812 22.0471 12.7278 22.0896C12.0116 22.1773 11.2887 22.2065 10.5672 22.261H10.5685ZM12.2375 20.3582C11.7352 20.022 11.2927 19.7376 10.8608 19.4346C7.61456 17.1558 6.23526 13.0032 7.03387 9.69054C7.65575 7.11134 8.97525 5.06897 11.2183 3.62722C11.5545 3.41195 12.0222 3.29768 12.1697 2.80735C8.81712 2.00475 4.85065 3.80661 2.96508 6.91999C1.06755 10.0546 1.16987 13.9826 3.38099 16.9697C5.36224 19.6459 8.86363 21.2777 12.2375 20.3568V20.3582Z" fill="#222222"/>
<path d="M19.4809 15.7503C19.162 16.6711 18.8777 17.479 18.6013 18.2896C18.3794 18.9434 17.986 19.4045 17.2512 19.4138C16.5111 19.4231 16.1137 18.954 15.8839 18.3122C15.7178 17.8458 15.5052 17.3847 15.4228 16.9023C15.2633 15.9642 14.6733 15.5523 13.8176 15.341C13.2954 15.2121 12.7864 15.0168 12.2868 14.8108C11.6955 14.5663 11.3234 14.0946 11.3394 13.4581C11.354 12.8747 11.7221 12.4615 12.2828 12.2568C12.8755 12.0403 13.4588 11.7878 14.0661 11.6283C14.7451 11.4503 15.165 11.0928 15.3311 10.3952C15.456 9.87165 15.654 9.36405 15.8374 8.85644C16.1337 8.03923 16.6532 7.5582 17.2485 7.62066C18.002 7.70039 18.4498 8.1761 18.669 8.88701C18.8551 9.48895 19.065 10.0843 19.2338 10.6915C19.356 11.1274 19.6284 11.3732 20.0457 11.5074C20.6463 11.7001 21.2349 11.926 21.8369 12.112C22.5279 12.3259 23.0833 12.6661 23.1365 13.4647C23.183 14.169 22.8043 14.5942 21.8196 14.9556C21.0609 15.2347 20.2902 15.4765 19.4769 15.7516L19.4809 15.7503ZM17.3828 10.2517C17.2871 10.2597 17.1927 10.2676 17.0971 10.2756C16.9456 10.6902 16.7595 11.0955 16.6519 11.522C16.4566 12.2994 15.9995 12.7405 15.2181 12.9531C14.7942 13.0687 14.2455 13.0634 13.9159 13.6428C14.3677 13.7969 14.7371 13.9577 15.1238 14.0494C15.9397 14.2434 16.4871 14.6673 16.6692 15.5337C16.7569 15.9496 16.9668 16.3403 17.2233 17.0086C17.4811 16.3987 17.691 16.0599 17.7668 15.6931C17.9621 14.7417 18.5175 14.2275 19.457 14.0335C19.8158 13.9604 20.144 13.7345 20.7021 13.4793C20.051 13.2322 19.6563 13.0196 19.2378 12.9359C18.4179 12.7724 18.0219 12.2622 17.8252 11.4981C17.7163 11.0729 17.5329 10.6649 17.3828 10.2504V10.2517Z" fill="#222222"/>
<path d="M20.4062 5.10474C19.8547 5.02368 19.4495 4.99711 19.0641 4.89745C18.6628 4.79513 18.5047 4.48153 18.5299 4.07226C18.5565 3.63376 18.8037 3.43842 19.2236 3.40919C19.573 3.38527 19.9212 3.34541 20.3451 3.30554C20.3889 2.90425 20.4447 2.56009 20.4594 2.21593C20.4793 1.73623 20.7304 1.45718 21.1796 1.37612C21.5941 1.30171 21.9436 1.65251 22.0366 2.21858C22.0925 2.56274 22.1071 2.91222 22.1456 3.32282C22.5987 3.36401 23.016 3.33079 23.3774 3.45836C23.6206 3.54473 23.877 3.8251 23.9621 4.07625C24.0963 4.46692 23.8571 4.79114 23.4624 4.89612C23.0771 4.99844 22.6705 5.02103 22.1629 5.09544C22.1243 5.40904 22.1004 5.7532 22.0393 6.08938C21.9264 6.70728 21.6473 6.97835 21.1889 6.93184C20.6999 6.88135 20.4992 6.56775 20.4687 6.10932C20.4487 5.80236 20.4301 5.49541 20.4062 5.10607V5.10474Z" fill="#222222"/>
</svg>
