<svg width="546" height="456" viewBox="0 0 546 456" fill="none" xmlns="http://www.w3.org/2000/svg">
<g clip-path="url(#clip0_18_4487)">
<path d="M531.5 386.734C522 386.734 340.991 386.734 340.991 386.734L352.311 439.561C352.311 447.897 345.553 454.655 337.218 454.655H208.922C200.587 454.655 193.829 447.897 193.829 439.561L205.149 386.734H16.479C8.14301 386.734 1.38501 379.975 1.38501 371.639V16.9399C1.38501 8.60495 8.14201 1.84595 16.479 1.84595H529.662C537.998 1.84595 544.757 8.60395 544.757 16.9399C544.757 16.9399 544.757 352.5 544.757 366" stroke="#231F20" stroke-width="2" stroke-miterlimit="10"/>
<path d="M522.115 307.492C367.386 307.492 24.0249 307.492 24.0249 307.492V24.4869H522.115V307.492Z" stroke="#231F20" stroke-width="2" stroke-miterlimit="10"/>
<path d="M273.07 352.773C279.322 352.773 284.39 347.705 284.39 341.453C284.39 335.201 279.322 330.133 273.07 330.133C266.818 330.133 261.75 335.201 261.75 341.453C261.75 347.705 266.818 352.773 273.07 352.773Z" stroke="#231F20" stroke-width="2" stroke-miterlimit="10"/>
<path d="M171.188 47.127H46.666V81.087H171.188V47.127Z" stroke="#231F20" stroke-width="2" stroke-miterlimit="10"/>
<path d="M488.154 47.127H454.193V81.087H488.154V47.127Z" stroke="#231F20" stroke-width="2" stroke-miterlimit="10"/>
<path d="M490.666 137.969H46.666V171.969H490.666V137.969Z" stroke="#231F20" stroke-width="2" stroke-miterlimit="10"/>
<path d="M490.666 193.969H46.666V227.969H490.666V193.969Z" stroke="#231F20" stroke-width="2" stroke-miterlimit="10"/>
<path d="M346 251H200V282H346V251Z" stroke="#231F20" stroke-width="2" stroke-miterlimit="10"/>
<path d="M178 251H47V282H178V251Z" stroke="#231F20" stroke-width="2" stroke-miterlimit="10"/>
<path d="M491 251H364V282H491V251Z" stroke="#231F20" stroke-width="2" stroke-miterlimit="10"/>
</g>
<defs>
<clipPath id="clip0_18_4487">
<rect width="546" height="456" fill="white"/>
</clipPath>
</defs>
</svg>
