<svg width="19" height="17" viewBox="0 0 19 17" fill="none" xmlns="http://www.w3.org/2000/svg">
<path id="Vector" d="M9.9372 2.10872L9.68402 2.37176L9.33507 2.7343L8.97482 2.38332L8.71226 2.1275L8.71188 2.12714C6.9553 0.412099 4.15633 0.265091 2.37527 1.88346L9.9372 2.10872ZM9.9372 2.10872C9.9374 2.10851 9.9376 2.1083 9.93781 2.10809C11.6418 0.351776 14.4215 0.125006 16.2468 1.67385L16.2513 1.67873L16.2727 1.69715C18.2928 3.43308 18.4041 6.49711 16.5779 8.38166L16.5778 8.38183L16.1988 8.77327L16.1988 8.77329L9.80535 15.3771L9.80463 15.3779C9.63668 15.5521 9.35999 15.5576 9.18255 15.3848C9.18242 15.3847 9.1823 15.3846 9.18217 15.3844L2.62505 8.95843L2.62503 8.95841L2.23648 8.57766C0.365779 6.74273 0.400827 3.67848 2.37519 1.88353L9.9372 2.10872Z" fill="#FD4957" stroke="#FD4957"/>
</svg>
