<svg width="24" height="24" viewBox="0 0 24 24" fill="none" xmlns="http://www.w3.org/2000/svg">
<path d="M10.8579 15.7679C10.8579 13.0542 13.0542 10.8579 15.7679 10.8579C17.0759 10.8579 18.2668 11.3753 19.1453 12.205C19.1941 11.8438 19.2234 11.4826 19.2234 11.102C19.2234 6.641 15.5824 3 11.1117 3C6.641 3 3 6.641 3 11.1117C3 12.7223 3.46855 14.2744 4.36659 15.6117L3.41974 18.3059C3.38069 18.423 3.41974 18.5597 3.50759 18.6475C3.59544 18.7354 3.7321 18.7549 3.84924 18.7061L6.32863 17.6421C7.73427 18.6768 9.38395 19.2137 11.1215 19.2137C11.4924 19.2137 11.8633 19.1844 12.2245 19.1356C11.385 18.257 10.8774 17.0662 10.8774 15.7581L10.8579 15.7679Z" fill="#5B637A"/>
<path d="M15.7682 21.0003C12.8886 21.0003 10.5361 18.6576 10.5361 15.7682C10.5361 12.8789 12.8789 10.5361 15.7682 10.5361C18.6576 10.5361 21.0003 12.8789 21.0003 15.7682C21.0003 16.7834 20.7075 17.7693 20.1511 18.6186L20.727 20.2585C20.7661 20.3756 20.727 20.5123 20.6392 20.6001C20.5416 20.688 20.4147 20.7075 20.2975 20.6587L18.804 20.0144C17.9157 20.6489 16.8713 20.9906 15.7682 20.9906V21.0003ZM15.7682 11.1901C13.24 11.1901 11.1804 13.2498 11.1804 15.778C11.1804 18.3062 13.24 20.3659 15.7682 20.3659C16.7834 20.3659 17.7498 20.034 18.56 19.4092C18.6478 19.3409 18.7747 19.3214 18.8821 19.3702L19.8778 19.7997L19.4873 18.6967C19.4483 18.599 19.4678 18.4917 19.5264 18.4038C20.0632 17.6327 20.3561 16.7249 20.3561 15.778C20.3561 13.2498 18.2964 11.1901 15.7682 11.1901Z" fill="#5B637A" stroke="#5B637A" stroke-width="0.5" stroke-miterlimit="10"/>
<path d="M17.8375 17.0651H13.972C13.7963 17.0651 13.6499 16.9187 13.6499 16.743C13.6499 16.5673 13.7963 16.4209 13.972 16.4209H17.8375C18.0132 16.4209 18.1597 16.5673 18.1597 16.743C18.1597 16.9187 18.0132 17.0651 17.8375 17.0651Z" fill="#5B637A"/>
<path d="M17.8375 15.3864H13.972C13.7963 15.3864 13.6499 15.24 13.6499 15.0643C13.6499 14.8886 13.7963 14.7422 13.972 14.7422H17.8375C18.0132 14.7422 18.1597 14.8886 18.1597 15.0643C18.1597 15.24 18.0132 15.3864 17.8375 15.3864Z" fill="#5B637A"/>
</svg>
