<svg width="18" height="18" viewBox="0 0 18 18" fill="none" xmlns="http://www.w3.org/2000/svg">
<path d="M2.57244 2.58658L11.4112 1.32389C11.6035 1.29643 11.7815 1.42999 11.809 1.62221C11.8113 1.63867 11.8125 1.65529 11.8125 1.67192V16.33C11.8125 16.5241 11.6551 16.6815 11.4609 16.6815C11.4443 16.6815 11.4277 16.6804 11.4112 16.678L2.57244 15.4153C2.22604 15.3658 1.96875 15.0691 1.96875 14.7193V3.28263C1.96875 2.93272 2.22604 2.63606 2.57244 2.58658ZM12.5156 2.67281H15.3281C15.7165 2.67281 16.0312 2.98762 16.0312 3.37594V14.626C16.0312 15.0143 15.7165 15.3291 15.3281 15.3291H12.5156V2.67281ZM7.73438 9.00096L9.70312 6.18844H8.01562L6.89062 7.79559L5.76562 6.18844H4.07812L6.04688 9.00096L4.07812 11.8135H5.76562L6.89062 10.2063L8.01562 11.8135H9.70312L7.73438 9.00096Z" fill="white"/>
</svg>
