<svg width="16" height="16" viewBox="0 0 16 16" fill="none" xmlns="http://www.w3.org/2000/svg">
<g clip-path="url(#clip0_320_176973)">
<path d="M14.1911 14.8211H1.85593C1.53267 14.8211 1.30493 14.5052 1.40778 14.204L1.71634 13.2857C1.97348 12.5143 2.69345 12 3.50159 12H12.5454C13.3535 12 14.0735 12.5216 14.3306 13.2857L14.6392 14.204C14.7421 14.5052 14.5143 14.8211 14.1911 14.8211Z" fill="#49BCBD"/>
<path d="M7.95725 2.30687C7.65604 2.30687 7.40625 2.05708 7.40625 1.75586V0.551003C7.40625 0.249788 7.65604 0 7.95725 0C8.25847 0 8.50826 0.249788 8.50826 0.551003V1.75586C8.50826 2.05708 8.25847 2.30687 7.95725 2.30687Z" fill="#49BCBD"/>
<path d="M4.63678 3.04128C4.4678 3.04128 4.29883 2.96047 4.18863 2.81354L3.54212 1.93193C3.3658 1.68949 3.41722 1.3442 3.65966 1.16053C3.90211 0.97686 4.2474 1.03563 4.43107 1.27808L5.07758 2.15968C5.2539 2.40212 5.20247 2.74742 4.96003 2.93108C4.86452 3.00455 4.74698 3.04128 4.63678 3.04128Z" fill="#49BCBD"/>
<path d="M11.1189 3.04128C11.0087 3.04128 10.8912 3.00455 10.7957 2.93108C10.5532 2.75476 10.4944 2.40947 10.6781 2.15968L11.3246 1.27808C11.5083 1.03563 11.8462 0.97686 12.096 1.16053C12.3385 1.33685 12.3972 1.68214 12.2136 1.93193L11.5671 2.81354C11.4569 2.96047 11.2879 3.04128 11.1189 3.04128Z" fill="#49BCBD"/>
<path d="M8.0222 2.66602C5.42147 2.66602 3.32031 4.77452 3.32031 7.36791V11.4527H12.7314V7.36791C12.7314 4.76717 10.6229 2.66602 8.02955 2.66602H8.0222ZM11.2768 7.75728C10.9756 7.75728 10.7258 7.5075 10.7258 7.20628C10.7258 5.89857 9.66052 4.84064 8.36015 4.84064C8.05894 4.84064 7.80915 4.59085 7.80915 4.28964C7.80915 3.98842 8.05894 3.73863 8.36015 3.73863C10.2776 3.73863 11.8278 5.29614 11.8278 7.20628C11.8278 7.5075 11.578 7.75728 11.2768 7.75728Z" fill="#49BCBD"/>
</g>
<defs>
<clipPath id="clip0_320_176973">
<rect width="16" height="16" fill="white"/>
</clipPath>
</defs>
</svg>
