<svg width="14" height="14" viewBox="0 0 14 14" fill="none" xmlns="http://www.w3.org/2000/svg">
<path d="M3.85672 14C2.82612 14 1.85779 13.5983 1.12854 12.8692C-0.376179 11.3647 -0.376179 8.91621 1.12854 7.41377L7.41259 1.13085C8.14185 0.401722 9.11017 0 10.1408 0C11.1714 0 12.1397 0.401722 12.8689 1.13085C13.5982 1.85997 14 2.82812 14 3.85854C14 4.88895 13.5982 5.85911 12.8689 6.58623L6.5849 12.8692C5.85564 13.5983 4.88732 14 3.85672 14ZM10.1408 0.903874C9.35125 0.903874 8.60994 1.21119 8.05144 1.76958L1.76739 8.05251C0.616251 9.20344 0.616251 11.0795 1.76739 12.2304C2.32588 12.7888 3.06719 13.0961 3.85672 13.0961C4.64624 13.0961 5.38755 12.7888 5.94604 12.2304L12.2301 5.94749C12.7886 5.3891 13.096 4.64792 13.096 3.85854C13.096 3.06915 12.7886 2.32798 12.2301 1.76958C11.6716 1.21119 10.9303 0.903874 10.1408 0.903874Z" fill="#5B637A"/>
<path d="M9.2508 9.70359C9.13428 9.70359 9.01977 9.6594 8.93137 9.57102L5.34335 5.98364C5.16656 5.80689 5.16656 5.52166 5.34335 5.34491C5.52014 5.16815 5.80542 5.16815 5.98221 5.34491L9.57022 8.93228C9.74701 9.10904 9.74701 9.39426 9.57022 9.57102C9.48183 9.6594 9.36531 9.70359 9.2508 9.70359Z" fill="#5B637A"/>
<path d="M11.4165 3.03501C11.2999 3.03501 11.1854 2.99082 11.097 2.90244C10.5687 2.37618 9.71085 2.37618 9.1845 2.90244C9.00771 3.0792 8.72244 3.0792 8.54565 2.90244C8.36886 2.72568 8.36886 2.44046 8.54565 2.2637C9.42558 1.38393 10.858 1.38393 11.7379 2.2637C11.9147 2.44046 11.9147 2.72568 11.7379 2.90244C11.6495 2.99082 11.533 3.03501 11.4185 3.03501H11.4165Z" fill="#5B637A"/>
</svg>
