<svg width="36" height="28" viewBox="0 0 36 28" fill="none" xmlns="http://www.w3.org/2000/svg">
<g id="Group 50">
<g id="Union">
<mask id="path-1-inside-1_53_14273" fill="white">
<path fill-rule="evenodd" clip-rule="evenodd" d="M10.2857 0C4.60507 0 0 4.60507 0 10.2857V19.0001V23H0.000286946L0.000645638 28.0001L8.88927 23H24.5C30.8513 23 36 17.8513 36 11.5C36 5.14873 30.8513 0 24.5 0H10.2857Z"/>
</mask>
<path d="M0 23H-1V24H0V23ZM0.000286946 23L1.00029 22.9999L1.00022 22H0.000286946V23ZM0.000645638 28.0001L-0.999354 28.0001L-0.999232 29.7099L0.490922 28.8716L0.000645638 28.0001ZM8.88927 23V22H8.62731L8.39899 22.1284L8.88927 23ZM1 10.2857C1 5.15736 5.15736 1 10.2857 1V-1C4.05279 -1 -1 4.05279 -1 10.2857H1ZM1 19.0001V10.2857H-1V19.0001H1ZM1 23V19.0001H-1V23H1ZM0.000286946 22H0V24H0.000286946V22ZM1.00065 28L1.00029 22.9999L-0.999713 23.0001L-0.999354 28.0001L1.00065 28ZM8.39899 22.1284L-0.489631 27.1285L0.490922 28.8716L9.37955 23.8716L8.39899 22.1284ZM24.5 22H8.88927V24H24.5V22ZM35 11.5C35 17.299 30.299 22 24.5 22V24C31.4036 24 37 18.4036 37 11.5H35ZM24.5 1C30.299 1 35 5.70101 35 11.5H37C37 4.59644 31.4036 -1 24.5 -1V1ZM10.2857 1H24.5V-1H10.2857V1Z" fill="#222222" mask="url(#path-1-inside-1_53_14273)"/>
</g>
<circle id="Ellipse 12" cx="11" cy="11" r="1.5" fill="#222222" stroke="#222222"/>
<circle id="Ellipse 13" cx="17" cy="11" r="1.5" fill="#222222" stroke="#222222"/>
<circle id="Ellipse 14" cx="24" cy="11" r="1.5" fill="#222222" stroke="#222222"/>
</g>
</svg>
