<svg width="57" height="43" viewBox="0 0 57 43" fill="none" xmlns="http://www.w3.org/2000/svg">
<circle cx="18.5" cy="11.5" r="9.5" stroke="#222222" stroke-width="3"/>
<path d="M30 30.5715C26.9569 27.7384 22.8394 26 18.3068 26C10.5658 26 4.03689 31.0703 2 38" stroke="#222222" stroke-width="3" stroke-miterlimit="10" stroke-linecap="round"/>
<path d="M29.4383 23.8594H33.0711L36.9969 33.4492H37.1531L41.0789 23.8594H44.7117V38H41.8602V28.7422H41.743L38.0516 37.9414H36.0984L32.407 28.7031H32.2898V38H29.4383V23.8594ZM48.3352 41.9844C47.7687 41.9844 47.2414 41.9648 46.8703 41.9258V39.6797C47.2414 39.6992 47.6711 39.7188 48.0422 39.7188C48.6086 39.7188 49.0773 39.6602 49.4289 38.7422L49.6047 38.293L45.7961 27.3945H48.8234L51.05 35.207H51.1672L53.4133 27.3945H56.4797L52.3391 39.1719C51.7336 40.8711 50.5812 41.9844 48.3352 41.9844Z" fill="#222222"/>
</svg>
