<svg width="16" height="16" viewBox="0 0 16 16" fill="none" xmlns="http://www.w3.org/2000/svg">
<g clip-path="url(#clip0_655_54524)">
<path d="M8.00068 0.667969C3.58237 0.667969 0 3.43066 0 6.8376C0 9.87462 2.84599 12.3962 6.59337 12.9103L6.00017 16.0013L9.783 12.8507C13.3422 12.2258 16 9.77209 16 6.8376C16 3.43066 12.419 0.667969 8.00068 0.667969ZM4.09103 8.18431C3.35873 8.18431 2.76417 7.58162 2.76417 6.83622C2.76417 6.09082 3.35737 5.48812 4.09103 5.48812C4.82468 5.48812 5.41788 6.0922 5.41788 6.83622C5.41788 7.58023 4.82468 8.18431 4.09103 8.18431ZM8.00068 8.18431C7.26839 8.18431 6.67383 7.58162 6.67383 6.83622C6.67383 6.09082 7.26702 5.48812 8.00068 5.48812C8.73434 5.48812 9.32754 6.0922 9.32754 6.83622C9.32754 7.58023 8.73434 8.18431 8.00068 8.18431ZM11.9103 8.18431C11.178 8.18431 10.5835 7.58162 10.5835 6.83622C10.5835 6.09082 11.1767 5.48812 11.9103 5.48812C12.644 5.48812 13.2372 6.0922 13.2372 6.83622C13.2372 7.58023 12.644 8.18431 11.9103 8.18431Z" fill="white"/>
</g>
<defs>
<clipPath id="clip0_655_54524">
<rect width="16" height="16" fill="white"/>
</clipPath>
</defs>
</svg>
