<svg width="23" height="26" viewBox="0 0 23 26" fill="none" xmlns="http://www.w3.org/2000/svg">
<path d="M2.37779 18.9803C2.75908 17.8663 2.81355 16.7185 2.88956 15.5836C2.96556 14.4397 2.9605 13.288 2.96176 12.1401C2.96936 7.35018 6.24392 3.7379 10.3419 3.15101C10.4635 3.13413 10.5762 3.05492 10.7979 2.96014C10.8296 2.5732 10.8549 2.14601 10.9018 1.72012C10.9461 1.31501 11.1805 1.08648 11.5782 1.05142C11.9886 1.01507 12.2509 1.24099 12.3256 1.62663C12.4092 2.05382 12.4231 2.49529 12.4725 2.97442C12.6271 3.04064 12.774 3.14192 12.9311 3.16269C16.9733 3.72492 20.2517 7.55014 20.2276 11.9558C20.2175 13.7606 20.372 15.568 20.4835 17.3716C20.5164 17.8922 20.6634 18.4064 20.7647 18.957C21.1245 19.0505 21.4956 19.0621 21.7616 19.24C21.9757 19.3829 22.1987 19.7464 22.167 19.975C22.1341 20.2139 21.8351 20.4904 21.5881 20.5995C21.3309 20.7125 20.9965 20.6553 20.6963 20.6566C19.4055 20.6605 18.1147 20.6579 16.7516 20.6579C16.6136 20.9864 16.4679 21.2955 16.3513 21.6149C15.6103 23.6327 14.094 24.9831 11.734 25.0454C9.41207 25.1064 7.78936 23.9131 6.85449 21.6188C6.74049 21.3383 6.64928 21.0475 6.50994 20.6592C5.26219 20.6592 4.01823 20.6592 2.77555 20.6592C2.43099 20.6592 2.08517 20.6696 1.74188 20.6398C1.34919 20.606 1.10977 20.3684 1.0819 19.9581C1.0553 19.5633 1.21745 19.2647 1.6 19.1452C1.84069 19.0699 2.09404 19.0388 2.37652 18.9816L2.37779 18.9803ZM4.13478 18.8752C4.32099 18.9855 4.39319 19.0647 4.4654 19.066C9.03204 19.0803 13.5987 19.0894 18.1653 19.0946C18.4225 19.0946 18.6796 19.0673 18.9368 19.0453C18.9722 19.0427 19.0077 18.9959 19.0369 18.9648C19.0647 18.9349 19.0837 18.8972 19.1027 18.8687C18.9786 17.6832 18.8139 16.5055 18.7442 15.3226C18.6746 14.1333 18.705 12.9387 18.6809 11.7467C18.615 8.51099 16.2956 5.54923 13.2769 4.80393C9.8909 3.96773 6.62141 5.89462 5.39266 8.42009C4.80109 9.63674 4.549 10.9014 4.49327 12.2388C4.4198 13.9995 4.31719 15.7602 4.22345 17.5196C4.19811 17.9922 4.16264 18.4636 4.13604 18.8752H4.13478ZM8.38473 20.8306C8.68748 22.5446 10.0429 23.5249 11.9532 23.408C13.4973 23.3133 14.6678 22.2161 14.7502 20.7865C13.4378 20.5826 9.32593 20.6112 8.386 20.8306H8.38473Z" fill="black" stroke="black" stroke-width="0.5"/>
</svg>
