<svg width="14" height="15" viewBox="0 0 14 15" fill="none" xmlns="http://www.w3.org/2000/svg">
<g id="Group 48096018">
<path id="Vector" d="M12.4841 10.0163C13.0813 10.0163 13.5605 9.53708 13.5605 8.93991C13.5605 8.34274 13.1182 7.90039 12.5579 7.86353V7.84141C12.6316 7.85615 12.6979 7.86353 12.7717 7.86353C13.6859 7.86353 14.3346 6.72079 13.3688 5.77711C13.3246 5.73287 13.2583 5.71076 13.1919 5.71076H7.64778C7.64778 5.71076 8.26707 3.6612 8.24495 2.57745C8.23758 2.17196 8.13436 1.73698 8.0164 1.27989C7.87633 0.763811 7.33813 0.667969 7.03586 0.667969C6.73359 0.667969 6.25438 0.940751 6.1954 1.41996C6.12167 1.98027 6.10693 2.48898 5.99634 2.91658C5.72356 3.96348 4.69141 6.50699 4.69141 6.50699L4.74301 14.0712C4.74301 14.2112 4.86097 14.3292 5.00105 14.3292H12.3293C12.3957 14.3292 12.4546 14.3071 12.5063 14.2555C13.3983 13.3929 12.9191 12.3534 12.1229 12.1912V12.1691C12.1229 12.1691 12.1745 12.1691 12.1966 12.1691C12.7938 12.1691 13.273 11.6899 13.273 11.0927C13.273 10.5471 12.8675 10.0974 12.3367 10.0237V10.0016C12.3883 10.0016 12.4325 10.0089 12.4768 10.0089L12.4841 10.0163Z" fill="#49BCBD"/>
<path id="Vector_2" d="M3.77631 5.44531H0.687231C0.504004 5.44531 0.355469 5.59385 0.355469 5.77707V14.2628C0.355469 14.446 0.504004 14.5946 0.687231 14.5946H3.77631C3.95954 14.5946 4.10807 14.446 4.10807 14.2628V5.77707C4.10807 5.59385 3.95954 5.44531 3.77631 5.44531Z" fill="#49BCBD"/>
</g>
</svg>
