<svg width="29" height="30" viewBox="0 0 29 30" fill="none" xmlns="http://www.w3.org/2000/svg">
<path fill-rule="evenodd" clip-rule="evenodd" d="M18.403 0.0682307L1.805 1.29123C0.466 1.40623 0 2.28023 0 3.32623V21.4812C0 22.2972 0.29 22.9942 0.99 23.9252L4.892 28.9882C5.532 29.8032 6.115 29.9782 7.339 29.9182L26.614 28.7552C28.244 28.6392 28.711 27.8822 28.711 26.6022V6.17823C28.711 5.51623 28.449 5.32523 27.677 4.76223C27.633 4.72994 27.589 4.6976 27.545 4.66523L22.247 0.941231C20.966 0.0112306 20.44 -0.106769 18.403 0.0682307ZM7.776 5.84323C6.202 5.94923 5.845 5.97323 4.951 5.24723L2.678 3.44323C2.446 3.21023 2.563 2.91923 3.145 2.86223L19.102 1.69823C20.441 1.58123 21.14 2.04823 21.664 2.45423L24.401 4.43323C24.517 4.49123 24.808 4.84023 24.459 4.84023L7.979 5.83023L7.776 5.84323ZM5.94 26.4272V9.08723C5.94 8.33123 6.173 7.98223 6.872 7.92323L25.798 6.81823C26.44 6.76023 26.731 7.16823 26.731 7.92323V25.1462C26.731 25.9042 26.614 26.5442 25.565 26.6022L7.455 27.6502C6.405 27.7082 5.94 27.3602 5.94 26.4272ZM23.82 10.0172C23.936 10.5422 23.82 11.0662 23.294 11.1252L22.422 11.2992V24.0992C21.664 24.5072 20.965 24.7392 20.383 24.7392C19.451 24.7392 19.218 24.4492 18.519 23.5762L12.812 14.6162V23.2862L14.618 23.6932C14.618 23.6932 14.618 24.7402 13.16 24.7402L9.143 24.9732C9.026 24.7402 9.143 24.1582 9.551 24.0422L10.599 23.7522V12.2872L9.143 12.1702C9.027 11.6462 9.317 10.8902 10.133 10.8322L14.443 10.5422L20.383 19.6192V11.5892L18.869 11.4152C18.752 10.7742 19.218 10.3082 19.8 10.2512L23.82 10.0172Z" fill="#94A3B8"/>
</svg>
