<svg width="27" height="27" viewBox="0 0 27 27" fill="none" xmlns="http://www.w3.org/2000/svg">
<path d="M19.2127 0H7.79388C3.48725 0 0 3.48641 0 7.79199V19.208C0 23.5136 3.48725 27 7.79388 27H19.2061C23.5127 27 27 23.5136 27 19.208V7.79199C27 3.48641 23.5127 0 19.2061 0M24.5222 19.4112C24.5222 22.2684 22.2083 24.5818 19.3503 24.5818H7.66278C4.80481 24.5818 2.4909 22.2619 2.4909 19.4112V7.72646C2.4909 4.86917 4.80481 2.55583 7.66278 2.55583H19.3438C22.2017 2.55583 24.5157 4.87573 24.5157 7.72646V19.4046L24.5222 19.4112Z" fill="#222222"/>
<path d="M13.5033 6.55995C9.63583 6.55995 6.49599 9.69903 6.49599 13.5655C6.49599 17.432 9.63583 20.5711 13.5033 20.5711C17.3707 20.5711 20.5106 17.432 20.5106 13.5655C20.5106 9.69903 17.3707 6.55995 13.5033 6.55995ZM13.5033 18.107C10.9927 18.107 8.96067 16.0755 8.96067 13.5655C8.96067 11.0556 10.9927 9.02403 13.5033 9.02403C16.0138 9.02403 18.0459 11.0556 18.0459 13.5655C18.0459 16.0755 16.0138 18.107 13.5033 18.107Z" fill="#222222"/>
<path d="M20.7465 4.66602C19.842 4.66602 19.1143 5.4 19.1143 6.29782C19.1143 7.19563 19.842 7.92961 20.7465 7.92961C21.6511 7.92961 22.3787 7.19563 22.3787 6.29782C22.3787 5.4 21.6511 4.66602 20.7465 4.66602Z" fill="#222222"/>
</svg>
