<svg width="27" height="25" viewBox="0 0 27 25" fill="none" xmlns="http://www.w3.org/2000/svg">
<g clip-path="url(#clip0_29_12365)">
<path d="M12.9067 25C5.88097 25 0.167969 19.3941 0.167969 12.5C0.167969 5.60593 5.88097 0 12.9067 0C14.9622 0 17.0047 0.491525 18.814 1.42373C19.3797 1.7161 19.6 2.40254 19.302 2.95763C19.004 3.51271 18.3045 3.72881 17.7388 3.43644C16.2404 2.66525 14.6124 2.27542 12.9067 2.27542C7.15917 2.27542 2.48253 6.86441 2.48253 12.5042C2.48253 18.1441 7.15917 22.7331 12.9067 22.7331C18.6543 22.7331 23.3309 18.1441 23.3309 12.5042C23.3309 11.7669 23.2489 11.0297 23.0934 10.3136C22.9552 9.69915 23.3525 9.09322 23.9786 8.96186C24.6048 8.82627 25.2223 9.2161 25.3561 9.83051C25.5505 10.7034 25.6498 11.6017 25.6498 12.5042C25.6498 19.3983 19.9368 25.0042 12.911 25.0042L12.9067 25Z" fill="#9598A0"/>
<path d="M13.2313 17.4708C12.5792 17.4708 11.9617 17.242 11.4695 16.8183L6.20122 12.2675C5.7219 11.8522 5.6744 11.1361 6.09759 10.6658C6.52077 10.1954 7.25055 10.1488 7.72987 10.5641L12.9981 15.1149C13.0888 15.1954 13.1924 15.2081 13.2615 15.2039C13.3306 15.1997 13.4299 15.1742 13.5076 15.0852L24.1348 3.06406C24.5537 2.58949 25.2834 2.53864 25.7671 2.94966C26.2507 3.36067 26.3025 4.07677 25.8837 4.55135L15.2522 16.5683C14.7772 17.1022 14.1252 17.4158 13.4083 17.4624C13.3479 17.4624 13.2874 17.4666 13.2313 17.4666V17.4708Z" fill="#9598A0"/>
</g>
<defs>
<clipPath id="clip0_29_12365">
<rect width="26" height="25" fill="white" transform="translate(0.167969)"/>
</clipPath>
</defs>
</svg>
