<svg width="24" height="27" viewBox="0 0 24 27" fill="none" xmlns="http://www.w3.org/2000/svg">
<g id="Group 48096017">
<path id="Vector" d="M19.1148 8.90571C21.1156 8.90571 22.7375 7.24789 22.7375 5.20286C22.7375 3.15783 21.1156 1.5 19.1148 1.5C17.1141 1.5 15.4922 3.15783 15.4922 5.20286C15.4922 7.24789 17.1141 8.90571 19.1148 8.90571Z" stroke="#5B637A" stroke-width="1.5" stroke-linecap="round" stroke-linejoin="round"/>
<path id="Vector_2" d="M4.62264 17.5463C6.62337 17.5463 8.24528 15.8885 8.24528 13.8435C8.24528 11.7985 6.62337 10.1406 4.62264 10.1406C2.62191 10.1406 1 11.7985 1 13.8435C1 15.8885 2.62191 17.5463 4.62264 17.5463Z" stroke="#5B637A" stroke-width="1.5" stroke-linecap="round" stroke-linejoin="round"/>
<path id="Vector_3" d="M19.1148 26.187C21.1156 26.187 22.7375 24.5291 22.7375 22.4841C22.7375 20.4391 21.1156 18.7812 19.1148 18.7812C17.1141 18.7812 15.4922 20.4391 15.4922 22.4841C15.4922 24.5291 17.1141 26.187 19.1148 26.187Z" stroke="#5B637A" stroke-width="1.5" stroke-linecap="round" stroke-linejoin="round"/>
<path id="Vector_4" d="M7.74609 15.7109L16.0027 20.6172" stroke="#5B637A" stroke-width="1.5" stroke-linecap="round" stroke-linejoin="round"/>
<path id="Vector_5" d="M15.9876 7.07031L7.74609 11.9766" stroke="#5B637A" stroke-width="1.5" stroke-linecap="round" stroke-linejoin="round"/>
</g>
</svg>
