<svg width="21" height="20" viewBox="0 0 21 20" fill="none" xmlns="http://www.w3.org/2000/svg">
<path id="Star 15" d="M10.4522 0.8987C10.6362 0.529228 11.1634 0.529229 11.3474 0.8987L14.0452 6.31576C14.1183 6.4627 14.259 6.56436 14.4215 6.58775L20.4464 7.45534C20.8579 7.5146 21.0215 8.021 20.7225 8.30985L16.3686 12.5156C16.2495 12.6307 16.1951 12.7973 16.2233 12.9605L17.2519 18.9036C17.3225 19.3115 16.8953 19.6236 16.5282 19.4323L11.1308 16.6203C10.986 16.5449 10.8136 16.5449 10.6688 16.6203L5.27138 19.4323C4.90431 19.6236 4.4771 19.3115 4.54768 18.9036L5.57628 12.9605C5.60453 12.7973 5.55012 12.6307 5.43099 12.5156L1.07711 8.30985C0.778077 8.021 0.941709 7.5146 1.35322 7.45534L7.37815 6.58775C7.54063 6.56436 7.68127 6.4627 7.75445 6.31576L10.4522 0.8987Z" fill="#38475D"/>
</svg>
