<svg width="25" height="24" viewBox="0 0 25 24" fill="none" xmlns="http://www.w3.org/2000/svg">
<path d="M17.9727 20.652L17.8352 21.1327L17.9727 20.6519C17.0062 20.3755 15.9802 20.8292 15.5344 21.7302C15.2255 22.3545 14.4157 22.5283 13.8777 22.0859L13.5601 22.472L13.8777 22.0858L13.8443 22.0583C13.0632 21.4159 11.9368 21.4159 11.1557 22.0583L11.4734 22.4445L11.1557 22.0583L11.1223 22.0859C10.5843 22.5283 9.7745 22.3545 9.46559 21.7302C9.01977 20.8292 7.9938 20.3755 7.02732 20.6519L7.16482 21.1327L7.02731 20.652L6.91102 20.6852C6.26543 20.8699 5.61922 20.3954 5.60203 19.7242C5.57635 18.7219 4.82174 17.889 3.82684 17.7648L3.70876 17.75C3.05407 17.6683 2.66143 16.9807 2.9238 16.3753C3.32366 15.4527 2.97212 14.3768 2.10468 13.8684L2.0717 13.849L2.0717 13.849C1.49628 13.5117 1.41285 12.7089 1.9092 12.2582C2.65506 11.5809 2.77741 10.4494 2.18849 9.62964C1.80243 9.09222 2.04583 8.33458 2.67266 8.12257L2.75423 8.09498C3.70475 7.77349 4.27094 6.79853 4.0791 5.81362C3.95231 5.16265 4.48039 4.5698 5.14163 4.62078L5.27253 4.63087C6.27284 4.70799 7.18255 4.05134 7.42435 3.07763C7.58902 2.41452 8.33118 2.08071 8.93657 2.39746L9.01618 2.43912C9.90941 2.90648 11.0086 2.67446 11.6368 1.88597C12.0786 1.33135 12.9214 1.33135 13.3632 1.88597C13.9914 2.67446 15.0906 2.90648 15.9838 2.43912L16.0634 2.39746C16.6688 2.08071 17.411 2.41452 17.5757 3.07763C17.8174 4.05134 18.7272 4.70799 19.7275 4.63087L19.8584 4.62078C20.5196 4.5698 21.0477 5.16265 20.9209 5.81362C20.7291 6.79853 21.2953 7.77349 22.2458 8.09498L22.3273 8.12257C22.9542 8.33458 23.1976 9.09222 22.8115 9.62964C22.2226 10.4494 22.3449 11.5809 23.0908 12.2582C23.5871 12.7089 23.5037 13.5117 22.9283 13.849L23.1812 14.2804L22.9283 13.849L22.8953 13.8684C22.0279 14.3768 21.6763 15.4527 22.0762 16.3753C22.3386 16.9807 21.9459 17.6683 21.2912 17.75L21.1732 17.7648C20.1783 17.889 19.4236 18.7219 19.398 19.7242C19.3808 20.3954 18.7346 20.8699 18.089 20.6852L17.9727 20.652Z" stroke="white"/>
<path d="M8 12.0589L11.3285 15L17 9" stroke="white" stroke-width="2" stroke-linecap="round"/>
</svg>
