<svg width="16" height="16" viewBox="0 0 16 16" fill="none" xmlns="http://www.w3.org/2000/svg">
<path d="M2.858 14.0228C2.858 14.7458 3.434 15.334 4.142 15.334H11.858C12.566 15.334 13.142 14.7458 13.142 14.0228V4.83245H2.858V14.0228ZM10.142 7.02589C10.142 6.78694 10.334 6.59088 10.568 6.59088C10.802 6.59088 10.994 6.78694 10.994 7.02589V13.1528C10.994 13.3918 10.802 13.5878 10.568 13.5878C10.334 13.5878 10.142 13.3918 10.142 13.1528V7.02589ZM7.568 7.02589C7.568 6.78694 7.76 6.59088 7.994 6.59088C8.228 6.59088 8.42 6.78694 8.42 7.02589V13.1528C8.42 13.3918 8.228 13.5878 7.994 13.5878C7.76 13.5878 7.568 13.3918 7.568 13.1528V7.02589ZM4.994 7.02589C4.994 6.78694 5.186 6.59088 5.42 6.59088C5.654 6.59088 5.846 6.78694 5.846 7.02589V13.1528C5.846 13.3918 5.654 13.5878 5.42 13.5878C5.186 13.5878 4.994 13.3918 4.994 13.1528V7.02589ZM13.574 2.21013H10.358L10.106 1.7016C9.998 1.4749 9.776 1.33398 9.53 1.33398H6.47C6.224 1.33398 6.002 1.4749 5.894 1.69547L5.642 2.20401H2.426C2.192 2.20401 2 2.40007 2 2.63902V3.51517C2 3.75412 2.192 3.95018 2.426 3.95018H13.574C13.808 3.95018 14 3.75412 14 3.51517V2.63902C14 2.40007 13.808 2.20401 13.574 2.20401V2.21013Z" fill="#49BCBD"/>
</svg>
