<svg width="24" height="24" viewBox="0 0 24 24" fill="none" xmlns="http://www.w3.org/2000/svg">
<path d="M19.5112 1.60156H4.48899C2.8935 1.60156 1.6001 2.89496 1.6001 4.49046V19.5127C1.6001 21.1082 2.8935 22.4016 4.48899 22.4016H19.5112C21.1067 22.4016 22.4001 21.1082 22.4001 19.5127V4.49046C22.4001 2.89496 21.1067 1.60156 19.5112 1.60156Z" stroke="#5B637A" stroke-width="1.5" stroke-linecap="round" stroke-linejoin="round"/>
<path d="M10.267 6.80469H6.80029V10.2714H10.267V6.80469Z" stroke="#5B637A" stroke-width="1.5" stroke-linecap="round" stroke-linejoin="round"/>
<path d="M10.267 13.7344H6.80029V17.201H10.267V13.7344Z" stroke="#5B637A" stroke-width="1.5" stroke-linecap="round" stroke-linejoin="round"/>
<path d="M17.2001 6.80469H13.7334V10.2714H17.2001V6.80469Z" stroke="#5B637A" stroke-width="1.5" stroke-linecap="round" stroke-linejoin="round"/>
<path d="M13.7912 13.7344H13.7334" stroke="#5B637A" stroke-width="1.5" stroke-linecap="round" stroke-linejoin="round"/>
<path d="M13.7912 17.2031H13.7334" stroke="#5B637A" stroke-width="1.5" stroke-linecap="round" stroke-linejoin="round"/>
<path d="M17.2002 17.2021V15.4688H15.438" stroke="#5B637A" stroke-width="1.5" stroke-linecap="round" stroke-linejoin="round"/>
</svg>
