<svg width="15" height="14" viewBox="0 0 15 14" fill="none" xmlns="http://www.w3.org/2000/svg">
<path d="M15 5.46753C15 6.76073 14.486 8.04234 13.5466 9.09048V13.0396C13.5466 13.2681 13.356 13.4536 13.1212 13.4536C12.8863 13.4536 12.6957 13.2681 12.6957 13.0396V8.93318C12.6957 8.82886 12.7349 8.72951 12.808 8.65334C13.6726 7.73601 14.1491 6.60509 14.1491 5.46753C14.1491 2.90928 12.0167 0.829568 9.39757 0.829568C7.05585 0.829568 5.03407 2.53341 4.6937 4.79361C4.6937 4.80355 4.6903 4.81183 4.6886 4.82176C4.65967 4.95092 4.64605 5.09001 4.64435 5.24731C4.64435 5.30526 4.63073 5.36156 4.60691 5.41455C4.21889 6.24908 3.69643 7.38001 3.3901 8.04069L4.23421 8.08208C4.46906 8.09367 4.64945 8.2874 4.63924 8.51591L4.62903 8.73779C4.64775 11.0444 5.0596 11.6471 6.6389 11.6471L7.15966 11.6504C7.39451 11.6504 7.58341 11.8375 7.58341 12.0643V13.3178C7.58341 13.5463 7.39281 13.7318 7.15796 13.7318C6.9231 13.7318 6.7325 13.5463 6.7325 13.3178V12.4766H6.6372C4.09806 12.4766 3.80875 10.7993 3.77982 8.89012L2.72809 8.83879C2.50174 8.8272 2.32305 8.64506 2.32305 8.42484C2.32305 8.35971 2.81431 7.26852 3.79684 5.15127C3.80194 4.97741 3.82236 4.81679 3.8547 4.6628C4.25633 2.00189 6.6389 0 9.39587 0C12.4864 0 15 2.45228 15 5.46753ZM6.15728 6.06363C6.15728 6.40307 6.43978 6.67794 6.79036 6.67794C7.14094 6.67794 7.42174 6.40307 7.42174 6.06363C7.42174 5.72419 7.13924 5.44932 6.79036 5.44932C6.44148 5.44932 6.15728 5.72419 6.15728 6.06363ZM3.19439 10.3837C0.498685 11.2911 0.520809 13.5761 0.522511 13.5976C0.527616 13.8013 0.697799 13.9619 0.905423 13.9619C0.907125 13.9619 0.910528 13.9619 0.91223 13.9619C1.12326 13.9586 1.29174 13.7881 1.28834 13.5827C1.28834 13.5115 1.29174 11.8127 3.44456 11.0891C3.64537 11.0212 3.75089 10.8092 3.68111 10.6138C3.61134 10.4185 3.3918 10.3158 3.19269 10.3837H3.19439ZM3.07015 11.7249C1.79038 12.1008 1.68486 13.543 1.68146 13.6043C1.66955 13.8096 1.82952 13.9868 2.04054 14C2.04905 14 2.05586 14 2.06437 14C2.26519 14 2.43367 13.8477 2.44728 13.649C2.44728 13.639 2.51706 12.6654 3.29139 12.4386C3.49391 12.3789 3.60963 12.1703 3.54837 11.9733C3.4871 11.7762 3.27267 11.6636 3.07015 11.7232V11.7249ZM0.747152 11.7795C0.830542 11.5461 1.09603 11.041 1.39385 10.9665C1.59977 10.9152 1.7223 10.7115 1.66955 10.5128C1.61679 10.3125 1.40746 10.1933 1.20324 10.2446C0.425506 10.4383 0.0596121 11.4285 0.0204699 11.5411C-0.0476034 11.7365 0.0596121 11.9468 0.260428 12.013C0.301272 12.0263 0.343818 12.0329 0.384662 12.0329C0.544634 12.0329 0.692694 11.9352 0.747152 11.7812V11.7795Z" fill="#5B637A"/>
</svg>
