<svg width="24" height="24" viewBox="0 0 24 24" fill="none" xmlns="http://www.w3.org/2000/svg">
<path d="M20 11.1429C20 10.5105 19.4895 10 18.8571 10C18.2248 10 17.7143 10.5105 17.7143 11.1429C17.7143 14.2946 15.1517 16.8571 12 16.8571C8.84825 16.8571 6.28571 14.2946 6.28571 11.1429C6.28571 10.5105 5.77524 10 5.14286 10C4.51048 10 4 10.5105 4 11.1429C4 15.1657 6.98667 18.5029 10.8571 19.059V19.9225H9.71429C9.0819 19.9225 8.57143 20.433 8.57143 21.0654C8.57143 21.6978 9.0819 22.2083 9.71429 22.2083H14.2857C14.9181 22.2083 15.4286 21.6978 15.4286 21.0654C15.4286 20.433 14.9181 19.9225 14.2857 19.9225H13.1429V19.059C17.0133 18.5029 20 15.1657 20 11.1429Z" fill="#5B637A"/>
<path d="M11.9997 15.5441C14.5216 15.5441 16.5711 13.4921 16.5711 10.9727V6.57143C16.5711 4.05206 14.5216 2 11.9997 2C9.47775 2 7.42822 4.05206 7.42822 6.57143V10.9727C7.42822 13.4921 9.47775 15.5441 11.9997 15.5441Z" fill="#5B637A"/>
</svg>
