<svg width="24" height="24" viewBox="0 0 24 24" fill="none" xmlns="http://www.w3.org/2000/svg">
<path d="M20.2203 15.0225C21.1161 15.0225 21.8349 14.3037 21.8349 13.4079C21.8349 12.5122 21.1714 11.8486 20.3309 11.7933V11.7602C20.4415 11.7823 20.541 11.7933 20.6516 11.7933C22.0229 11.7933 22.9961 10.0792 21.5474 8.66371C21.481 8.59736 21.3815 8.56418 21.282 8.56418H12.9658C12.9658 8.56418 13.8947 5.48985 13.8616 3.86422C13.8505 3.25598 13.6957 2.60352 13.5187 1.91788C13.3086 1.14376 12.5013 1 12.0479 1C11.5945 1 10.8757 1.40917 10.7872 2.12799C10.6766 2.96846 10.6545 3.73151 10.4886 4.37292C10.0795 5.94326 8.53125 9.75853 8.53125 9.75853L8.60866 21.1048C8.60866 21.3149 8.7856 21.4919 8.99572 21.4919H19.9881C20.0876 21.4919 20.1761 21.4587 20.2535 21.3813C21.5916 20.0874 20.8728 18.5281 19.6785 18.2848V18.2516C19.6785 18.2516 19.7559 18.2516 19.7891 18.2516C20.6848 18.2516 21.4036 17.5328 21.4036 16.6371C21.4036 15.8187 20.7954 15.1441 19.9992 15.0336V15.0004C20.0766 15.0004 20.1429 15.0114 20.2093 15.0114L20.2203 15.0225Z" fill="#49BCBD"/>
<path d="M7.16251 8.16602H2.52889C2.25405 8.16602 2.03125 8.38882 2.03125 8.66366V21.3923C2.03125 21.6671 2.25405 21.8899 2.52889 21.8899H7.16251C7.43735 21.8899 7.66015 21.6671 7.66015 21.3923V8.66366C7.66015 8.38882 7.43735 8.16602 7.16251 8.16602Z" fill="#49BCBD"/>
</svg>
