<svg width="15" height="14" viewBox="0 0 15 14" fill="none" xmlns="http://www.w3.org/2000/svg">
<path d="M7.5 14C7.44887 14 7.39791 13.9871 7.35154 13.9612C7.05137 13.794 0 9.80037 0 4.32912C0 1.9421 1.7523 0 3.90626 0C5.40116 0 6.77096 0.865806 7.5 2.21475C8.22908 0.865806 9.59884 0 11.0937 0C13.2477 0 15 1.9421 15 4.32912C15 9.80037 7.94863 13.794 7.64846 13.9612C7.60209 13.9871 7.55109 14 7.5 14ZM3.90626 0.645141C2.09704 0.645141 0.624986 2.29774 0.624986 4.32912C0.624986 9.00194 6.48437 12.7012 7.49983 13.3068C8.51499 12.7009 14.375 8.99818 14.375 4.32912C14.375 2.29774 12.903 0.645141 11.0937 0.645141C9.8736 0.645141 8.38024 1.40482 7.7943 3.10179C7.7499 3.23031 7.63209 3.31617 7.49996 3.31617C7.36783 3.31617 7.25001 3.23035 7.20561 3.10179C6.61967 1.40477 5.12631 0.645141 3.90621 0.645141H3.90626Z" fill="#5B637A"/>
<path d="M7.13944 9.48392C7.12037 9.48392 7.101 9.48202 7.08163 9.47839C6.95391 9.45349 6.85444 9.3497 6.83186 9.21774L6.24883 5.82781L5.23779 7.43109C5.1801 7.52262 5.0817 7.57774 4.97593 7.57774H2.81254C2.63996 7.57774 2.50003 7.4333 2.50003 7.25515C2.50003 7.077 2.63996 6.93256 2.81254 6.93256H4.80643L6.15651 4.79186C6.22624 4.681 6.35473 4.62429 6.4806 4.65167C6.60634 4.67812 6.70367 4.78098 6.72596 4.9114L7.3029 8.26571L8.67557 5.94341C8.72576 5.85852 8.81121 5.80211 8.90704 5.79096C9.00441 5.78008 9.09853 5.8149 9.16581 5.88608L10.1558 6.93256H12.1875C12.3601 6.93256 12.5001 7.077 12.5001 7.25515C12.5001 7.4333 12.3601 7.57774 12.1875 7.57774H10.0242C9.93994 7.57774 9.85937 7.54262 9.80061 7.48055L8.9997 6.63377L7.40623 9.32935C7.34884 9.42655 7.2471 9.48388 7.13949 9.48388L7.13944 9.48392Z" fill="#5B637A"/>
</svg>
