<svg width="26" height="19" viewBox="0 0 26 19" fill="none" xmlns="http://www.w3.org/2000/svg">
<path d="M25.4601 2.96418C25.1586 1.79314 24.2821 0.878274 23.1602 0.563559C21.1338 0 13 0 13 0C13 0 4.86624 0 2.83981 0.563559C1.71791 0.878274 0.841424 1.79314 0.539914 2.96418C0 5.07935 0 9.5 0 9.5C0 9.5 0 13.9133 0.539914 16.0358C0.841424 17.2069 1.71791 18.1217 2.83981 18.4364C4.86624 19 13 19 13 19C13 19 21.1338 19 23.1602 18.4364C24.2821 18.1217 25.1586 17.2069 25.4601 16.0358C26 13.9206 26 9.5 26 9.5C26 9.5 26 5.08667 25.4601 2.96418ZM10.3986 13.5693V5.43066L17.151 9.5L10.3986 13.5693Z" fill="#222222"/>
</svg>
