<svg width="804" height="747" viewBox="0 0 804 747" fill="none" xmlns="http://www.w3.org/2000/svg">
<path fill-rule="evenodd" clip-rule="evenodd" d="M214.238 10.9633C180.795 16.8905 146.915 43.5543 132.372 75.3932C124.831 91.9019 121.014 108.425 118.489 135.501C116.902 152.517 115.451 160.209 112.095 169.41C107.27 182.637 102.325 189.75 83.2817 210.853C66.8965 229.011 61.0019 238.669 57.5778 252.965C53.6917 269.195 54.503 277.657 61.8498 297.492C64.2811 304.057 66.6375 311.701 67.0857 314.48C68.6555 324.213 65.8807 335.122 59.2404 345.319C56.2338 349.935 55.4873 351.882 55.2001 355.86C54.8737 360.365 55.0544 360.975 57.5547 363.824C59.0435 365.521 61.5882 367.389 63.2091 367.975C65.3234 368.741 66.0068 369.412 65.6293 370.354C58.9268 387.06 51.8101 416.158 50.2412 433.266C49.9293 436.666 49.5253 439.447 49.3438 439.447C49.1615 439.447 46.6287 438.63 43.7134 437.631C36.3725 435.114 27.6793 435.089 22.9112 437.572C13.3607 442.544 9.00084 457.077 10.1922 479.975C11.5472 506.044 23.0442 595.557 33.349 660.267C35.5076 673.824 45.1996 726.925 46.3313 731.392C47.0438 734.205 48.8138 735.241 49.5645 733.284C49.839 732.568 47.5431 718.437 44.4633 701.88C29.7203 622.626 14.0663 506.293 13.8541 474.404C13.6913 449.858 19.0943 439.499 32.0809 439.461C44.3372 439.425 60.0457 447.747 73.8027 461.564C97.7904 485.658 111.334 520.891 122.324 587.797C125.124 604.836 127.981 627.193 131.75 661.546C134.669 688.149 140.723 731.623 141.963 734.886C142.405 736.049 143.393 737 144.159 737C145.244 737 145.463 736.389 145.151 734.229C144.93 732.705 143.177 720.716 141.255 707.586C139.332 694.456 136.205 669.71 134.304 652.594C128.971 604.56 124.97 578.268 118.8 550.71C108.835 506.207 96.057 478.598 76.3789 459.057C69.1506 451.878 58.8075 443.926 54.5951 442.31C53.2835 441.806 53.1821 440.915 53.7028 434.487C54.9419 419.218 60.8638 393.602 66.6537 378.468L69.7446 370.388H73.8513C76.1096 370.388 79.9897 369.96 82.4738 369.437C91.1117 367.616 95.7076 364.619 107.863 352.872C132.393 329.171 142.202 323.102 173.953 311.986C184.243 308.384 195.032 304.28 197.929 302.868C215.08 294.506 229.802 273.868 234.299 251.879C235.018 248.362 236.006 239.428 236.493 232.027C237.187 221.495 237.859 217.139 239.587 211.991C242.604 202.993 246.38 196.179 251.383 190.702C256.588 185.005 261.651 181.577 277.456 173.049C305.244 158.057 314.012 152.246 322.412 143.262C325.19 140.292 328.701 135.796 330.215 133.271L332.968 128.68L332.441 138.911C331.497 157.257 328.335 175.766 321.685 201.873C312.521 237.842 303.898 255.093 291.943 261.374C288.671 263.093 286.918 263.382 280.012 263.35C273.166 263.318 271.027 262.947 266.157 260.944C262.99 259.642 259.849 258.7 259.179 258.851C256.585 259.435 239.318 296.871 234.934 311.415L233.051 317.664L230.753 316.14C221.7 310.133 206.052 301.329 204.428 301.329C200.489 301.329 202.61 303.811 209.919 307.759C249.065 328.898 270.453 355.931 290.955 410.177C293.761 417.601 300.847 438.062 306.7 455.647C323.315 505.551 342.871 559.012 349.91 573.768C351.794 577.716 353.102 579.336 355.065 580.149C357.102 580.993 363.494 581.121 383.407 580.716C420.318 579.966 447.372 577.751 484.182 572.465C501.912 569.919 504.465 569.949 509.909 572.772C518.157 577.049 525.546 595.057 525.677 611.201C525.775 623.482 522.702 628.456 513.088 631.565C488.292 639.584 403.657 656.878 366.145 661.59C350.767 663.522 332.315 662.978 324.151 660.354C306.219 654.589 282.88 629.315 250.458 580.55C229.268 548.68 195.661 490.025 184.558 465.532C180.963 457.601 179.353 455.865 178.253 458.733C177.322 461.159 196.432 497.723 217.545 533.91C248.065 586.222 276.208 625.931 297.174 646.264C309.518 658.236 318.529 663.541 329.735 665.433C339.19 667.029 364.419 665.982 380.997 663.305C435.561 654.494 510.849 637.822 519.998 632.524C521.923 631.409 524.097 629.583 524.829 628.465C525.685 627.158 528.387 625.644 532.406 624.217C541.974 620.822 545.219 620.255 560.214 619.348C579.813 618.163 586.319 616.495 602.338 608.543C610.77 604.357 612.507 604.173 621.098 606.554C630.013 609.026 635.007 608.824 639.775 605.798C643.76 603.27 647.309 597.68 647.309 593.93C647.309 592.91 648.627 590.347 650.239 588.235C653.191 584.366 654.806 578.492 653.794 575.304C653.512 574.415 654.221 571.891 655.414 569.533C660.977 558.538 654.913 543.99 642.021 537.404C634.634 533.63 622.077 534.552 614.937 539.391C608.58 543.7 611.745 544.85 619.722 541.129C626.751 537.851 634.8 537.86 641.116 541.152C646.071 543.735 651.678 550.134 653.303 555.06C654.491 558.663 654.011 565.847 652.454 567.722C651.518 568.851 650.887 568.584 647.553 565.647C642.671 561.349 635.757 558.712 627.941 558.165C623.114 557.828 621.317 558.04 619.632 559.145C615.924 561.575 616.989 562.408 622.982 561.766C628.997 561.122 637.419 563.104 642.801 566.431C649.452 570.542 651.86 578.824 648.151 584.83L646.331 587.776L643.198 585.31C638.727 581.792 620.777 576.535 619.62 578.406C618.693 579.907 620.691 581.603 624.117 582.227C625.858 582.543 629.967 583.609 633.248 584.595C644.532 587.986 646.953 593.99 639.761 600.743C635.006 605.21 631.904 605.568 621.7 602.831C617.099 601.597 612.608 600.586 611.723 600.586C610.838 600.586 605.905 602.675 600.761 605.228C585.37 612.866 580.419 614.147 560.919 615.535C545.772 616.612 537.005 618.085 530.282 620.679C528.838 621.237 528.768 620.862 529.303 615.408C530.466 603.526 525.47 585.047 518.682 576.12L515.313 571.689L519.313 571.136C534.522 569.035 542.681 564.697 560.811 549.078C581.524 531.233 592.485 525.07 613.171 519.641C627.173 515.965 636.904 514.825 642.871 516.161C647.161 517.122 648.488 517.991 654.285 523.634C660.57 529.753 663.501 534.011 663.501 537.023C663.501 537.794 662.551 539.375 661.39 540.537C659.469 542.459 657.535 545.342 657.535 546.284C657.535 547.22 664.531 543.07 665.652 541.469C667.388 538.989 667.225 534.618 665.254 530.853C664.343 529.114 660.796 524.783 657.371 521.229C650.186 513.774 646.147 511.916 637.144 511.92C626.699 511.925 606.902 516.488 594.297 521.796L589.313 523.894L587.419 521.8C586.377 520.648 583.032 517.561 579.985 514.94C575.731 511.28 573.112 509.775 568.694 508.452C565.53 507.504 562.941 506.384 562.941 505.961C562.941 504.499 566.742 502.539 569.578 502.539C573.156 502.539 574.375 503.201 583.238 509.967C591.454 516.239 595.409 518.363 597.432 517.586C599.444 516.814 598.726 516.062 590.848 510.684C586.983 508.047 581.954 504.491 579.673 502.784C572.823 497.655 562.785 497.924 560.001 503.309C559.026 505.197 559.031 505.895 560.037 507.816C560.952 509.562 562.634 510.534 567.293 512.005C572.311 513.589 574.406 514.877 579.441 519.475C582.787 522.531 585.601 525.246 585.696 525.508C585.79 525.77 582.81 527.903 579.076 530.248C575.341 532.593 568.553 537.678 563.991 541.55C539.534 562.307 535.407 564.663 518.798 567.35C513.949 568.134 511.412 568.125 507.294 567.306C502.525 566.358 500.222 566.514 483.687 568.904C461.511 572.111 437.143 574.661 417.642 575.816C396.349 577.077 361.803 577.913 358.283 577.252C355.45 576.72 355.009 576.195 352.254 570.088C346.843 558.093 319.98 484.189 309.416 452.236C289.333 391.491 278.033 366.875 259.126 342.679C253.875 335.96 244.881 326.853 239.172 322.475L236.256 320.238L237.831 314.407C240.25 305.453 245.369 292.814 252.277 278.735C260.754 261.458 259.711 262.517 265.951 264.851C270.093 266.399 272.845 266.766 280.438 266.781C288.696 266.796 290.265 266.558 293.615 264.771C306.878 257.698 316.259 238.182 326.776 195.789C333.422 168.994 336.248 149.436 336.267 130.082C336.273 123.777 336.756 118.443 337.588 115.465C339.717 107.852 340.136 94.637 338.484 87.251C335.314 73.081 325.507 56.0336 313.349 43.5577C298.828 28.657 279.313 18.2504 255.298 12.602C244.081 9.96409 224.325 9.17545 214.238 10.9633ZM251.464 15.297C267.296 18.5991 285.341 26.159 297.628 34.6362C305.062 39.7645 317.522 52.5098 322.472 60.0467C338.02 83.7247 340.203 105.153 329.313 127.208C322.197 141.623 312.18 149.81 280.012 167.501C258.665 179.241 254.312 182.141 248.493 188.505C243.465 194.003 237.424 205.609 235.253 213.938C234.52 216.752 233.553 224.684 233.103 231.563C232.143 246.263 230.717 254.368 227.671 262.447C221.583 278.594 208.976 293.385 195.657 300.005C193.541 301.057 183.757 304.702 173.914 308.105C140.609 319.619 130.769 325.661 105.738 349.959C93.6316 361.71 89.2905 364.415 79.6923 366.181C72.0054 367.596 65.0967 366.134 61.2396 362.275C57.1517 358.185 57.3962 354.58 62.2725 347.049C67.0141 339.726 69.3432 333.57 70.5115 325.273C71.7029 316.806 70.1835 308.581 64.9586 295.211C57.9962 277.394 57.1542 268.202 61.0777 252.838C64.5504 239.236 69.8988 230.918 88.296 210.5C105.788 191.087 112.015 181.546 116.655 167.046C119.644 157.706 120.429 153.152 121.94 136.353C125.454 97.3021 132.036 77.3482 148.384 56.199C165.503 34.0505 191.608 18.1148 217.448 14.0386C224.565 12.9157 243.386 13.6123 251.464 15.297ZM427.016 78.7652C418.359 80.7799 415.421 86.2066 414.302 102.25C414.04 106.001 411.915 137.653 409.579 172.588C403.604 261.981 402.992 270.847 400.52 303.885C397.983 337.822 398 348.764 400.598 351.635C403.346 354.671 407.808 356.498 415.087 357.566C418.836 358.117 434.75 360.628 450.451 363.148C466.153 365.668 497.983 370.643 521.184 374.204C544.385 377.765 563.889 380.861 564.526 381.084C566.285 381.7 565.601 411.891 563.765 414.658C562.301 416.864 549.989 422.281 525.845 431.34C508.11 437.996 504.677 439.721 503.343 442.65C501.504 446.688 503.218 447.384 532.982 454.681C574.689 464.907 588.995 467.403 597.029 465.854C602.782 464.745 643.627 446.699 646.717 443.901C651.545 439.53 651.879 431.977 648.176 410.967C646.779 403.039 645.412 395.85 645.14 394.991C644.721 393.67 645.015 393.496 647.042 393.861C651.543 394.671 697.11 401.974 724.166 406.221C739.018 408.552 753.341 410.46 755.995 410.46C764.638 410.46 770.029 406.193 771.677 398.052C772.145 395.732 772.929 387.887 773.417 380.619C773.905 373.351 776.011 344.576 778.098 316.675C780.185 288.774 782.886 250.983 784.101 232.695C785.315 214.407 787.068 189.853 787.996 178.13C792.708 118.597 793.08 108.315 790.689 103.529C787.827 97.7958 785.182 97.1581 759.297 95.961C733.786 94.781 670.479 91.4381 637.083 89.507C613.165 88.1241 612.325 88.078 512.236 82.6556C473.802 80.5736 439.479 78.7124 435.964 78.5197C432.449 78.3279 428.422 78.4378 427.016 78.7652ZM461.104 83.492C475.165 84.1877 496.449 85.3284 508.401 86.0267C520.353 86.7258 547.964 88.2656 569.759 89.4507C591.554 90.6349 619.74 92.1858 632.395 92.8977C664.477 94.7018 711.716 97.2442 750.338 99.2452C785.771 101.081 785.856 101.096 787.925 106.095C789.343 109.52 788.414 126.253 782.859 197.313C781.924 209.271 780.181 234.592 778.984 253.584C777.788 272.575 775.835 300.391 774.645 315.396C773.454 330.402 771.585 354.968 770.49 369.989C769.14 388.508 768.082 398.297 767.203 400.402C765.606 404.228 762.597 406.289 757.869 406.797C753.919 407.222 751.481 406.859 654.126 391.344C617.333 385.48 559.81 376.454 526.297 371.287C428.95 356.279 408.031 352.803 405.652 351.245C400.922 348.144 400.827 353.156 407.422 257.847C409.059 234.166 411.362 200.404 412.538 182.819C416.896 117.664 419.045 91.2394 420.213 88.4429C421.827 84.5773 426.022 82.219 431.277 82.2242C433.621 82.2259 447.043 82.7971 461.104 83.492ZM434.712 104.339C434.358 104.912 434.452 105.767 434.923 106.238C435.9 107.216 453.957 108.513 509.679 111.607C549.561 113.822 555.064 114.167 597.881 117.141C611.24 118.069 637.125 119.798 655.405 120.984C673.684 122.171 696.31 123.71 705.684 124.405C715.059 125.1 731.309 126.258 741.797 126.977C752.285 127.697 761.241 128.518 761.699 128.801C762.19 129.104 762.316 131.459 762.008 134.54C761.719 137.413 760.713 150.506 759.772 163.636C758.832 176.766 757.121 200.169 755.972 215.644C754.824 231.118 753.092 255.289 752.126 269.357C748.022 329.065 746.986 343.044 745.721 355.798C743.969 373.461 743.769 374.156 740.346 374.492C738.848 374.64 727.369 373.174 714.836 371.236C702.304 369.298 658.877 362.955 618.334 357.141C577.791 351.326 526.02 343.871 503.288 340.573C480.555 337.276 454.502 333.594 445.391 332.391C436.28 331.189 428.131 329.832 427.282 329.378C426.213 328.806 425.74 327.575 425.746 325.384C425.756 322.131 430.565 249.968 433.004 216.496C435.2 186.366 439.036 110.331 438.412 109.321C438.098 108.812 437.313 108.598 436.669 108.845C435.739 109.203 435.011 118.488 433.137 153.944C431.837 178.5 429.836 211.061 428.689 226.301C423.012 301.701 421.533 328.771 422.981 330.743C424.741 333.139 427.834 333.876 446.244 336.284C457.229 337.721 482.132 341.2 501.583 344.015C521.035 346.829 572.997 354.308 617.056 360.634C661.114 366.961 706.798 373.659 718.575 375.518C742.751 379.336 744.546 379.25 746.667 374.171C748.008 370.96 750.634 345.589 752.53 317.528C756.692 255.91 760.296 205.186 765.432 135.927C766.22 125.291 765.784 124.898 752.098 123.922C729.621 122.318 666.684 118.006 653.274 117.15C645.541 116.657 620.039 114.933 596.603 113.32C573.168 111.706 530.409 109.032 501.583 107.377C472.758 105.722 446.064 104.127 442.265 103.832C437.242 103.442 435.181 103.58 434.712 104.339ZM551.504 207.45C526.92 256.772 523.783 263.913 527.33 262.494C528.813 261.902 580.157 158.335 579.823 156.612C579.678 155.864 579.166 155.12 578.687 154.961C578.206 154.801 565.974 178.421 551.504 207.45ZM519.479 169.25C516.901 170.68 508.273 175.332 500.305 179.588C487.215 186.58 466.05 198.875 462.115 201.774C460.634 202.863 460.649 203.014 462.449 205.303C463.482 206.618 473.766 215.849 485.3 225.815C496.833 235.781 506.797 244.572 507.44 245.349C508.708 246.883 511.414 247.24 512.195 245.977C512.734 245.104 508.011 240.471 497.748 231.805C488.989 224.409 465.791 203.997 465.791 203.686C465.791 203.135 488.782 189.974 504.566 181.492C513.94 176.454 522.569 171.816 523.74 171.186C524.912 170.556 526.309 170.039 526.845 170.035C527.966 170.029 528.985 167.889 528.226 167.13C527.107 166.01 523.936 166.779 519.479 169.25ZM595.325 178.431C595.325 180.096 609.903 192.392 635.401 212.233C640.825 216.454 645.381 220.267 645.527 220.708C645.829 221.619 639.393 225.419 606.83 243.552C594.174 250.6 583.158 256.942 582.349 257.646C580.751 259.037 581.072 260.404 582.995 260.404C584.974 260.404 649.316 224.042 650.504 222.253C651.515 220.728 649.536 218.951 624.542 198.94C609.661 187.026 596.999 177.154 596.405 177.002C595.801 176.848 595.325 177.478 595.325 178.431ZM544.531 290.593C544.23 291.38 544.24 292.281 544.554 292.596C544.869 292.911 550.956 293.444 558.082 293.781C571.132 294.399 611.137 297.775 633.248 300.126C657.347 302.687 655.831 302.653 655.831 300.638C655.831 299.282 655.158 298.735 653.061 298.381C646.37 297.253 572.452 290.731 555.076 289.735C546.181 289.226 545.02 289.32 544.531 290.593ZM574.431 316.154C573.504 316.833 573.013 317.657 573.342 317.986C573.67 318.314 579.996 319.302 587.401 320.181C622.271 324.321 638.869 326.456 666.417 330.344C689.363 333.583 696.451 334.318 697.372 333.553C699.347 331.913 695.247 330.417 685.035 329.051C679.987 328.376 663.394 326.105 648.161 324.004C632.928 321.903 611.453 319.194 600.438 317.982C589.423 316.771 579.445 315.586 578.265 315.35C577.079 315.113 575.361 315.474 574.431 316.154ZM592.768 385.266C629.892 391.054 640.009 392.759 640.681 393.341C641.828 394.332 646.573 421.06 647.057 429.25C647.513 436.963 647.432 437.497 645.506 439.614C644.388 440.841 639.639 443.576 634.952 445.691C630.265 447.805 621.364 451.855 615.171 454.689C596.478 463.246 593.832 463.616 574.709 460.34C565.098 458.694 506.696 444.369 506.696 443.658C506.696 442.835 514.362 439.561 532.296 432.727C540.986 429.415 551.894 425.065 556.536 423.059C568.288 417.981 568.363 417.83 568.782 398.586C569.079 385.016 568.973 383.629 567.565 382.599C565.377 380.998 565.443 381.005 592.768 385.266ZM352.875 398.984C330.49 403.69 310.586 408.887 310.102 410.153C309.857 410.79 309.855 411.83 310.098 412.462C310.452 413.386 312.357 413.15 319.777 411.264C343.074 405.341 366.148 400.229 369.571 400.23C371.638 400.232 385.024 403.306 399.32 407.063C413.615 410.82 433.557 415.641 443.634 417.775C462.5 421.772 498.751 429.216 499.345 429.216C499.529 429.216 499.882 428.444 500.129 427.5C500.702 425.305 499.196 424.505 492.187 423.283C468.719 419.193 429.515 410.729 402.866 404C385.365 399.581 370.025 396 368.778 396.041C367.531 396.082 360.374 397.406 352.875 398.984ZM412.955 460.83C405.69 464.14 389.793 471.265 377.629 476.665C351.695 488.176 349.24 489.37 346.697 491.7C344.731 493.501 344.252 496.123 345.52 498.124C345.913 498.745 355.015 501.868 365.747 505.065C376.478 508.262 418.461 521.644 459.042 534.802C527.682 557.058 536.523 559.604 536.523 557.109C536.523 556.099 536.825 556.201 451.304 528.545C444.976 526.5 423.884 519.637 404.433 513.297C384.981 506.956 364.682 500.485 359.324 498.915C353.965 497.346 349.433 495.619 349.253 495.079C349.073 494.538 351.176 492.959 353.927 491.569C361.878 487.555 425.269 459.207 427.614 458.618C429.026 458.264 440.266 461.073 461.186 467.009C527.24 485.751 573.317 498.372 574.707 498.105C575.501 497.951 576.15 497.269 576.15 496.587C576.15 495.691 569.892 493.619 553.567 489.109C541.146 485.678 508.709 476.553 481.485 468.832C454.261 461.111 430.676 454.798 429.075 454.804C427.301 454.81 421.005 457.163 412.955 460.83ZM655.359 461.689C653.936 463.993 651.84 463.423 741.317 485.064C769.822 491.959 793.392 497.35 793.698 497.044C794.937 495.804 792.219 493.597 788.277 492.642C785.972 492.083 767.021 487.519 746.164 482.499C725.306 477.479 696.842 470.534 682.909 467.067C668.977 463.6 657.207 460.762 656.755 460.762C656.302 460.762 655.674 461.179 655.359 461.689ZM426.933 476.242C425.507 478.552 431.305 480.585 467.921 490.611C489.013 496.387 511.256 502.639 517.349 504.503C534.799 509.844 534.699 509.821 535.763 508.756C538.229 506.289 537.06 505.901 477.296 489.375C454.329 483.024 433.726 477.271 431.511 476.59C428.781 475.749 427.308 475.637 426.933 476.242ZM410.032 493.917C409.775 494.332 410.04 495.051 410.621 495.515C411.201 495.979 422.606 499.271 435.964 502.83C449.322 506.39 466.196 511.016 473.461 513.112C486.481 516.867 490.073 517.089 486.931 513.946C485.554 512.568 415.943 493.16 412.379 493.16C411.345 493.16 410.288 493.501 410.032 493.917ZM583.825 497.416C583.482 497.971 583.533 498.755 583.937 499.159C584.342 499.563 593.229 502.267 603.688 505.168C620.531 509.84 622.941 510.315 624.779 509.331C625.92 508.72 626.722 508.088 626.56 507.926C626.166 507.532 589.538 497.318 586.69 496.809C585.457 496.588 584.168 496.861 583.825 497.416ZM656.637 548.607C654.702 549.805 656.303 550.974 676.768 563.313C687.136 569.565 695.458 575.125 695.458 575.8C695.458 577.833 691.088 578.423 686.817 576.968C684.681 576.24 678.97 573.03 674.123 569.834C663.121 562.58 660.346 561.119 659.664 562.223C659.375 562.691 659.546 563.072 660.042 563.072C660.538 563.072 660.944 563.608 660.944 564.263C660.944 565.99 680.296 578.769 685.562 580.519C688.528 581.505 691.237 581.829 693.599 581.483C696.372 581.077 698.566 581.511 703.495 583.441C706.978 584.805 710.353 585.719 710.994 585.472C713.499 584.511 711.385 582.429 705.684 580.244C700.615 578.301 699.68 577.625 699.461 575.746C699.074 572.441 696.187 570.256 677.988 559.499C657.209 547.216 658.128 547.685 656.637 548.607ZM253.212 593.694C252.351 595.089 249.674 619.307 248.549 635.888C246.83 661.219 247.627 676.339 251.481 691.54C253.892 701.052 255.806 704.026 260.636 705.78C263.842 706.944 294.013 709.32 338.388 711.903C350.553 712.612 392.171 718.64 402.59 721.202C411.477 723.388 412.955 723.388 412.955 721.21C412.955 719.157 398.272 715.936 372.475 712.33C347.104 708.784 350.312 709.094 318.787 707.134C272.359 704.248 262.759 703.357 260.235 701.703C257.428 699.863 255.855 695.95 253.452 684.826C251.812 677.238 251.553 673.482 251.553 657.283C251.554 639.601 253.325 614.068 255.381 602.093C256.036 598.279 255.96 596.707 255.033 594.937C254.229 593.403 253.64 593.001 253.212 593.694ZM688.64 632.829C658.255 648.286 654.796 650.081 608.534 674.39C594.004 682.024 576.104 691.231 568.756 694.851C556.031 701.118 555.242 701.388 552.138 700.543C545.915 698.848 475.469 673.249 454.286 664.984C432.808 656.605 428.056 655.237 425.762 656.776C424.094 657.895 424.15 657.928 432.981 660.92C437.2 662.35 449.28 666.873 459.826 670.971C476.372 677.401 532.58 697.863 548.087 703.102C551.847 704.372 554.165 704.679 556.576 704.227C560.128 703.56 571.088 698.029 632.395 665.967C653.956 654.691 682.718 639.835 696.31 632.955C719.087 621.424 723.598 618.521 719.746 617.872C719.043 617.753 705.045 624.484 688.64 632.829Z" stroke="white" stroke-width="5"/>
</svg>
