<svg width="161" height="19" viewBox="0 0 161 19" fill="none" xmlns="http://www.w3.org/2000/svg">
<path d="M2.02734 9.06055L16 0.214844H18.3789L4.61133 9.22461L19.2266 19H16.3145L2.02734 9.42969V19H0.291016V0.214844H2.02734V9.06055ZM20.877 19V0.214844H22.5859V19H20.877ZM50.8008 19V3.01758L40.4785 19H38.9609L28.625 2.94922V19H26.916V0.214844H28.748L39.7676 17.2363L50.6641 0.214844H52.4824V19H50.8008ZM75.3652 19V9.89453H58.5352V19H56.8262V0.214844H58.5352V8.30859H75.3652V0.214844H77.0742V19H75.3652ZM89.7852 11.043V19H88.0762V11.043L79.2578 0.214844H81.2949L88.9375 9.62109L96.5527 0.214844H98.6035L89.7852 11.043ZM100.787 19V0.214844H116.441V1.81445H102.646V8.28125H115.744V9.86719H102.646V17.4004H116.646V19H100.787ZM121.633 10.9609V19H119.924V0.214844H129.275C130.706 0.214844 131.932 0.328776 132.953 0.556641C133.974 0.775391 134.808 1.11263 135.455 1.56836C136.111 2.01497 136.59 2.57552 136.891 3.25C137.191 3.92448 137.342 4.71289 137.342 5.61523C137.342 7.01888 136.973 8.14453 136.234 8.99219C135.496 9.83073 134.307 10.4049 132.666 10.7148L139.078 19H136.932L130.875 10.9062C130.62 10.9245 130.36 10.9382 130.096 10.9473C129.831 10.9564 129.558 10.9609 129.275 10.9609H121.633ZM135.578 5.61523C135.578 4.81315 135.437 4.16602 135.154 3.67383C134.872 3.17253 134.411 2.78516 133.773 2.51172C133.135 2.23828 132.297 2.05599 131.258 1.96484C130.228 1.86458 128.961 1.81445 127.457 1.81445H121.633V9.36133H127.402C128.906 9.36133 130.178 9.32031 131.217 9.23828C132.256 9.14714 133.099 8.9694 133.746 8.70508C134.393 8.43164 134.858 8.05339 135.141 7.57031C135.432 7.07812 135.578 6.42643 135.578 5.61523ZM158.447 19L155.863 14.0508H143.107L140.523 19H138.65L148.48 0.214844H150.49L160.32 19H158.447ZM149.492 1.86914L143.941 12.4785H155.029L149.492 1.86914Z" fill="white"/>
</svg>
