<svg width="20" height="20" viewBox="0 0 20 20" fill="none" xmlns="http://www.w3.org/2000/svg">
<path d="M9.94339 10.8288C7.91737 10.8288 6.27496 9.18817 6.27496 7.16439C6.27496 5.1406 7.91737 3.5 9.94339 3.5C11.9694 3.5 13.6118 5.1406 13.6118 7.16439C13.6118 9.18817 11.9694 10.8288 9.94339 10.8288Z" stroke="#9598A0" stroke-width="1.2" stroke-linecap="round" stroke-linejoin="round"/>
<path d="M11.356 7.05543L10.2041 8.22118L8.53075 6.09375" stroke="#9598A0" stroke-width="1.2" stroke-linecap="round" stroke-linejoin="round"/>
<path d="M3.73881 7.15625C3.73881 7.64469 3.86703 8.08537 4.0887 8.35239C4.14521 8.41968 4.20823 8.47612 4.27343 8.52171C4.33863 8.5673 4.41034 8.60203 4.48641 8.62374C4.64071 8.66716 4.81022 8.66065 5.00146 8.6042C4.81022 8.66065 4.66244 8.74748 4.55812 8.86688C4.50597 8.92549 4.46467 8.99279 4.43425 9.06659C4.41904 9.1035 4.40382 9.14257 4.39296 9.18382C4.38427 9.2229 4.37557 9.26631 4.37123 9.30973C4.32776 9.65706 4.46033 10.0956 4.72546 10.5059" stroke="#9598A0" stroke-width="1.2" stroke-linecap="round" stroke-linejoin="round"/>
<path d="M4.72502 10.5078C4.98798 10.9203 5.33352 11.2198 5.6682 11.3241C5.75079 11.3523 5.83554 11.3653 5.91378 11.3675C5.99419 11.3696 6.07243 11.361 6.14849 11.3371C6.30279 11.2893 6.44188 11.1938 6.57227 11.044C6.44188 11.1938 6.36581 11.3458 6.33973 11.5042C6.32669 11.5824 6.32887 11.6605 6.34408 11.7409C6.35929 11.819 6.3832 11.9015 6.42232 11.9775C6.57227 12.2922 6.91999 12.5918 7.36768 12.7937" stroke="#9598A0" stroke-width="1.2" stroke-linecap="round" stroke-linejoin="round"/>
<path d="M7.36562 12.7971C7.81113 13.0011 8.26534 13.0684 8.60219 12.9751C8.76953 12.9316 8.91079 12.8448 9.01293 12.7254C9.11508 12.606 9.18027 12.4475 9.20853 12.25C9.18027 12.4475 9.19766 12.6147 9.26286 12.7601C9.32805 12.9078 9.43889 13.0228 9.58884 13.1162C9.88658 13.2963 10.3386 13.3615 10.8232 13.292" stroke="#9598A0" stroke-width="1.2" stroke-linecap="round" stroke-linejoin="round"/>
<path d="M10.8254 13.2904C11.3101 13.2231 11.7295 13.0342 11.962 12.7737C12.0207 12.7108 12.0685 12.6392 12.1033 12.5675C12.1381 12.4959 12.1642 12.4221 12.1728 12.3417C12.1946 12.1833 12.1642 12.0161 12.0816 11.8359C12.1642 12.0161 12.2706 12.1507 12.4054 12.2375C12.4706 12.281 12.5445 12.3114 12.6227 12.3309C12.7009 12.3526 12.7857 12.3613 12.8705 12.3591C13.2203 12.3526 13.6354 12.1594 14.0049 11.8381" stroke="#9598A0" stroke-width="1.2" stroke-linecap="round" stroke-linejoin="round"/>
<path d="M14.005 11.8434C14.3766 11.5243 14.6244 11.1401 14.6809 10.7949C14.6961 10.7102 14.6983 10.6256 14.6896 10.5452C14.6809 10.4649 14.6592 10.3889 14.6266 10.3173C14.5592 10.1719 14.4418 10.0481 14.2745 9.93957C14.4418 10.0481 14.6027 10.1024 14.7635 10.1046C14.8439 10.1046 14.9199 10.0915 14.996 10.0677C15.0721 10.0416 15.1503 10.0069 15.2199 9.95694C15.5111 9.76373 15.7566 9.37732 15.8936 8.90625" stroke="#9598A0" stroke-width="1.2" stroke-linecap="round" stroke-linejoin="round"/>
<path d="M15.8957 8.90478C16.0348 8.43588 16.0348 7.97783 15.8957 7.65655C15.8609 7.57622 15.8196 7.50459 15.7675 7.44163C15.7153 7.37868 15.6566 7.32658 15.5893 7.28533C15.4545 7.20067 15.2915 7.15942 15.0938 7.15942C15.2937 7.15942 15.4567 7.11818 15.5914 7.03351C15.6588 6.99227 15.7175 6.938 15.7696 6.87721C15.8196 6.81426 15.8609 6.74262 15.8957 6.6623C16.0348 6.34318 16.0326 5.88514 15.8957 5.41406" stroke="#9598A0" stroke-width="1.2" stroke-linecap="round" stroke-linejoin="round"/>
<path d="M15.8955 5.41372C15.7586 4.94264 15.513 4.55623 15.2218 4.36303C15.1523 4.3131 15.0719 4.27836 14.998 4.25231C14.9219 4.22843 14.8458 4.21324 14.7654 4.21541C14.6046 4.21541 14.4438 4.27185 14.2764 4.37822C14.4438 4.27185 14.5611 4.14594 14.6285 4.0005C14.6611 3.92886 14.6807 3.85288 14.6915 3.77256C14.7002 3.69224 14.7002 3.60757 14.6828 3.52291C14.6263 3.17775 14.3764 2.79568 14.007 2.47656" stroke="#9598A0" stroke-width="1.2" stroke-linecap="round" stroke-linejoin="round"/>
<path d="M14.0049 2.48138C13.6354 2.16009 13.2203 1.96688 12.8705 1.96037C12.7835 1.95603 12.7009 1.96688 12.6227 1.98859C12.5445 2.00813 12.4727 2.04069 12.4054 2.08194C12.2728 2.16877 12.1641 2.30337 12.0816 2.48355C12.1641 2.30337 12.1946 2.13621 12.175 1.97774C12.1642 1.89742 12.1402 1.82361 12.1055 1.75197C12.0685 1.68033 12.0229 1.60869 11.9642 1.54574C11.7295 1.28524 11.3122 1.09855 10.8276 1.03125" stroke="#9598A0" stroke-width="1.2" stroke-linecap="round" stroke-linejoin="round"/>
<path d="M10.8257 1.02724C10.3411 0.957769 9.88902 1.02289 9.59128 1.20307C9.44133 1.29642 9.3305 1.41148 9.2653 1.55909C9.2001 1.70454 9.18272 1.87387 9.21097 2.06924C9.18272 1.87387 9.11752 1.71322 9.01538 1.59383C8.91323 1.47443 8.77197 1.3876 8.60463 1.34418C8.26778 1.253 7.81358 1.31813 7.36806 1.52436" stroke="#9598A0" stroke-width="1.2" stroke-linecap="round" stroke-linejoin="round"/>
<path d="M7.36572 1.52344C6.92021 1.72533 6.57249 2.0249 6.42254 2.33968C6.38342 2.41566 6.35951 2.49815 6.3443 2.57847C6.33126 2.65879 6.32909 2.73477 6.33995 2.81509C6.36386 2.97356 6.4421 3.12552 6.57249 3.27531C6.4421 3.12552 6.30301 3.02783 6.14871 2.98007C6.07265 2.95837 5.99441 2.94751 5.914 2.94968C5.83359 2.95185 5.74883 2.96488 5.66842 2.9931C5.33374 3.0973 4.99037 3.39905 4.72741 3.81151" stroke="#9598A0" stroke-width="1.2" stroke-linecap="round" stroke-linejoin="round"/>
<path d="M4.72546 3.8125C4.45816 4.22279 4.32776 4.6613 4.37123 5.00864C4.37557 5.05205 4.38427 5.0933 4.39296 5.13455C4.40382 5.17579 4.41686 5.21487 4.43425 5.25177C4.46685 5.32558 4.50814 5.39288 4.55812 5.45149C4.66244 5.57088 4.81239 5.65772 5.00146 5.71416C4.81022 5.65772 4.64071 5.65121 4.48641 5.69462C4.40817 5.71633 4.33863 5.75107 4.27343 5.79665C4.20823 5.84224 4.14521 5.89868 4.0887 5.96598C3.86703 6.23516 3.74099 6.67367 3.74099 7.16429" stroke="#9598A0" stroke-width="1.2" stroke-linecap="round" stroke-linejoin="round"/>
<path d="M9.94336 14.2496V19.2599L6.64221 16.7005L6.903 14.0391" stroke="#9598A0" stroke-width="1.2" stroke-linecap="round" stroke-linejoin="round"/>
<path d="M12.8312 14.1562L13.2441 17.4386L9.94299 15.9602" stroke="#9598A0" stroke-width="1.2" stroke-linecap="round" stroke-linejoin="round"/>
</svg>
