<svg width="20" height="20" viewBox="0 0 20 20" fill="none" xmlns="http://www.w3.org/2000/svg">
<path d="M6.95953 9.54016C8.55844 9.54016 9.85461 8.24399 9.85461 6.64508C9.85461 5.04617 8.55844 3.75 6.95953 3.75C5.36062 3.75 4.06445 5.04617 4.06445 6.64508C4.06445 8.24399 5.36062 9.54016 6.95953 9.54016Z" stroke="#9598A0" stroke-width="1.2" stroke-linecap="round" stroke-linejoin="round"/>
<path d="M1.23096 16.0018C1.23096 12.8388 3.79635 10.2734 6.9593 10.2734C10.1223 10.2734 12.6876 12.8388 12.6876 16.0018" stroke="#9598A0" stroke-width="1.2" stroke-linecap="round" stroke-linejoin="round"/>
<path d="M14.6761 8.8591C15.854 8.8591 16.8088 7.90427 16.8088 6.72642C16.8088 5.54858 15.854 4.59375 14.6761 4.59375C13.4983 4.59375 12.5435 5.54858 12.5435 6.72642C12.5435 7.90427 13.4983 8.8591 14.6761 8.8591Z" stroke="#9598A0" stroke-width="1.2" stroke-linecap="round" stroke-linejoin="round"/>
<path d="M11.0288 11.4924C11.7603 10.2355 13.1203 9.39062 14.676 9.39062C17.0044 9.39062 18.8898 11.276 18.8898 13.6045" stroke="#9598A0" stroke-width="1.2" stroke-linecap="round" stroke-linejoin="round"/>
</svg>
