<svg width="20" height="18" viewBox="0 0 20 18" fill="none" xmlns="http://www.w3.org/2000/svg">
<path d="M15.4503 7.2276V6.48802C15.4503 3.53418 13.0107 1.14062 10.0001 1.14062C6.9894 1.14062 4.5498 3.53418 4.5498 6.48802V7.2276" stroke="#9598A0" stroke-width="1.2" stroke-linecap="round" stroke-linejoin="round"/>
<path d="M3.2934 6.79688H4.54975V12.4491H3.2934C2.02792 12.4491 1 11.4405 1 10.1989V9.04699C1 7.80539 2.02792 6.79688 3.2934 6.79688Z" stroke="#9598A0" stroke-width="1.2" stroke-linecap="round" stroke-linejoin="round"/>
<path d="M16.7066 12.4453H15.4503V6.79312H16.7066C17.9721 6.79312 19 7.80164 19 9.04324V10.1952C19 11.4368 17.9721 12.4453 16.7066 12.4453Z" stroke="#9598A0" stroke-width="1.2" stroke-linecap="round" stroke-linejoin="round"/>
<path d="M15.4503 12.4453V12.6918C15.4503 14.3279 14.0981 15.6591 12.426 15.6591H11.8184" stroke="#9598A0" stroke-width="1.2" stroke-linecap="round" stroke-linejoin="round"/>
<path d="M10.6076 16.8444C11.2763 16.8444 11.8183 16.3126 11.8183 15.6566C11.8183 15.0006 11.2763 14.4688 10.6076 14.4688C9.939 14.4688 9.39697 15.0006 9.39697 15.6566C9.39697 16.3126 9.939 16.8444 10.6076 16.8444Z" stroke="#9598A0" stroke-width="1.2" stroke-linecap="round" stroke-linejoin="round"/>
<path d="M8.35059 6.79688V7.54094" stroke="#9598A0" stroke-width="1.2" stroke-linecap="round" stroke-linejoin="round"/>
<path d="M11.6494 6.79688V7.54094" stroke="#9598A0" stroke-width="1.2" stroke-linecap="round" stroke-linejoin="round"/>
<path d="M11.6494 9.9375C11.6494 10.5157 11.1743 10.9819 10.5849 10.9819H9.41994C8.8306 10.9819 8.35547 10.5157 8.35547 9.9375" stroke="#9598A0" stroke-width="1.2" stroke-linecap="round" stroke-linejoin="round"/>
</svg>
