<svg width="1764" height="1351" viewBox="0 0 1764 1351" fill="none" xmlns="http://www.w3.org/2000/svg">
<mask id="mask0_421_379" style="mask-type:luminance" maskUnits="userSpaceOnUse" x="0" y="0" width="1764" height="1351">
<path d="M1764 0H0V1351H1764V0Z" fill="white"/>
</mask>
<g mask="url(#mask0_421_379)">
<path d="M737.978 73.1169L740.735 74.6239C740.925 74.7289 740.995 74.9689 740.889 75.1589C740.853 75.2239 740.799 75.2779 740.735 75.3139L737.978 76.8219C737.913 76.8589 737.859 76.9129 737.823 76.9779L736.316 79.7339C736.212 79.9239 735.973 79.9949 735.783 79.8909C735.717 79.8549 735.662 79.8009 735.626 79.7339L734.118 76.9789C734.082 76.9119 734.027 76.8559 733.961 76.8189L731.206 75.3139C731.016 75.2089 730.946 74.9689 731.051 74.7789C731.087 74.7139 731.141 74.6599 731.206 74.6239L733.961 73.1159C734.027 73.0799 734.082 73.0249 734.118 72.9589L735.625 70.2049C735.729 70.0149 735.968 69.9439 736.158 70.0479C736.224 70.0839 736.279 70.1379 736.315 70.2049L737.823 72.9589C737.858 73.0259 737.912 73.0789 737.978 73.1169Z" fill="#2194DA"/>
<path d="M333.057 241.719L334.417 242.464C334.608 242.569 334.678 242.81 334.572 243.001C334.536 243.066 334.482 243.121 334.417 243.157L333.057 243.9C332.991 243.937 332.936 243.991 332.9 244.057L332.158 245.417C332.054 245.608 331.813 245.679 331.622 245.575C331.556 245.538 331.501 245.484 331.464 245.417L330.721 244.057C330.684 243.991 330.63 243.936 330.564 243.9L329.204 243.157C329.013 243.052 328.944 242.811 329.05 242.62C329.086 242.555 329.139 242.5 329.204 242.464L330.564 241.719C330.63 241.683 330.685 241.63 330.721 241.564L331.464 240.204C331.569 240.013 331.81 239.944 332.001 240.05C332.066 240.086 332.122 240.139 332.158 240.204L332.901 241.564C332.938 241.63 332.994 241.685 333.059 241.721" fill="#8AFFF9"/>
<path d="M935.976 294.114L938.733 295.621C938.923 295.726 938.993 295.966 938.887 296.156C938.851 296.221 938.797 296.275 938.733 296.311L935.976 297.818C935.911 297.856 935.856 297.911 935.821 297.978L934.314 300.732C934.21 300.923 933.971 300.993 933.781 300.889C933.715 300.853 933.66 300.799 933.624 300.732L932.116 297.976C932.08 297.91 932.025 297.855 931.959 297.819L929.204 296.314C929.014 296.209 928.944 295.969 929.049 295.779C929.085 295.714 929.139 295.66 929.204 295.624L931.959 294.116C932.025 294.08 932.08 294.026 932.116 293.96L933.623 291.205C933.727 291.015 933.966 290.944 934.156 291.048C934.222 291.084 934.277 291.138 934.313 291.205L935.821 293.96C935.857 294.026 935.911 294.08 935.976 294.116" fill="#2194DA"/>
<path d="M1039.98 486.115L1042.73 487.622C1042.92 487.727 1042.99 487.967 1042.89 488.157C1042.85 488.222 1042.8 488.276 1042.73 488.312L1039.98 489.82C1039.91 489.857 1039.86 489.91 1039.82 489.976L1038.32 492.732C1038.21 492.923 1037.97 492.995 1037.78 492.892C1037.72 492.856 1037.66 492.8 1037.62 492.732L1036.12 489.976C1036.08 489.91 1036.03 489.856 1035.96 489.82L1033.21 488.313C1033.02 488.209 1032.94 487.97 1033.05 487.78C1033.08 487.714 1033.14 487.659 1033.21 487.623L1035.96 486.115C1036.03 486.079 1036.08 486.025 1036.12 485.959L1037.62 483.204C1037.73 483.014 1037.97 482.944 1038.16 483.049C1038.22 483.085 1038.28 483.139 1038.31 483.204L1039.82 485.96C1039.86 486.026 1039.91 486.08 1039.98 486.117" fill="#2FD5AA"/>
<path d="M226.057 433.72L227.417 434.465C227.608 434.57 227.678 434.811 227.572 435.002C227.536 435.067 227.482 435.121 227.417 435.157L226.057 435.9C225.991 435.936 225.937 435.991 225.901 436.056L225.158 437.416C225.054 437.607 224.814 437.678 224.623 437.573C224.557 437.537 224.502 437.482 224.465 437.416L223.722 436.056C223.685 435.99 223.631 435.936 223.565 435.9L222.205 435.157C222.014 435.052 221.944 434.811 222.05 434.62C222.086 434.555 222.14 434.501 222.205 434.465L223.565 433.721C223.631 433.686 223.686 433.632 223.722 433.567L224.465 432.207C224.57 432.016 224.811 431.946 225.002 432.052C225.067 432.088 225.122 432.142 225.158 432.207L225.902 433.567C225.939 433.632 225.994 433.686 226.059 433.722" fill="#36B0DC"/>
<path d="M1654.06 363.72L1655.42 364.465C1655.61 364.57 1655.68 364.811 1655.57 365.002C1655.54 365.067 1655.48 365.121 1655.42 365.157L1654.06 365.9C1653.99 365.936 1653.94 365.991 1653.9 366.056L1653.16 367.416C1653.06 367.607 1652.82 367.678 1652.63 367.573C1652.56 367.537 1652.5 367.482 1652.47 367.416L1651.72 366.056C1651.69 365.99 1651.63 365.936 1651.57 365.9L1650.21 365.157C1650.02 365.052 1649.95 364.811 1650.05 364.62C1650.09 364.555 1650.14 364.501 1650.21 364.465L1651.57 363.721C1651.63 363.686 1651.69 363.632 1651.72 363.567L1652.47 362.207C1652.57 362.016 1652.81 361.946 1653 362.052C1653.07 362.088 1653.12 362.142 1653.16 362.207L1653.9 363.567C1653.94 363.632 1654 363.686 1654.06 363.722" fill="#36B0DC"/>
<path d="M431 366.888L434.554 366L433.667 369.554L431 366.888Z" stroke="#2FD5AA" stroke-width="1.097" stroke-linecap="round" stroke-linejoin="round"/>
<path d="M753.226 443.018L755.245 444.122L753.226 445.225L752.122 447.244L751.018 445.225L749 444.122L751.018 443.018L752.122 441L753.226 443.018Z" fill="#2CD2AA"/>
<path d="M679.976 275.114L682.733 276.621C682.923 276.726 682.993 276.966 682.887 277.156C682.851 277.221 682.797 277.275 682.733 277.311L679.976 278.818C679.911 278.856 679.856 278.911 679.821 278.978L678.314 281.732C678.21 281.923 677.971 281.993 677.781 281.889C677.715 281.853 677.66 281.799 677.624 281.732L676.116 278.976C676.08 278.91 676.025 278.855 675.959 278.819L673.204 277.314C673.014 277.209 672.944 276.969 673.049 276.779C673.085 276.714 673.139 276.66 673.204 276.624L675.959 275.116C676.025 275.08 676.08 275.026 676.116 274.96L677.623 272.205C677.727 272.015 677.966 271.944 678.156 272.048C678.222 272.084 678.277 272.138 678.313 272.205L679.821 274.96C679.857 275.026 679.911 275.08 679.976 275.116" fill="#2FD5AA"/>
<path d="M159.431 174.566L162.185 176.073C162.375 176.178 162.445 176.418 162.34 176.608C162.304 176.673 162.251 176.727 162.185 176.763L159.429 178.271C159.363 178.308 159.309 178.361 159.273 178.427L157.766 181.183C157.662 181.373 157.423 181.444 157.233 181.34C157.167 181.304 157.112 181.25 157.076 181.183L155.569 178.427C155.531 178.361 155.476 178.307 155.409 178.271L152.657 176.764C152.467 176.66 152.396 176.421 152.5 176.231C152.536 176.165 152.59 176.11 152.657 176.074L155.411 174.566C155.477 174.529 155.531 174.476 155.568 174.41L157.076 171.655C157.181 171.465 157.421 171.395 157.611 171.5C157.676 171.536 157.73 171.589 157.766 171.655L159.273 174.411C159.309 174.477 159.363 174.531 159.429 174.568" fill="#2FD5AA"/>
<path d="M319.813 37.907C319.812 39.512 318.51 40.814 316.904 40.813C315.299 40.812 313.997 39.51 313.998 37.904C313.999 36.299 315.301 34.997 316.907 34.998C318.513 34.999 319.814 36.301 319.813 37.907Z" fill="#3E27E8"/>
<path d="M1666.98 211.115L1669.73 212.622C1669.92 212.727 1669.99 212.967 1669.89 213.159C1669.85 213.224 1669.8 213.278 1669.73 213.314L1666.98 214.821C1666.91 214.857 1666.86 214.911 1666.82 214.977L1665.32 217.732C1665.21 217.923 1664.97 217.995 1664.78 217.892C1664.72 217.855 1664.66 217.8 1664.62 217.732L1663.12 214.977C1663.08 214.911 1663.03 214.856 1662.96 214.821L1660.21 213.314C1660.01 213.21 1659.94 212.971 1660.05 212.779C1660.08 212.713 1660.14 212.658 1660.21 212.622L1662.96 211.115C1663.03 211.079 1663.08 211.026 1663.12 210.96L1664.62 208.205C1664.73 208.015 1664.97 207.944 1665.16 208.048C1665.22 208.084 1665.28 208.138 1665.31 208.205L1666.82 210.961C1666.86 211.027 1666.91 211.081 1666.98 211.117" fill="#3E27E8"/>
<path d="M1415.88 159.645L1417.18 160.355C1417.44 160.5 1417.44 160.875 1417.18 161.017L1415.88 161.727C1415.81 161.762 1415.76 161.814 1415.73 161.877L1415.02 163.177C1414.92 163.36 1414.69 163.426 1414.51 163.325C1414.44 163.291 1414.39 163.24 1414.36 163.177L1413.65 161.877C1413.61 161.814 1413.56 161.762 1413.5 161.727L1412.2 161.017C1412.01 160.917 1411.95 160.688 1412.05 160.505C1412.08 160.442 1412.13 160.389 1412.2 160.355L1413.5 159.645C1413.56 159.61 1413.61 159.558 1413.65 159.495L1414.36 158.197C1414.45 158.014 1414.68 157.946 1414.87 158.045C1414.93 158.08 1414.98 158.133 1415.02 158.197L1415.73 159.495C1415.76 159.558 1415.81 159.61 1415.88 159.645Z" fill="#2194DA"/>
<path d="M1683.06 97.7201L1684.42 98.4651C1684.61 98.5701 1684.68 98.8111 1684.57 99.0021C1684.54 99.0671 1684.48 99.1221 1684.42 99.1581L1683.06 99.9011C1682.99 99.9381 1682.94 99.9921 1682.9 100.058L1682.16 101.418C1682.06 101.609 1681.82 101.68 1681.63 101.576C1681.56 101.539 1681.5 101.485 1681.47 101.418L1680.72 100.058C1680.69 99.9921 1680.63 99.9371 1680.57 99.9011L1679.21 99.1581C1679.02 99.0531 1678.95 98.8121 1679.05 98.6211C1679.09 98.5561 1679.14 98.5011 1679.21 98.4651L1680.57 97.7211C1680.63 97.6851 1680.69 97.6321 1680.72 97.5661L1681.47 96.2061C1681.57 96.0151 1681.81 95.9451 1682 96.0511C1682.07 96.0871 1682.12 96.1411 1682.16 96.2061L1682.9 97.5661C1682.94 97.6321 1683 97.6861 1683.06 97.7221" fill="#8AFFF9"/>
<path d="M1367.98 505.117L1370.73 506.624C1370.92 506.729 1370.99 506.969 1370.89 507.159C1370.85 507.224 1370.8 507.278 1370.73 507.314L1367.98 508.821C1367.91 508.856 1367.86 508.911 1367.82 508.976L1366.32 511.732C1366.21 511.922 1365.97 511.994 1365.78 511.891C1365.72 511.855 1365.66 511.799 1365.62 511.732L1364.12 508.976C1364.08 508.911 1364.03 508.856 1363.96 508.821L1361.21 507.314C1361.02 507.21 1360.94 506.971 1361.05 506.781C1361.09 506.715 1361.14 506.66 1361.21 506.624L1363.96 505.117C1364.03 505.081 1364.08 505.026 1364.12 504.96L1365.62 502.205C1365.73 502.015 1365.97 501.944 1366.16 502.048C1366.22 502.084 1366.28 502.139 1366.31 502.205L1367.82 504.961C1367.86 505.028 1367.91 505.083 1367.98 505.119" fill="#8AFFF9"/>
<path d="M1223.88 267.648L1225.18 268.358C1225.44 268.502 1225.44 268.878 1225.18 269.017L1223.88 269.729C1223.81 269.764 1223.76 269.816 1223.73 269.879L1223.02 271.177C1222.92 271.36 1222.69 271.426 1222.51 271.325C1222.44 271.29 1222.39 271.239 1222.36 271.177L1221.65 269.877C1221.61 269.814 1221.56 269.763 1221.5 269.729L1220.2 269.017C1220.01 268.916 1219.95 268.687 1220.05 268.505C1220.08 268.442 1220.13 268.392 1220.2 268.358L1221.5 267.648C1221.56 267.612 1221.61 267.56 1221.65 267.498L1222.36 266.198C1222.45 266.015 1222.68 265.947 1222.87 266.045C1222.93 266.08 1222.98 266.133 1223.02 266.198L1223.73 267.498C1223.76 267.561 1223.81 267.613 1223.88 267.648Z" fill="#2194DA"/>
<path d="M1422.05 302.717L1423.41 303.462C1423.6 303.567 1423.67 303.809 1423.57 304C1423.53 304.065 1423.48 304.119 1423.41 304.155L1422.05 304.897C1421.99 304.933 1421.93 304.988 1421.9 305.053L1421.16 306.413C1421.05 306.604 1420.81 306.675 1420.62 306.57C1420.55 306.534 1420.5 306.479 1420.46 306.413L1419.72 305.053C1419.68 304.987 1419.63 304.933 1419.56 304.897L1418.2 304.155C1418.01 304.05 1417.94 303.808 1418.05 303.617C1418.09 303.552 1418.14 303.498 1418.2 303.462L1419.56 302.719C1419.63 302.684 1419.68 302.629 1419.72 302.564L1420.46 301.204C1420.57 301.013 1420.81 300.944 1421 301.05C1421.07 301.086 1421.12 301.139 1421.16 301.204L1421.9 302.564C1421.94 302.629 1421.99 302.683 1422.06 302.719" fill="#8AFFF9"/>
<path d="M364 587.525L365.762 586.983L367.525 587.525L366.982 585.762L367.525 584L365.763 584.543L364 584.001L364.542 585.763L364 587.525Z" stroke="#2CD2AA" stroke-width="1.097" stroke-linecap="round" stroke-linejoin="round"/>
<mask id="mask1_421_379" style="mask-type:luminance" maskUnits="userSpaceOnUse" x="1539" y="673" width="10" height="10">
<path d="M1539 673H1548.94V682.938H1539V673Z" fill="white"/>
</mask>
<g mask="url(#mask1_421_379)">
<path d="M1545.98 676.116L1548.73 677.624C1548.92 677.728 1548.99 677.969 1548.89 678.159C1548.85 678.224 1548.8 678.277 1548.73 678.313L1545.98 679.823C1545.91 679.859 1545.86 679.913 1545.82 679.98L1544.31 682.733C1544.21 682.923 1543.97 682.993 1543.78 682.888C1543.71 682.852 1543.66 682.798 1543.62 682.733L1542.11 679.978C1542.08 679.911 1542.02 679.857 1541.96 679.821L1539.2 678.313C1539.01 678.209 1538.94 677.968 1539.05 677.778C1539.08 677.713 1539.14 677.659 1539.2 677.624L1541.96 676.116C1542.03 676.08 1542.08 676.026 1542.12 675.96L1543.62 673.203C1543.73 673.012 1543.97 672.943 1544.16 673.048C1544.22 673.084 1544.28 673.138 1544.31 673.203L1545.82 675.959C1545.86 676.025 1545.91 676.08 1545.98 676.115" fill="#2194DA"/>
</g>
<path d="M65.472 570L64 571.47M69.47 566L68 567.47M65.543 570.163C66.267 570.887 67.439 570.887 68.163 570.163C68.887 569.439 68.887 568.267 68.163 567.543C67.439 566.819 66.267 566.819 65.543 567.543C64.819 568.267 64.819 569.439 65.543 570.163Z" stroke="#2CD2AA" stroke-width="1.097" stroke-linecap="round" stroke-linejoin="round"/>
<path d="M707.057 1003.9L708.417 1003.16C708.608 1003.05 708.678 1002.81 708.572 1002.62C708.536 1002.55 708.482 1002.5 708.417 1002.46L707.057 1001.72C706.991 1001.69 706.936 1001.63 706.9 1001.56L706.158 1000.21C706.054 1000.01 705.813 999.944 705.622 1000.05C705.556 1000.08 705.501 1000.14 705.464 1000.21L704.721 1001.56C704.684 1001.63 704.63 1001.69 704.564 1001.72L703.204 1002.46C703.013 1002.57 702.944 1002.81 703.05 1003C703.086 1003.07 703.139 1003.12 703.204 1003.16L704.564 1003.9C704.63 1003.94 704.684 1003.99 704.721 1004.06L705.464 1005.42C705.614 1005.69 706.006 1005.69 706.156 1005.42L706.9 1004.06C706.937 1003.99 706.991 1003.94 707.057 1003.9" fill="#8AFFF9"/>
<path d="M280.057 782.9L281.417 782.156C281.608 782.051 281.678 781.81 281.572 781.619C281.536 781.554 281.482 781.5 281.417 781.464L280.057 780.721C279.991 780.685 279.936 780.631 279.9 780.566L279.158 779.206C279.054 779.015 278.813 778.944 278.622 779.049C278.556 779.085 278.501 779.14 278.464 779.206L277.721 780.566C277.685 780.632 277.63 780.687 277.564 780.723L276.204 781.465C276.013 781.57 275.944 781.811 276.05 782.002C276.086 782.067 276.139 782.121 276.204 782.157L277.564 782.902C277.63 782.939 277.684 782.992 277.721 783.057L278.464 784.417C278.614 784.69 279.006 784.69 279.156 784.417L279.9 783.057C279.937 782.992 279.991 782.938 280.057 782.902" fill="#8AFFF9"/>
<path d="M1354.98 1235.82L1357.73 1234.32C1357.92 1234.21 1358 1233.97 1357.89 1233.78C1357.85 1233.71 1357.8 1233.66 1357.73 1233.62L1354.98 1232.12C1354.91 1232.08 1354.86 1232.03 1354.82 1231.96L1353.32 1229.2C1353.21 1229.01 1352.97 1228.94 1352.78 1229.05C1352.72 1229.08 1352.66 1229.14 1352.62 1229.2L1351.12 1231.96C1351.08 1232.03 1351.03 1232.08 1350.96 1232.12L1348.21 1233.62C1348.01 1233.73 1347.94 1233.97 1348.05 1234.16C1348.08 1234.22 1348.14 1234.28 1348.21 1234.31L1350.96 1235.82C1351.03 1235.86 1351.08 1235.91 1351.12 1235.98L1352.62 1238.73C1352.77 1239.01 1353.17 1239.01 1353.31 1238.73L1354.82 1235.98C1354.86 1235.91 1354.91 1235.86 1354.98 1235.82Z" fill="#2194DA"/>
<path d="M431 875.666L434.554 876.554L433.667 873L431 875.666Z" stroke="#2CD2AA" stroke-width="1.097" stroke-linecap="round" stroke-linejoin="round"/>
<path d="M542.226 726.225L544.245 725.121L542.226 724.018L541.122 722L540.018 724.018L538 725.12L540.018 726.224L541.122 728.243L542.226 726.225Z" fill="#2CD2AA"/>
<path d="M410.979 1106.82L413.733 1105.32C413.924 1105.21 413.995 1104.97 413.891 1104.78C413.855 1104.71 413.8 1104.66 413.733 1104.62L410.977 1103.12C410.911 1103.08 410.857 1103.03 410.821 1102.96L409.314 1100.21C409.21 1100.02 408.971 1099.94 408.781 1100.05C408.715 1100.08 408.66 1100.14 408.624 1100.21L407.117 1102.96C407.079 1103.03 407.024 1103.08 406.957 1103.12L404.205 1104.62C404.015 1104.73 403.944 1104.97 404.048 1105.16C404.084 1105.22 404.138 1105.28 404.205 1105.32L406.959 1106.82C407.025 1106.86 407.079 1106.91 407.116 1106.98L408.624 1109.73C408.774 1110.01 409.164 1110.01 409.314 1109.73L410.821 1106.98C410.857 1106.91 410.911 1106.86 410.977 1106.82" fill="#2CD2AA"/>
<path d="M884.815 1203.91C884.814 1202.3 883.512 1201 881.906 1201C880.301 1201 878.999 1202.3 879 1203.91C879.001 1205.51 880.304 1206.81 881.91 1206.81C883.515 1206.81 884.816 1205.51 884.815 1203.91Z" fill="#4AC3DF"/>
<path d="M70.8597 1155.23L70.0127 1156.83C69.9717 1156.91 69.9087 1156.97 69.8327 1157.01L68.2327 1157.86C68.0207 1157.97 67.9397 1158.24 68.0507 1158.45C68.0917 1158.52 68.1547 1158.59 68.2327 1158.63L69.8327 1159.48C69.9087 1159.52 69.9727 1159.58 70.0127 1159.66L70.8597 1161.26C71.0227 1161.57 71.4647 1161.57 71.6297 1161.26L72.4747 1159.66C72.5157 1159.58 72.5787 1159.52 72.6547 1159.48L74.2547 1158.63C74.4667 1158.52 74.5477 1158.26 74.4367 1158.04C74.3957 1157.97 74.3327 1157.9 74.2547 1157.86L72.6547 1157.01C72.5787 1156.97 72.5157 1156.91 72.4747 1156.83L71.6287 1155.23C71.5167 1155.02 71.2537 1154.94 71.0417 1155.05C70.9637 1155.09 70.8997 1155.16 70.8597 1155.23Z" stroke="#8AFFF9" stroke-width="1.097" stroke-linecap="round" stroke-linejoin="round"/>
<path d="M857.878 762.726L859.178 762.017C859.361 761.915 859.427 761.687 859.326 761.504C859.291 761.441 859.24 761.391 859.178 761.357L857.878 760.644C857.815 760.61 857.763 760.558 857.728 760.495L857.018 759.195C856.917 759.012 856.688 758.946 856.506 759.047C856.443 759.082 856.393 759.133 856.358 759.195L855.649 760.495C855.613 760.558 855.56 760.61 855.497 760.644L854.197 761.355C854.013 761.455 853.946 761.683 854.046 761.866C854.081 761.929 854.134 761.982 854.197 762.016L855.497 762.726C855.56 762.761 855.612 762.814 855.647 762.876L856.356 764.176C856.455 764.359 856.683 764.427 856.866 764.329C856.93 764.294 856.984 764.241 857.018 764.176L857.728 762.876C857.763 762.812 857.814 762.761 857.878 762.726Z" fill="#4AC3DF"/>
<path d="M1600.06 1195.9L1601.42 1195.16C1601.61 1195.05 1601.68 1194.81 1601.57 1194.62C1601.54 1194.55 1601.48 1194.5 1601.42 1194.46L1600.06 1193.72C1599.99 1193.69 1599.94 1193.63 1599.9 1193.56L1599.16 1192.21C1599.06 1192.01 1598.82 1191.94 1598.63 1192.05C1598.56 1192.08 1598.5 1192.14 1598.47 1192.21L1597.72 1193.56C1597.69 1193.63 1597.63 1193.69 1597.57 1193.72L1596.21 1194.46C1596.02 1194.57 1595.95 1194.81 1596.05 1195C1596.09 1195.07 1596.14 1195.12 1596.21 1195.16L1597.57 1195.9C1597.63 1195.94 1597.69 1195.99 1597.72 1196.06L1598.47 1197.42C1598.62 1197.69 1599.01 1197.69 1599.16 1197.42L1599.9 1196.06C1599.94 1195.99 1599.99 1195.94 1600.06 1195.9Z" fill="#8AFFF9"/>
<mask id="mask2_421_379" style="mask-type:luminance" maskUnits="userSpaceOnUse" x="1607" y="961" width="7" height="6">
<path d="M1613.23 966.933V961.31H1607.61V966.934L1613.23 966.933Z" fill="white"/>
</mask>
<g mask="url(#mask2_421_379)">
<path d="M1611.67 965.21L1613.03 964.467C1613.22 964.363 1613.29 964.124 1613.18 963.933C1613.15 963.866 1613.09 963.812 1613.03 963.775L1611.67 963.032C1611.6 962.996 1611.55 962.941 1611.51 962.876L1610.77 961.516C1610.66 961.326 1610.42 961.254 1610.23 961.359C1610.17 961.395 1610.11 961.449 1610.08 961.516L1609.33 962.876C1609.3 962.941 1609.24 962.996 1609.18 963.032L1607.82 963.775C1607.63 963.88 1607.56 964.12 1607.66 964.312C1607.7 964.377 1607.75 964.431 1607.82 964.467L1609.18 965.211C1609.24 965.247 1609.3 965.302 1609.33 965.368L1610.08 966.728C1610.18 966.918 1610.42 966.989 1610.61 966.885C1610.68 966.85 1610.73 966.795 1610.77 966.729L1611.51 965.369C1611.55 965.303 1611.6 965.249 1611.67 965.213" fill="#8AFFF9"/>
</g>
<path d="M1088 845.78L1090.78 843M1080 853.78L1082.78 851M1085.61 843.686C1085.61 842.689 1080.12 848.171 1081.12 848.171C1080.12 848.171 1085.61 853.655 1085.61 852.658C1085.61 853.654 1091.09 848.17 1090.09 848.17C1091.09 848.171 1085.61 842.688 1085.61 843.686Z" stroke="#8AFFF9" stroke-width="1.097" stroke-linecap="round" stroke-linejoin="round"/>
<path d="M1268.98 697.823L1271.73 696.316C1271.92 696.212 1271.99 695.972 1271.89 695.781C1271.85 695.715 1271.8 695.66 1271.73 695.624L1268.98 694.118C1268.91 694.082 1268.86 694.028 1268.82 693.962L1267.32 691.207C1267.21 691.016 1266.97 690.944 1266.78 691.047C1266.72 691.084 1266.66 691.14 1266.62 691.207L1265.12 693.962C1265.08 694.028 1265.03 694.083 1264.96 694.119L1262.21 695.626C1262.02 695.73 1261.94 695.969 1262.05 696.159C1262.08 696.225 1262.14 696.28 1262.21 696.316L1264.96 697.824C1265.03 697.86 1265.08 697.915 1265.12 697.981L1266.62 700.735C1266.77 701.008 1267.17 701.008 1267.31 700.735L1268.82 697.979C1268.86 697.913 1268.91 697.859 1268.98 697.823Z" fill="#8AFFF9"/>
<path d="M1228.88 1024.73L1230.18 1024.02C1230.36 1023.92 1230.43 1023.69 1230.33 1023.5C1230.29 1023.44 1230.24 1023.39 1230.18 1023.36L1228.88 1022.64C1228.81 1022.61 1228.76 1022.56 1228.73 1022.5L1228.02 1021.2C1227.92 1021.01 1227.69 1020.95 1227.51 1021.05C1227.44 1021.08 1227.39 1021.13 1227.36 1021.2L1226.65 1022.5C1226.61 1022.56 1226.56 1022.61 1226.5 1022.64L1225.2 1023.36C1225.01 1023.46 1224.95 1023.68 1225.05 1023.87C1225.08 1023.93 1225.13 1023.98 1225.2 1024.02L1226.5 1024.73C1226.56 1024.76 1226.61 1024.81 1226.65 1024.88L1227.36 1026.18C1227.45 1026.36 1227.68 1026.43 1227.87 1026.33C1227.93 1026.29 1227.98 1026.24 1228.02 1026.18L1228.73 1024.88C1228.76 1024.81 1228.81 1024.76 1228.88 1024.73Z" fill="#2194DA"/>
<path d="M1514.06 854.9L1515.42 854.156C1515.61 854.051 1515.68 853.81 1515.57 853.619C1515.54 853.554 1515.48 853.5 1515.42 853.464L1514.06 852.721C1513.99 852.685 1513.94 852.631 1513.9 852.566L1513.16 851.206C1513.06 851.015 1512.82 850.944 1512.63 851.049C1512.56 851.085 1512.5 851.14 1512.47 851.206L1511.72 852.566C1511.69 852.632 1511.63 852.687 1511.57 852.723L1510.21 853.465C1510.02 853.57 1509.95 853.811 1510.05 854.002C1510.09 854.067 1510.14 854.121 1510.21 854.157L1511.57 854.902C1511.63 854.939 1511.69 854.992 1511.72 855.057L1512.47 856.417C1512.62 856.69 1513.01 856.69 1513.16 856.417L1513.9 855.057C1513.94 854.992 1513.99 854.938 1514.06 854.902" fill="#8AFFF9"/>
<path d="M1732 793L1733.76 793.542L1735.53 793L1734.98 794.762L1735.53 796.525L1733.76 795.982L1732 796.526L1732.54 794.763L1732 793Z" stroke="#2CD2AA" stroke-width="1.097" stroke-linecap="round" stroke-linejoin="round"/>
</g>
<path d="M1133.98 16.1149L1136.73 17.6218C1136.92 17.7268 1136.99 17.9669 1136.89 18.1569C1136.85 18.2219 1136.8 18.2759 1136.73 18.3119L1133.98 19.8199C1133.91 19.8569 1133.86 19.9099 1133.82 19.9759L1132.32 22.7318C1132.21 22.9228 1131.97 22.9949 1131.78 22.8919C1131.72 22.8559 1131.66 22.7998 1131.62 22.7318L1130.12 19.9759C1130.08 19.9099 1130.03 19.8559 1129.96 19.8199L1127.21 18.3129C1127.02 18.2089 1126.94 17.9699 1127.05 17.7799C1127.08 17.7139 1127.14 17.6589 1127.21 17.6229L1129.96 16.1149C1130.03 16.0789 1130.08 16.0249 1130.12 15.9589L1131.62 13.2039C1131.73 13.0139 1131.97 12.9439 1132.16 13.0489C1132.22 13.0849 1132.28 13.1389 1132.31 13.2039L1133.82 15.9599C1133.86 16.0259 1133.91 16.0799 1133.98 16.1169" fill="#2FD5AA"/>
</svg>
